<svg xmlns="http://www.w3.org/2000/svg" width="40" height="40" viewBox="0 0 40 40">
  <g id="グループ_1745" data-name="グループ 1745" transform="translate(-1043 -34)">
    <rect id="長方形_1304" data-name="長方形 1304" width="40" height="40" transform="translate(1043 34)" fill="none"/>
    <g id="グループ_1744" data-name="グループ 1744" transform="translate(1043 34.541)">
      <path id="パス_852" data-name="パス 852" d="M1082.887,52.228a19.683,19.683,0,0,0-17.244-17.2c-12.224-1.523-22.642,7.7-22.642,19.294a19.637,19.637,0,0,0,16.875,19.223v-13.6h-5V54.324h5V49.918c0-5.012,2.947-7.781,7.456-7.781a29.967,29.967,0,0,1,4.419.391v4.922H1069.3a2.853,2.853,0,0,0-3.171,3.123v3.752h5.547l-.887,5.625h-4.66v13.6A19.575,19.575,0,0,0,1082.887,52.228Z" transform="translate(-1043 -34.865)" fill="#1877f2"/>
      <path id="パス_853" data-name="パス 853" d="M1077.91,64.313l.887-5.625h-5.547V54.936c0-1.581.775-3.123,3.259-3.123h2.366V46.891a29.969,29.969,0,0,0-4.419-.391c-4.51,0-7.456,2.769-7.456,7.781v4.406h-5v5.625h5v13.6a20.786,20.786,0,0,0,6.25,0v-13.6Z" transform="translate(-1050.125 -39.228)" fill="#fff"/>
    </g>
  </g>
</svg>
