<svg xmlns="http://www.w3.org/2000/svg" width="40" height="40" viewBox="0 0 40 40">
  <g id="Twitter_Social_Icon_Circle_Color" transform="translate(-0.293 -0.293)">
    <g id="Dark_Blue" transform="translate(0.293 0.293)">
      <circle id="楕円形_299" data-name="楕円形 299" cx="20" cy="20" r="20" fill="#1da1f2"/>
    </g>
    <g id="Logo__x2014__FIXED" transform="translate(9.152 11.657)">
      <path id="パス_851" data-name="パス 851" d="M97.144,133.793A13.765,13.765,0,0,0,111,119.934c0-.212,0-.424-.01-.626a9.979,9.979,0,0,0,2.434-2.525,9.886,9.886,0,0,1-2.8.768,4.868,4.868,0,0,0,2.141-2.7,9.863,9.863,0,0,1-3.091,1.182,4.874,4.874,0,0,0-8.424,3.333,4.464,4.464,0,0,0,.131,1.111,13.818,13.818,0,0,1-10.04-5.091,4.868,4.868,0,0,0,1.515,6.495,4.784,4.784,0,0,1-2.2-.606v.061a4.876,4.876,0,0,0,3.909,4.778,4.856,4.856,0,0,1-1.283.172,4.65,4.65,0,0,1-.919-.091,4.863,4.863,0,0,0,4.545,3.384,9.791,9.791,0,0,1-6.051,2.081,8.854,8.854,0,0,1-1.162-.071,13.57,13.57,0,0,0,7.444,2.2" transform="translate(-89.7 -114.5)" fill="#fff"/>
    </g>
  </g>
</svg>
