<?xml version="1.0" encoding="utf-8"?>
<!-- Generator: Adobe Illustrator 24.1.0, SVG Export Plug-In . SVG Version: 6.00 Build 0)  -->
<svg version="1.1" id="レイヤー_1" xmlns="http://www.w3.org/2000/svg" xmlns:xlink="http://www.w3.org/1999/xlink" x="0px"
	 y="0px" viewBox="0 0 248 46" style="enable-background:new 0 0 248 46;" xml:space="preserve">
<style type="text/css">
	.st0{fill:#0099D9;}
	.st1{fill:#FFE100;}
	.st2{fill:#FA422B;}
	.st3{fill:#55417D;}
	.st4{fill:#FFAE21;}
	.st5{fill:#20C960;}
	.st6{fill:#5DD9CB;}
	.st7{fill:#188EBD;}
	.st8{fill:none;stroke:#000000;stroke-width:2;stroke-linecap:round;stroke-linejoin:round;stroke-miterlimit:10;}
	.st9{fill:none;}
	.st10{fill:#1877F2;}
	.st11{fill:#FFFFFF;}
	.st12{fill:none;stroke:#000000;stroke-width:2;stroke-linecap:round;stroke-linejoin:round;}
	.st13{fill:none;stroke:#231815;stroke-width:2;stroke-linecap:round;stroke-linejoin:round;}
	.st14{fill:#1F286F;}
	.st15{fill:none;stroke:#000000;stroke-width:2.2;stroke-linecap:round;stroke-linejoin:round;stroke-miterlimit:10;}
	.st16{fill:#000066;}
	.st17{enable-background:new    ;}
	.st18{fill:#1DA1F2;}
	.st19{fill:#FF0000;}
</style>
<g id="グループ_3162" transform="translate(-63.84 -45.086)">
	<g id="グループ_43_1_" transform="translate(39.038 -35.117)">
		<g id="グループ_3079_1_">
			<g id="グループ_3115_3_">
				<path id="パス_2038_3_" class="st16" d="M183.14,119.58c0.2,0.05,0.41,0.07,0.61,0.07h1.37c0.21-0.25,0.28-0.33,0.49-0.58
					c0.35,0.26,0.46,0.35,0.8,0.63c0.03,0.03,0.05,0.06,0.05,0.07c0,0.03-0.03,0.05-0.09,0.05h-2.65c-0.18,0-0.35,0.02-0.52,0.06
					L183.14,119.58z M183.36,118.58c0.18,0.04,0.36,0.06,0.55,0.06h0.98l0.48-0.56c0.33,0.25,0.42,0.33,0.73,0.6
					c0.01,0.02,0.02,0.05,0.03,0.07c0,0.03-0.03,0.05-0.08,0.05h-2.16c-0.16,0-0.33,0.01-0.49,0.04L183.36,118.58z M183.43,120.61
					c0.18,0.04,0.36,0.06,0.55,0.06h0.88c0.25-0.29,0.25-0.29,0.49-0.55c0.32,0.25,0.41,0.33,0.72,0.6
					c0.02,0.02,0.04,0.04,0.04,0.07c0,0.03-0.03,0.05-0.09,0.05h-2.05c-0.16,0-0.33,0.01-0.49,0.05L183.43,120.61z M183.44,121.63
					c0.18,0.04,0.36,0.06,0.55,0.06h0.82c0.21-0.25,0.27-0.32,0.48-0.56c0.32,0.25,0.41,0.33,0.72,0.6
					c0.03,0.04,0.05,0.06,0.05,0.08s-0.03,0.05-0.09,0.05h-1.98c-0.16,0-0.32,0.01-0.49,0.04L183.44,121.63z M184.28,125.26
					c-0.01,0.14-0.1,0.18-0.55,0.18c-0.22,0-0.27-0.02-0.27-0.16c0.03-0.92,0.03-1.1,0.03-1.66c0-0.46,0-0.58-0.03-1.3
					c0.39,0.19,0.51,0.25,0.89,0.46h0.72c0.17-0.21,0.22-0.27,0.38-0.46c0.28,0.2,0.36,0.26,0.6,0.46c0.07,0.06,0.1,0.1,0.1,0.14
					c0,0.06-0.05,0.11-0.26,0.23c0.01,0.49,0.01,1.07,0.02,1.73c0,0.1-0.02,0.14-0.1,0.17c-0.15,0.04-0.31,0.05-0.47,0.06
					c-0.2,0-0.25-0.03-0.25-0.16v-0.13h-0.82L184.28,125.26z M184.28,124.64h0.82v-1.7h-0.82V124.64z M190.72,124.39
					c-0.35,0.16-0.6,0.49-0.66,0.87c0,0.04-0.04,0.08-0.09,0.07c-0.1-0.02-0.2-0.06-0.29-0.11c-0.55-0.26-1.05-0.61-1.49-1.04
					c-0.78,0.64-1.7,1.09-2.68,1.31l-0.03-0.1c0.86-0.42,1.63-1,2.28-1.71c-0.42-0.56-0.72-1.21-0.87-1.9
					c-0.17,0.01-0.35,0.02-0.52,0.06l-0.05-0.29c0.21,0.04,0.42,0.06,0.63,0.06h1.91c0.18-0.21,0.24-0.26,0.43-0.45
					c0.34,0.25,0.44,0.32,0.76,0.57c0.08,0.06,0.1,0.1,0.1,0.14c0,0.07-0.09,0.11-0.37,0.19c-0.29,0.59-0.66,1.14-1.09,1.63
					c0.62,0.34,1.32,0.55,2.03,0.59L190.72,124.39z M185.95,121.49c0.34-0.32,0.58-0.73,0.68-1.19c0.11-0.5,0.17-1.01,0.16-1.52
					c0-0.22-0.01-0.44-0.05-0.66c0.42,0.2,0.55,0.26,0.95,0.49h0.75c0.17-0.2,0.22-0.26,0.41-0.46c0.27,0.21,0.35,0.28,0.61,0.49
					c0.06,0.06,0.09,0.1,0.09,0.13c0,0.06-0.06,0.11-0.28,0.22v1.28c0,0.12,0.02,0.13,0.26,0.13s0.29-0.02,0.36-0.12
					c0.17-0.36,0.29-0.74,0.38-1.13l0.09,0.01l-0.03,0.98v0.06c0,0.06,0.02,0.08,0.1,0.12c0.14,0.04,0.24,0.17,0.23,0.32
					c0,0.15-0.09,0.29-0.23,0.35c-0.28,0.08-0.58,0.11-0.87,0.09c-0.3,0.03-0.61,0.01-0.91-0.08c-0.13-0.07-0.2-0.21-0.18-0.35
					v-0.26c0.01-0.18,0.01-0.29,0.01-0.3v-1.3h-0.86c0.07,0.66-0.08,1.32-0.43,1.89c-0.31,0.39-0.72,0.69-1.19,0.88L185.95,121.49z
					 M187.04,121.78c0.21,0.58,0.57,1.09,1.04,1.49c0.34-0.45,0.62-0.96,0.82-1.49H187.04z"/>
				<path id="パス_2039_3_" class="st16" d="M199.31,120.57c-0.02,0.1-0.03,0.17-0.04,0.21c-0.02,0.06-0.05,0.24-0.12,0.52h1.2
					c0.18-0.18,0.23-0.25,0.41-0.42c0.29,0.19,0.37,0.25,0.64,0.45c0.06,0.06,0.1,0.09,0.1,0.14s-0.05,0.1-0.25,0.21v0.76
					c0,1.01,0.01,1.52,0.03,1.91c0,0.05-0.02,0.1-0.05,0.14c-0.16,0.07-0.34,0.09-0.51,0.07c-0.26,0-0.3-0.02-0.3-0.14v-0.16H198
					v0.18c-0.01,0.15-0.1,0.18-0.56,0.18c-0.29,0-0.33-0.02-0.33-0.18c0.02-0.82,0.03-1.5,0.03-2.04c0-0.75-0.01-1.05-0.04-1.49
					c0.32,0.11,0.63,0.24,0.92,0.4h0.3c0.11-0.47,0.11-0.49,0.16-0.73h-2.8c-0.21-0.01-0.41,0.01-0.61,0.05l-0.05-0.28
					c0.21,0.04,0.42,0.06,0.64,0.06h2.86c0.04-0.18,0.05-0.29,0.1-0.6h-2.17v0.13c-0.01,0.14-0.09,0.17-0.53,0.17
					c-0.29,0-0.33-0.02-0.33-0.17c0.02-0.49,0.02-0.74,0.02-1.06s-0.01-0.46-0.03-0.8c0.41,0.16,0.54,0.21,0.93,0.39h4.31
					c0.2-0.19,0.26-0.25,0.45-0.42c0.26,0.18,0.34,0.23,0.59,0.41c0.09,0.06,0.12,0.1,0.12,0.14s-0.04,0.08-0.27,0.21v0.22
					c0,0.21,0.01,0.44,0.02,0.76c0,0.08-0.02,0.1-0.1,0.15c0.33,0.24,0.38,0.27,0.68,0.51c0.02,0.02,0.04,0.04,0.04,0.07
					c0,0.03-0.04,0.04-0.09,0.04L199.31,120.57z M196.36,125.3c0,0.15-0.07,0.18-0.57,0.18c-0.29,0-0.33-0.02-0.33-0.18
					c0.03-0.83,0.04-1.26,0.04-2.36c0.03-0.64,0.01-1.29-0.06-1.93c1.09,0.1,1.21,0.12,1.21,0.23c0,0.07-0.09,0.13-0.29,0.19v3.48
					h4.5c0.29-0.29,0.38-0.38,0.65-0.62c0.29,0.2,0.56,0.42,0.83,0.65c0.03,0.04,0.05,0.06,0.05,0.09s-0.03,0.05-0.09,0.05h-5.94
					L196.36,125.3z M196.45,118.63v1.01h0.92v-1.01L196.45,118.63z M200.41,121.48h-2.42v0.72h2.42V121.48z M197.99,122.36v0.76
					h2.42v-0.76H197.99z M197.99,123.29v0.81h2.42v-0.81H197.99z M198.16,119.64h0.94v-1.01h-0.94V119.64z M201.02,120.41
					c0.1-0.1,0.23-0.23,0.4-0.41c-0.1,0.01-0.16,0.01-0.25,0.01c-0.25,0-0.29-0.02-0.29-0.12v-0.08h-1.4
					c-0.06,0.33-0.06,0.33-0.12,0.6L201.02,120.41z M199.91,119.64h0.96v-1.01h-0.96V119.64z"/>
				<path id="パス_2040_3_" class="st16" d="M206.69,119.59c0.2,0.04,0.4,0.06,0.6,0.06h1.32c0.21-0.25,0.28-0.33,0.49-0.57
					c0.35,0.25,0.45,0.33,0.77,0.6c0.04,0.04,0.05,0.06,0.05,0.08c0,0.03-0.04,0.06-0.1,0.06h-2.55c-0.18,0-0.37,0.01-0.55,0.05
					L206.69,119.59z M206.88,120.62c0.19,0.04,0.38,0.07,0.57,0.06h0.93c0.19-0.25,0.26-0.32,0.45-0.55c0.26,0.19,0.5,0.39,0.74,0.6
					c0.02,0.02,0.04,0.04,0.04,0.07c0,0.02-0.04,0.05-0.08,0.05h-2.11c-0.17,0-0.33,0.01-0.49,0.04L206.88,120.62z M206.93,121.65
					c0.17,0.04,0.35,0.06,0.53,0.06h0.92c0.18-0.25,0.24-0.32,0.43-0.55c0.32,0.25,0.41,0.33,0.72,0.6
					c0.02,0.02,0.04,0.04,0.04,0.07c0,0.02-0.04,0.05-0.1,0.05h-2.03c-0.16,0-0.31,0.01-0.47,0.04L206.93,121.65z M206.95,118.57
					c0.18,0.04,0.37,0.07,0.57,0.06h0.88c0.21-0.26,0.28-0.34,0.5-0.59c0.33,0.27,0.43,0.35,0.73,0.63
					c0.03,0.02,0.04,0.05,0.05,0.08c0,0.02-0.03,0.05-0.1,0.05h-2.07c-0.18,0-0.35,0.01-0.53,0.04L206.95,118.57z M207.84,125.25
					c0,0.18-0.1,0.22-0.52,0.22c-0.25,0-0.3-0.03-0.3-0.18c0.02-0.54,0.02-0.99,0.02-1.7c0-0.6-0.01-0.78-0.03-1.28
					c0.39,0.19,0.51,0.25,0.9,0.48h0.62c0.16-0.19,0.16-0.19,0.4-0.46c0.26,0.19,0.34,0.25,0.58,0.44c0.06,0.06,0.09,0.1,0.09,0.14
					c0,0.06-0.06,0.12-0.26,0.23v0.38c0,0.25,0.02,1.35,0.02,1.6c0.01,0.05,0,0.1-0.03,0.14c-0.05,0.07-0.21,0.1-0.5,0.1
					c-0.21,0-0.26-0.03-0.26-0.16v-0.26h-0.74L207.84,125.25z M207.84,124.77h0.74v-1.81h-0.74V124.77z M209.95,119.38
					c0.68,0.08,0.68,0.08,0.95,0.12c0.04-0.24,0.06-0.49,0.05-0.73h-0.5c-0.19,0-0.38,0.01-0.57,0.04l-0.06-0.27
					c0.2,0.04,0.41,0.06,0.62,0.06h2.35c0.2-0.2,0.26-0.26,0.46-0.46c0.22,0.16,0.44,0.34,0.64,0.53c0.06,0.05,0.07,0.07,0.07,0.11
					c0,0.07-0.05,0.11-0.25,0.21c-0.1,1.69-0.2,2.24-0.45,2.53c-0.23,0.24-0.55,0.36-0.88,0.33c-0.09,0-0.1-0.01-0.12-0.1
					c-0.03-0.14-0.1-0.27-0.21-0.37c-0.11-0.1-0.18-0.12-0.71-0.26l0.02-0.11c0.58,0.06,0.82,0.09,1.01,0.09
					c0.21,0,0.26-0.06,0.33-0.34c0.12-0.66,0.18-1.33,0.18-2.01h-1.14c-0.02,0.3-0.06,0.59-0.12,0.88l0.11,0.03
					c0.16,0.02,0.31,0.09,0.43,0.21c0.1,0.1,0.15,0.24,0.14,0.38c0,0.22-0.1,0.41-0.21,0.41c-0.06,0-0.11-0.03-0.2-0.12
					c-0.14-0.12-0.28-0.24-0.44-0.33c-0.36,0.93-1.12,1.65-2.07,1.96l-0.05-0.07c0.37-0.28,0.7-0.62,0.96-1.01
					c0.24-0.39,0.41-0.81,0.5-1.26c-0.29-0.16-0.59-0.3-0.9-0.4L209.95,119.38z M210.31,122.69c0.05,0.24,0.07,0.48,0.07,0.72
					c0,0.77-0.29,1.42-0.63,1.42c-0.12-0.02-0.22-0.1-0.26-0.22c-0.05-0.12-0.07-0.24-0.08-0.37c0-0.13,0.08-0.25,0.26-0.4
					c0.34-0.29,0.54-0.71,0.54-1.16L210.31,122.69z M210.7,123.14c0-0.24-0.01-0.47-0.04-0.71c0.98,0.09,1.06,0.1,1.06,0.21
					c0,0.06-0.05,0.1-0.24,0.18v1.54c0,0.15,0,0.15,0.46,0.15c0.27,0,0.37-0.02,0.42-0.12c0.18-0.36,0.31-0.75,0.41-1.14l0.08,0.01
					l-0.03,1v0.01c-0.01,0.08,0.04,0.15,0.12,0.16c0.15,0.03,0.25,0.17,0.25,0.33c-0.01,0.22-0.18,0.41-0.4,0.42
					c-0.36,0.05-0.73,0.07-1.1,0.06c-0.83,0-0.97-0.07-1.01-0.45v-0.19c0-0.04,0-0.04,0.01-0.64L210.7,123.14z M211.05,121.76
					c1.27,0.29,1.58,0.44,1.58,0.8c0,0.29-0.19,0.6-0.37,0.6c-0.09,0-0.13-0.05-0.27-0.29c-0.23-0.43-0.57-0.79-0.98-1.04
					L211.05,121.76z M213.03,122.65c0.38,0.21,0.72,0.49,0.99,0.84c0.12,0.14,0.19,0.32,0.21,0.5c0,0.33-0.29,0.72-0.52,0.72
					c-0.13,0-0.19-0.11-0.22-0.38c-0.05-0.35-0.12-0.69-0.22-1.02c-0.07-0.22-0.17-0.42-0.29-0.61L213.03,122.65z"/>
				<path id="パス_2041_3_" class="st16" d="M224.87,122.3v0.76l0.01,0.89l0.01,0.51c0.03,0.25-0.07,0.49-0.27,0.64
					c-0.31,0.19-0.67,0.28-1.03,0.28c-0.11,0-0.14-0.03-0.15-0.12c-0.01-0.2-0.12-0.37-0.29-0.48c-0.37-0.2-0.76-0.33-1.18-0.38
					l0.01-0.1c0.91,0.06,1.16,0.06,1.84,0.06c0.12-0.01,0.14-0.03,0.14-0.14v-5.32h-4.66c-0.24,0-0.48,0.01-0.72,0.05l-0.04-0.29
					c0.25,0.06,0.5,0.08,0.76,0.08h5.15c0.26-0.31,0.34-0.4,0.6-0.7c0.4,0.3,0.52,0.4,0.92,0.72c0.04,0.04,0.06,0.06,0.06,0.09
					s-0.04,0.06-0.1,0.06h-1.07L224.87,122.3z M220.39,123.44c0,0.06-0.02,0.13-0.07,0.17c-0.19,0.08-0.39,0.11-0.59,0.09
					c-0.19,0-0.26-0.04-0.26-0.17v-0.05c0.03-0.73,0.04-1.49,0.04-2.64c0-0.38-0.01-0.69-0.04-1.17c0.35,0.16,0.68,0.33,1.01,0.53
					h1.33c0.2-0.22,0.26-0.29,0.47-0.51c0.22,0.15,0.44,0.31,0.65,0.49c0.06,0.06,0.1,0.1,0.1,0.14c0,0.06-0.05,0.1-0.26,0.22
					c0,1.25,0.01,1.76,0.03,2.66c0,0.1-0.03,0.13-0.12,0.16c-0.18,0.04-0.36,0.06-0.54,0.06c-0.2,0-0.26-0.03-0.26-0.17v-0.43h-1.49
					L220.39,123.44z M220.39,122.65h1.49v-2.28h-1.49V122.65z"/>
				<path id="パス_2042_3_" class="st16" d="M234.36,123.05c0,0.7,0.02,1.44,0.03,2.2c-0.01,0.2-0.08,0.23-0.6,0.23
					c-0.34,0-0.39-0.03-0.39-0.19c0.04-1.83,0.04-1.83,0.04-2.24h-1.68v0.38c-0.01,0.2-0.08,0.23-0.55,0.23
					c-0.34,0-0.39-0.02-0.39-0.17v-0.03c0.03-1.5,0.04-1.66,0.04-2.56c0-0.86-0.02-1.31-0.05-1.91c0.36,0.16,0.71,0.34,1.05,0.55
					h1.58c0.01-0.49-0.01-0.97-0.05-1.46c0.26,0.03,0.48,0.05,0.6,0.06c0.57,0.06,0.68,0.08,0.68,0.18c0,0.08-0.09,0.14-0.33,0.22
					v0.99h1.68l0.49-0.53c0.23,0.15,0.46,0.32,0.68,0.49c0.07,0.06,0.1,0.1,0.1,0.14c0,0.06-0.06,0.11-0.29,0.22
					c0.01,2.2,0.01,2.2,0.04,3.53c-0.01,0.2-0.1,0.23-0.61,0.23c-0.29,0-0.34-0.02-0.34-0.18l0.01-0.02v-0.38L234.36,123.05z
					 M233.43,119.72h-1.68v1.46h1.69L233.43,119.72z M233.44,121.35h-1.68v1.54h1.69L233.44,121.35z M236.1,119.72h-1.74v1.46h1.76
					L236.1,119.72z M236.1,121.35h-1.74l0.01,1.54h1.75L236.1,121.35z"/>
				<path id="パス_2043_3_" class="st16" d="M242.03,119.59c0.18,0.04,0.36,0.06,0.55,0.06h1.21c0.23-0.25,0.3-0.33,0.54-0.58
					c0.34,0.26,0.45,0.35,0.77,0.64c0.03,0.03,0.04,0.05,0.04,0.06s-0.04,0.05-0.09,0.05h-2.51c-0.16,0-0.32,0.01-0.48,0.05
					L242.03,119.59z M242.24,121.65c0.16,0.04,0.33,0.06,0.49,0.06h0.87c0.21-0.25,0.27-0.32,0.48-0.56
					c0.32,0.25,0.41,0.33,0.71,0.58c0.04,0.04,0.05,0.06,0.05,0.09s-0.04,0.06-0.1,0.06h-2.01c-0.15,0-0.3,0.01-0.45,0.04
					L242.24,121.65z M243.63,120.7c0.21-0.25,0.27-0.32,0.48-0.56c0.33,0.25,0.42,0.33,0.73,0.6c0.02,0.01,0.03,0.03,0.04,0.06
					c0,0.02-0.01,0.04-0.02,0.06c0.19,0.04,0.38,0.06,0.57,0.06h1.17v-0.8h-0.82c-0.16,0-0.32,0.01-0.49,0.04l-0.06-0.26
					c0.18,0.04,0.36,0.06,0.54,0.06h0.82v-0.76h-1.02c-0.17,0-0.34,0.01-0.5,0.05l-0.05-0.27c0.18,0.04,0.37,0.06,0.56,0.06h1.02
					v-0.19c0-0.24-0.01-0.49-0.05-0.73c0.25,0.02,0.45,0.04,0.57,0.05c0.5,0.03,0.64,0.06,0.64,0.16c0,0.07-0.09,0.13-0.31,0.2v0.52
					h0.71c0.21-0.25,0.28-0.33,0.49-0.57c0.34,0.25,0.43,0.33,0.74,0.6c0.03,0.04,0.05,0.06,0.05,0.08s-0.04,0.06-0.1,0.06h-1.89
					v0.76h0.6c0.21-0.24,0.27-0.31,0.49-0.53c0.24,0.18,0.46,0.38,0.68,0.58c0.02,0.02,0.03,0.04,0.04,0.07
					c0,0.02-0.04,0.05-0.08,0.05h-1.73v0.81h0.84l0.52-0.57c0.33,0.25,0.43,0.33,0.74,0.6c0.03,0.04,0.05,0.06,0.05,0.09
					s-0.03,0.05-0.07,0.05h-4.08c-0.18,0-0.36,0.01-0.54,0.06l-0.06-0.28l-0.05,0.01h-2.02c-0.16,0-0.32,0.01-0.48,0.04l-0.05-0.26
					c0.18,0.03,0.35,0.05,0.53,0.06L243.63,120.7z M242.3,118.55c0.16,0.04,0.33,0.06,0.5,0.06h0.82c0.23-0.25,0.3-0.33,0.53-0.58
					c0.26,0.2,0.51,0.41,0.75,0.64c0.02,0.03,0.03,0.05,0.03,0.07c0,0.03-0.03,0.05-0.07,0.05h-2.06c-0.15,0-0.3,0.01-0.45,0.04
					L242.3,118.55z M243.15,125.26c0,0.16-0.11,0.2-0.57,0.2c-0.2,0-0.25-0.03-0.25-0.17c0.03-0.76,0.03-0.91,0.03-1.46
					c0-0.68-0.01-1.03-0.04-1.49c0.31,0.13,0.61,0.28,0.89,0.45h0.59c0.13-0.15,0.26-0.29,0.4-0.43c0.26,0.19,0.34,0.25,0.59,0.44
					c0.06,0.06,0.09,0.09,0.09,0.13c0,0.06-0.06,0.12-0.24,0.22c0,1.14,0,1.17,0.03,1.97c0,0.18-0.11,0.23-0.57,0.23
					c-0.21,0-0.26-0.02-0.26-0.14v-0.29h-0.71L243.15,125.26z M243.14,124.77h0.72v-1.8h-0.72V124.77z M246.09,123.71v0.42
					c0,0.23,0,0.3,0.01,1.11c0,0.18-0.1,0.21-0.54,0.21c-0.25,0-0.29-0.02-0.29-0.15c0.02-0.94,0.03-1.41,0.03-2.28
					c0-0.75-0.01-1.12-0.03-1.78l0.92,0.45h1.75c0.18-0.2,0.23-0.25,0.41-0.44c0.22,0.14,0.43,0.29,0.63,0.45
					c0.06,0.06,0.09,0.1,0.09,0.13c0,0.06-0.05,0.12-0.25,0.24v1.7c0,0.06,0.01,0.25,0.02,0.54c0,0.09,0.01,0.23,0.01,0.4
					c0.02,0.16-0.03,0.33-0.15,0.44c-0.2,0.17-0.45,0.27-0.72,0.28c-0.1,0.01-0.13,0.02-0.18,0.02c-0.09,0-0.1-0.02-0.11-0.1
					c-0.01-0.17-0.09-0.33-0.23-0.44c-0.11-0.09-0.18-0.11-0.71-0.26l0.01-0.1c0.63,0.04,0.76,0.05,1.15,0.05
					c0.07,0,0.09-0.02,0.09-0.1v-0.8L246.09,123.71z M247.99,121.86h-1.9v0.74h1.9V121.86z M247.99,122.77h-1.9v0.77h1.9V122.77z"/>
				<path id="パス_2044_3_" class="st16" d="M257.93,122.53v0.25c0,0.74,0.01,1.75,0.03,2.44c0,0.2-0.1,0.24-0.62,0.24
					c-0.35,0-0.39-0.02-0.39-0.2c0.03-1.04,0.03-1.32,0.04-2.73h-1.72v0.42c0,0.19-0.1,0.22-0.57,0.22c-0.34,0-0.38-0.02-0.38-0.2
					c0.04-1.33,0.04-1.42,0.04-2.09s-0.01-0.96-0.04-1.48c0.38,0.16,0.75,0.34,1.1,0.55H257c0.03-0.6,0-1.21-0.06-1.81l0.59,0.04
					c0.6,0.05,0.75,0.09,0.75,0.19c0,0.07-0.09,0.13-0.35,0.21v1.37h1.74c0.21-0.24,0.28-0.31,0.49-0.54
					c0.31,0.21,0.4,0.28,0.68,0.48c0.09,0.07,0.12,0.12,0.12,0.18c0,0.07-0.06,0.13-0.28,0.24c0,1.26,0.01,1.59,0.05,2.61
					c0,0.21-0.1,0.25-0.64,0.25c-0.28,0-0.32-0.02-0.32-0.18v-0.47L257.93,122.53z M257,121.58v-1.46h-1.73v2.24h1.72L257,121.58z
					 M259.77,120.12h-1.85v2.24h1.85L259.77,120.12z"/>
			</g>
		</g>
	</g>
	<g id="グループ_3161" transform="translate(62.661 -264.399)">
		<g id="グループ_1_1_" transform="translate(1.179 309.574)">
			<path id="パス_1_1_" class="st16" d="M6.15,12.58l-5.7,4.14l2.18,6.7L6.15,12.58"/>
			<path id="パス_2_1_" class="st16" d="M7.56,11.7L4.04,22.55l2.17,6.7L7.56,11.7"/>
			<path id="パス_3_1_" class="st16" d="M8.54,14.3l5.7,17.54H7.19L8.54,14.3"/>
			<path id="パス_4_1_" class="st16" d="M8.41,11l12.74,17.54h-7.04L8.41,11"/>
			<path id="パス_5_1_" class="st16" d="M5.35,5.05l5.7-4.14l7.05,21.68L5.35,5.05"/>
			<path id="パス_6_1_" class="st16" d="M13.12,3.77l5.7,4.14l1.34,17.54L13.12,3.77"/>
			<path id="パス_7_1_" class="st16" d="M19.72,9.48l5.7,4.14l-4.35,13.4L19.72,9.48"/>
		</g>
		<g id="グループ_16_1_" transform="translate(33.379 323.918)">
			<g id="グループ_5_2_" transform="translate(61.893 0.096)">
				<g id="グループ_2_2_" transform="translate(6.481)">
					<path id="パス_8_2_" class="st16" d="M2.23,4.52c0.75-0.14,1.3-0.78,1.31-1.54c0-0.73-2.74-2-2.74-2
						C0.66,0.91,0.51,0.89,0.47,0.94s0,0.19,0.08,0.32c0.46,0.73,0.82,1.51,1.06,2.34C1.81,4.37,1.92,4.52,2.23,4.52z"/>
				</g>
				<g id="グループ_3_2_" transform="translate(2.75 0.29)">
					<path id="パス_9_2_" class="st16" d="M2.35,4.43c0.56,0,1.16-0.76,1.16-1.43c0-0.74-2.74-2.02-2.74-2.02
						C0.63,0.9,0.49,0.89,0.46,0.93s0.02,0.18,0.11,0.31C1.08,2,1.47,2.83,1.73,3.7C1.9,4.24,2.06,4.43,2.35,4.43z"/>
				</g>
				<g id="グループ_4_2_" transform="translate(0 0.102)">
					<path id="パス_10_2_" class="st16" d="M15.27,9.58c-0.13-0.09-0.3-0.08-0.41,0.04l-1.06,1.19c-0.12,0.13-0.29,0.2-0.47,0.21
						H10.1c-0.15,0-0.28-0.13-0.28-0.28v-0.49c0.01-0.17,0.11-0.31,0.26-0.38c0,0,0.41-0.15,0.41-0.33V9.44
						c-0.12-0.07-0.1-0.17,0.04-0.23L13.25,8c0.15-0.07,0.31-0.11,0.47-0.12h0.05c0.47,0,0.69-0.09,0.69-0.27
						c0-0.06-0.03-0.12-0.07-0.17c-0.1-0.1-0.21-0.2-0.32-0.29c-0.05-0.04-0.06-0.1-0.02-0.15c0.01-0.01,0.02-0.03,0.04-0.03
						c0.07-0.05,0.32-0.19,0.45-0.27l1.37-0.88c0.15-0.1,0.32-0.17,0.5-0.19c0,0,0.84-0.07,0.84-0.3c0-0.07-0.03-0.13-0.07-0.18
						c-0.13-0.13-0.27-0.25-0.42-0.37l-1.4-1.06c-0.13-0.09-0.31-0.08-0.43,0.02l-0.74,0.7c-0.13,0.12-0.3,0.19-0.48,0.2h-1.96
						c-0.15,0-0.18-0.08-0.05-0.17l2.45-2.01c0.1-0.09,0.22-0.16,0.36-0.19h0.02c0.49,0,0.74-0.09,0.74-0.29
						c0-0.09-0.01-0.09-0.01-0.09c-0.16-0.1-0.32-0.19-0.49-0.26l-2.08-0.7c-0.15-0.05-0.31,0.03-0.36,0.18L10.9,4.38
						c-0.09,0.15-0.24,0.24-0.41,0.25H3.23c-0.16,0-0.29-0.12-0.31-0.28L2.84,3.68C2.82,3.52,2.74,3.4,2.68,3.4S2.54,3.52,2.5,3.67
						c0,0-0.44,1.8-1.31,2.29L0.77,6.19C0.74,6.22,0.64,6.35,0.54,6.47c-0.07,0.12-0.1,0.26-0.08,0.4c0,0.74,0.43,1.38,0.96,1.38
						s1.11-0.84,1.11-0.84c0.1-0.16,0.17-0.33,0.22-0.51c0.12-0.57,0.19-1.14,0.21-1.72V5.15c0-0.07,0.13-0.13,0.28-0.13h10.64
						c0.12-0.01,0.22,0.08,0.22,0.2c0,0.02,0,0.05-0.01,0.07l-0.36,1.27c-0.03,0.1-0.13,0.16-0.24,0.14
						c-0.03-0.01-0.06-0.02-0.08-0.04L12.5,6.01c-0.14-0.09-0.31-0.07-0.43,0.04L11.5,6.63c-0.13,0.12-0.3,0.19-0.48,0.2L3.97,6.82
						c-0.15,0-0.28,0.09-0.28,0.19S3.82,7.2,3.97,7.2l7,0.01c0.15,0,0.21,0.1,0.11,0.22l-1.3,1.55C9.66,9.1,9.49,9.16,9.31,9.14
						L8.03,8.96C7.9,8.94,7.78,9.03,7.76,9.16c0,0.01,0,0.03,0,0.04v1.81H0.74c-0.15,0-0.28,0.08-0.28,0.19s0.13,0.19,0.28,0.19
						l5.74,0.01h0.99c0.15,0,0.28,0.13,0.28,0.28l0,0v3.5c0,0.01,0,0.02,0,0.03c0,0-0.02,0.05-0.05,0.11s-0.21,0.11-0.22,0.11
						l-0.32-0.01l-3.01-0.17c-0.15-0.01-0.28,0.04-0.28,0.1S4,15.48,4.15,15.52c0.76,0.17,1.5,0.42,2.21,0.75
						c0.29,0.23,0.48,0.57,0.51,0.94c0.04,0.29,0.09,0.35,0.33,0.35c0.68-0.01,1.35-0.16,1.96-0.45c0.28-0.19,0.5-0.47,0.6-0.8
						c0.05-0.18,0.07-0.37,0.08-0.55v-4.08c0-0.16,0.13-0.28,0.28-0.28h6.59c0.18,0,0.36-0.02,0.54-0.05v-0.13
						c-0.09-0.13-0.2-0.24-0.32-0.34L15.27,9.58z"/>
				</g>
			</g>
			<g id="グループ_11_2_" transform="translate(20.364 0.021)">
				<g id="グループ_6_2_" transform="translate(4.212 9.708)">
					<path id="パス_11_2_" class="st16" d="M0.46,0.91L0.46,0.91C0.46,0.91,0.46,0.91,0.46,0.91C0.47,0.91,0.46,0.91,0.46,0.91z"
						/>
				</g>
				<g id="グループ_7_2_" transform="translate(4.267 9.81)">
					<path id="パス_12_2_" class="st16" d="M7.75,5.41c0.03-0.12,0.04-0.24,0.04-0.36V3.12C7.8,2.87,7.88,2.64,8.01,2.44
						c0,0,0.32-0.22,0.32-0.36c0-0.05-0.02-0.09-0.11-0.16C7.6,1.42,6.96,0.97,6.96,0.97C6.83,0.88,6.65,0.89,6.53,1L5.97,1.53
						c-0.14,0.12-0.3,0.18-0.48,0.19H2.75C2.57,1.72,2.39,1.68,2.22,1.6l-1.5-0.67C0.63,0.88,0.53,0.91,0.48,1
						C0.46,1.03,0.45,1.07,0.46,1.11v4.76c0,0.15,0.07,0.3,0.18,0.4h0.23c0.38,0,0.75-0.02,1.13-0.07l0.2-0.04
						c0.06-0.16,0.09-0.33,0.09-0.5V5.29c0-0.16,0.13-0.28,0.28-0.28h0h3.08c0.15,0,0.28,0.08,0.28,0.18
						c0.01,0.15,0.05,0.3,0.12,0.44c0.13,0.02,0.27,0.03,0.41,0.02c0.3,0,0.59-0.02,0.88-0.06C7.49,5.56,7.63,5.5,7.75,5.41z
						 M5.94,4.35c0,0.16-0.13,0.28-0.28,0.28H2.57c-0.16,0-0.28-0.13-0.28-0.28l0,0V2.39c0-0.16,0.13-0.28,0.28-0.28h3.08
						c0.16,0,0.28,0.13,0.28,0.28V4.35z"/>
				</g>
				<g id="グループ_8_2_" transform="translate(3.151 3.146)">
					<path id="パス_13_2_" class="st16" d="M9.14,0.96C9,0.88,8.82,0.9,8.7,1L8.16,1.55C8.04,1.67,7.87,1.74,7.7,1.75H2.89
						C2.71,1.75,2.52,1.71,2.35,1.63l-1.63-0.7C0.64,0.89,0.53,0.92,0.48,1C0.46,1.04,0.45,1.08,0.46,1.11v4.15
						c0,0.16,0.09,0.31,0.23,0.39h0.3c1.22,0,1.27-0.09,1.27-0.09c0.08-0.14,0.13-0.3,0.15-0.46c0.02-0.14,0.14-0.23,0.28-0.22h5.1
						c0.14-0.01,0.27,0.1,0.28,0.24c0.01,0.17,0.05,0.34,0.12,0.5c0,0,0.03,0.05,0.39,0.05c0.35-0.01,0.7-0.04,1.05-0.1
						C9.74,5.57,9.85,5.55,9.96,5.5c0.06-0.13,0.09-0.27,0.08-0.42V3.28c0-0.15,0.11-0.76,0.24-0.84c0,0,0.36-0.23,0.36-0.38V1.99
						c-0.12-0.12-0.26-0.22-0.4-0.32L9.14,0.96z M8.07,4.23c0,0.15-0.13,0.28-0.28,0.28h-5.1c-0.16,0-0.28-0.13-0.28-0.28V2.42
						c0-0.15,0.13-0.28,0.28-0.28h5.1c0.15,0,0.28,0.13,0.28,0.28V4.23z"/>
				</g>
				<g id="グループ_9_2_">
					<path id="パス_14_2_" class="st16" d="M16.93,3.27c-0.09-0.1-0.19-0.18-0.29-0.27l-1.75-1.36c-0.13-0.09-0.31-0.07-0.41,0.04
						l-1.01,1.14c-0.12,0.13-0.29,0.2-0.47,0.21H9.68c-0.16,0-0.28-0.13-0.28-0.28V2.18c0.01-0.17,0.1-0.32,0.25-0.41
						c0,0,0.44-0.22,0.44-0.35c0-0.24-0.47-0.36-1.58-0.44C8.24,0.97,7.58,0.91,7.58,0.91C7.44,0.9,7.32,0.99,7.3,1.13c0,0,0,0,0,0
						c0,0.01,0,0.02,0,0.03v1.59c0,0.16-0.13,0.28-0.28,0.28c0,0,0,0,0,0H0.74c-0.15,0-0.28,0.09-0.28,0.19s0.13,0.19,0.28,0.19
						h15.75c0.15,0,0.3-0.02,0.44-0.05L16.93,3.27L16.93,3.27z"/>
				</g>
				<g id="グループ_10_2_" transform="translate(0.615 7.668)">
					<path id="パス_15_2_" class="st16" d="M15.1,5.75V3.15c0.01-0.17,0.1-0.33,0.25-0.42c0,0,0.48-0.27,0.48-0.45V2.24
						c-0.12-0.11-0.24-0.22-0.37-0.31l-1.25-0.9c-0.13-0.09-0.31-0.07-0.43,0.04l-0.63,0.66c-0.13,0.12-0.3,0.2-0.47,0.21H2.95
						C2.77,1.93,2.59,1.88,2.42,1.8L0.71,0.94C0.64,0.89,0.54,0.91,0.49,0.98C0.46,1.02,0.45,1.06,0.46,1.1v8.57
						c0,0.15,0.07,0.29,0.19,0.38h0.21c1.38,0,1.47-0.23,1.47-0.23c0.06-0.17,0.1-0.36,0.1-0.54L2.41,6.3V2.6
						c0-0.16,0.13-0.28,0.28-0.28c0,0,0,0,0,0h10.16c0.16,0,0.28,0.13,0.28,0.28l0,0v5.01c0,0.14-0.01,0.28-0.03,0.42
						c-0.01,0.07-0.3,0.17-0.45,0.16l-1.69-0.08c-0.15-0.01-0.28,0.03-0.29,0.09s0.11,0.14,0.26,0.18l0.99,0.41
						c0.13,0.13,0.24,0.28,0.32,0.45l0.1,0.35c0.03,0.15,0.08,0.37,0.11,0.48h0.15c0.62,0,1.24-0.11,1.82-0.35
						c0.25-0.12,0.46-0.32,0.58-0.56c0.07-0.17,0.1-0.35,0.11-0.54L15.1,5.75z"/>
				</g>
			</g>
			<g id="グループ_14_2_" transform="translate(41.076)">
				<g id="グループ_12_2_" transform="translate(3.424 11.653)">
					<path id="パス_16_2_" class="st16" d="M3.03,1.61C2.52,1.4,0.78,0.94,0.78,0.94C0.63,0.9,0.49,0.9,0.46,0.93
						S0.5,1.09,0.61,1.2c0.68,0.73,1.25,1.56,1.7,2.44c0.31,0.69,0.43,0.82,0.73,0.82c0.58,0,1.16-0.76,1.16-1.49
						C4.19,2.36,3.86,1.98,3.03,1.61z"/>
				</g>
				<g id="グループ_13_2_">
					<path id="パス_17_2_" class="st16" d="M17.27,3.32V3.29c-0.1-0.1-0.2-0.2-0.31-0.28l-1.52-1.19c-0.13-0.1-0.3-0.08-0.41,0.04
						l-0.9,0.99c-0.13,0.12-0.29,0.2-0.47,0.21h-2.53c-0.15,0-0.2-0.1-0.1-0.22l0.46-0.62c0.11-0.14,0.26-0.25,0.43-0.3
						c0,0,0.54-0.13,0.54-0.31c-0.76-0.31-1.55-0.52-2.36-0.64c-0.15-0.03-0.3,0.07-0.33,0.22l-0.52,1.8
						C9.2,3.13,9.16,3.24,9.14,3.22S9.03,3.11,8.92,3.01L7.68,1.92c-0.12-0.1-0.3-0.08-0.4,0.04L6.52,2.84
						c-0.12,0.13-0.29,0.2-0.46,0.21H4.38c-0.15,0-0.21-0.11-0.12-0.23l0.43-0.69c0.1-0.15,0.25-0.25,0.42-0.29
						c0,0,0.52-0.1,0.52-0.28C4.85,1.25,4.05,1.03,3.23,0.91c-0.15-0.03-0.3,0.07-0.34,0.22C2.73,1.77,2.52,2.39,2.26,3
						c-0.5,1.05-1.08,2.06-1.71,3.03c-0.08,0.13-0.12,0.27-0.07,0.3s0.18-0.01,0.31-0.11l2.83-2.58c0.13-0.12,0.29-0.2,0.47-0.21
						H4.1c0.17,0.01,0.32,0.11,0.4,0.25c0.28,0.64,0.48,1.31,0.59,2c0.07,0.42,0.18,0.56,0.44,0.56c0.64-0.08,1.14-0.59,1.2-1.23
						c0-0.47-1.75-1.44-1.75-1.44C4.84,3.5,4.86,3.44,5.01,3.44h3.79C8.9,3.43,8.99,3.49,9,3.59C9,3.63,9,3.67,8.98,3.7L8.44,4.81
						C8.35,4.95,8.19,5.03,8.03,5.03l-0.1-0.01C7.79,5,7.67,5.1,7.65,5.23c0,0,0,0,0,0c0,0.01,0,0.02,0,0.04v1.14
						c0,0.15-0.13,0.28-0.28,0.28H2.92c-0.15,0-0.28,0.08-0.28,0.19s0.13,0.19,0.28,0.19h4.44c0.16,0,0.28,0.13,0.28,0.28l0,0v1.69
						c0,0.15-0.13,0.28-0.28,0.28H1.12c-0.15,0-0.28,0.08-0.28,0.19S0.96,9.7,1.12,9.7l9.58,0.01c0.16,0,0.28,0.13,0.28,0.28l0,0
						v1.43c0,0.15-0.13,0.28-0.28,0.28H1.36c-0.15,0-0.28,0.09-0.28,0.19s0.13,0.19,0.28,0.19h9.34c0.15,0,0.28,0.13,0.28,0.28v2.79
						c0,0.14-0.01,0.28-0.04,0.42c-0.02,0.07-0.44,0.13-0.59,0.12l-2.29-0.11c-0.15-0.01-0.28,0.03-0.29,0.1s0.11,0.15,0.26,0.2
						c0.58,0.15,1.14,0.37,1.67,0.63c0.27,0.23,0.43,0.57,0.44,0.93c0.02,0.25,0.07,0.33,0.25,0.33c0.65-0.02,1.29-0.18,1.89-0.45
						c0.22-0.14,0.41-0.34,0.53-0.57c0.07-0.17,0.11-0.35,0.12-0.54v-3.9c0.02-0.14,0.14-0.25,0.28-0.24h3.26
						c0.17,0,0.33-0.01,0.5-0.04v-0.11c-0.09-0.11-0.19-0.22-0.3-0.32l-1.39-1.16c-0.12-0.09-0.3-0.08-0.4,0.04l-0.82,0.98
						c-0.12,0.13-0.28,0.21-0.46,0.22h-0.4c-0.09,0.01-0.19,0-0.28-0.02v-1.7c0-0.16,0.13-0.28,0.28-0.28h3.43
						c0.17,0,0.35-0.01,0.52-0.04V9.53c-0.1-0.11-0.21-0.21-0.32-0.31l-1.51-1.21c-0.13-0.09-0.3-0.08-0.41,0.04L13.98,9.1
						c-0.12,0.13-0.29,0.2-0.46,0.21H9.87c-0.15,0-0.28-0.13-0.28-0.28V7.35c0-0.15,0.12-0.28,0.28-0.28c0,0,0,0,0,0h5.39
						c0.16,0,0.32-0.01,0.48-0.04V6.92c-0.1-0.11-0.21-0.21-0.32-0.3l-1.35-1.04c-0.13-0.09-0.31-0.07-0.42,0.04l-0.8,0.86
						c-0.13,0.12-0.3,0.2-0.47,0.21h-2.5c-0.15,0-0.28-0.13-0.28-0.28c0,0,0,0,0,0V6.14C9.6,5.97,9.71,5.83,9.86,5.77
						c0,0,0.42-0.14,0.42-0.31c0-0.2-1.34-0.35-1.34-0.35C8.79,5.09,8.77,5,8.89,4.91l1.43-1.26c0.13-0.12,0.3-0.19,0.48-0.2h0.11
						c0.17,0.01,0.32,0.11,0.4,0.26c0.24,0.54,0.41,1.11,0.52,1.69c0.09,0.53,0.22,0.73,0.51,0.73c0.62-0.08,1.1-0.56,1.18-1.18
						c0-0.49-1.73-1.36-1.73-1.36c-0.14-0.07-0.12-0.13,0.03-0.13h4.99c0.16,0,0.31-0.01,0.46-0.04L17.27,3.32z"/>
				</g>
			</g>
			<g id="グループ_15_2_" transform="translate(82.405 0.152)">
				<path id="パス_18_2_" class="st16" d="M17.38,4.39c0.16,0,0.31-0.01,0.46-0.04V4.24c-0.1-0.11-0.21-0.22-0.32-0.32L16.09,2.7
					c-0.12-0.1-0.29-0.08-0.39,0.04l0,0l-0.84,1.05C14.73,3.91,14.57,3.99,14.39,4H13.1c-0.15,0-0.28-0.13-0.28-0.28V2.21
					c0.01-0.17,0.11-0.32,0.26-0.39c0,0,0.47-0.2,0.47-0.36c0-0.24-2.53-0.46-2.53-0.46c-0.12-0.02-0.23,0.07-0.25,0.19c0,0,0,0,0,0
					c0,0.02,0,0.04,0,0.07l0.09,1.27c0.01,0.15,0.01,0.41,0.01,0.56v0.64c0,0.15-0.13,0.28-0.28,0.28H7.67
					C7.51,4,7.39,4.09,7.39,4.19s0.13,0.19,0.28,0.19L17.38,4.39z"/>
				<path id="パス_19_2_" class="st16" d="M8.21,6.98C7.64,7.95,6.98,8.87,6.25,9.72C6.15,9.84,6.1,9.97,6.13,10s0.17,0,0.3-0.08
					l4.09-3.36c0.09-0.11,0.22-0.18,0.35-0.2h0.04c0.36,0,0.62-0.11,0.62-0.25c-0.68-0.42-1.41-0.76-2.17-1.01
					C9.22,5.03,9.06,5.1,9.01,5.25l0,0C8.79,5.84,8.52,6.42,8.21,6.98z"/>
				<path id="パス_20_2_" class="st16" d="M13.2,5.2c-0.15-0.04-0.29-0.04-0.31,0s0.06,0.17,0.17,0.27c1,0.92,1.9,1.94,2.68,3.06
					c0.33,0.58,0.49,0.73,0.74,0.73c0.43,0,0.82-0.69,0.82-1.45c0-0.62-0.22-0.95-0.98-1.42C15.31,5.91,14.27,5.51,13.2,5.2z"/>
				<path id="パス_21_2_" class="st16" d="M6.11,8.96c0.4,0,0.87-0.67,0.87-1.23c0-0.33-0.49-0.71-0.49-0.71
					C6.34,6.9,6.19,6.79,6.03,6.7L5.26,6.3C5.11,6.22,5.01,6.07,5,5.9V5.54c0-0.15,0.13-0.28,0.28-0.28h2.05
					c0.15,0,0.3-0.01,0.44-0.04V5.11C7.72,5.05,7.6,4.91,7.49,4.8L6.47,3.78c-0.1-0.1-0.25-0.1-0.35,0C6.12,3.79,6.11,3.8,6.1,3.81
					L5.49,4.65C5.41,4.76,5.3,4.85,5.16,4.88C5.07,4.88,5,4.75,5,4.59l0.01-2.5C5.02,1.93,5.12,1.78,5.27,1.7
					c0,0,0.43-0.18,0.43-0.31c0-0.23-2.32-0.49-2.32-0.49C3.25,0.89,3.13,0.98,3.11,1.12c0,0.01,0,0.03,0,0.04V4.6
					c0,0.15,0,0.28,0,0.28H0.99c-0.15,0-0.28,0.09-0.28,0.19s0.13,0.19,0.28,0.19H2.7c0.12-0.01,0.23,0.09,0.23,0.21c0,0,0,0,0,0
					c0,0.02,0,0.04-0.01,0.06c0,0-0.42,2.21-0.84,3.64c-0.44,1.36-0.97,2.7-1.58,3.99c-0.07,0.14-0.08,0.28-0.02,0.32
					s0.18-0.03,0.28-0.15l2.33-3.6C3.16,9.6,3.22,9.61,3.22,9.77v7.54c0,0.15,0.04,0.29,0.09,0.3c0.09,0.01,0.17,0.02,0.26,0.02h0.2
					c0.31,0.01,0.62-0.03,0.92-0.12c0.14-0.05,0.26-0.11,0.27-0.11c0.02-0.1,0.02-0.2,0.02-0.31V6.77c0-0.15,0.07-0.17,0.14-0.04
					c0.29,0.51,0.5,1.07,0.6,1.64C5.76,8.8,5.89,8.96,6.11,8.96z"/>
				<path id="パス_22_2_" class="st16" d="M15.03,14.13c-0.73-0.28-1.42-0.66-2.05-1.13c0.8-1.04,1.46-2.17,1.96-3.38
					c0.62-0.02,0.82-0.07,0.82-0.24c0-0.21-0.25-0.35-2.19-1.2c-0.04-0.02-0.08-0.04-0.13-0.06c-0.13-0.06-0.21,0.05-0.27,0.27
					c-0.1,0.44-0.23,0.88-0.39,1.3c-0.32,0.79-0.71,1.55-1.16,2.27c-0.72-0.92-1.31-1.92-1.77-2.99C9.55,8.3,9.44,8.42,9.43,8.39
					L9.04,8.56C8.98,8.61,9,8.76,9.14,9.07c0.55,1.31,1.17,2.58,1.87,3.81c-1.47,1.93-3.42,3.46-5.64,4.43l0.09,0.2
					c1.27-0.23,2.49-0.64,3.65-1.22c1.07-0.53,2.04-1.24,2.88-2.09c1,1.09,2.17,2.01,3.47,2.72c0.27,0.18,0.57,0.31,0.89,0.38
					c0.11,0,0.18-0.07,0.22-0.27c0.05-0.23,0.13-0.46,0.24-0.67c0.25-0.52,0.67-0.94,1.19-1.2v-0.18
					C16.97,14.83,15.98,14.54,15.03,14.13z"/>
			</g>
			<path id="パス_23_1_" class="st16" d="M15.7,2.88c0-0.11-0.13-0.18-0.28-0.18H10.9c-0.15,0-0.28,0.08-0.28,0.18
				s0.13,0.19,0.28,0.19c0.7-0.05,1.36,0.31,1.7,0.92c0.35,0.83,0.48,1.74,0.39,2.64v7.77c-0.01,0.11-0.12,0.15-0.21,0.08L4.55,2.7
				H0.91c-0.15,0-0.28,0.09-0.28,0.19s0.13,0.19,0.28,0.19l0,0C2.48,3.2,2.67,3.75,2.67,5.67v7.88c0,2.66-0.27,3.46-1.93,3.54l0,0
				c-0.15,0-0.28,0.08-0.28,0.18s0.12,0.19,0.28,0.19h4.52c0.15,0,0.28-0.09,0.28-0.19s-0.13-0.18-0.28-0.18l0,0
				c-1.68-0.1-2.06-0.8-2.06-3.38V4.49c0-0.07,0.06-0.12,0.13-0.12c0.03,0,0.06,0.02,0.08,0.04l9.11,13.05h1V6.49
				c-0.09-0.85,0.03-1.71,0.35-2.5c0.3-0.6,0.92-0.96,1.58-0.92V3.06C15.59,3.05,15.7,2.97,15.7,2.88z"/>
		</g>
		<g id="グループ_42_1_" transform="translate(34.419 309.485)">
			<g id="グループ_35_1_" transform="translate(0 0.058)">
				<g id="グループ_32_1_" transform="translate(3.086)">
					<path id="パス_40_1_" class="st16" d="M1.3,2.63c0.36-0.06,0.62-0.37,0.62-0.73c0-0.35-1.31-0.96-1.31-0.96
						C0.55,0.91,0.48,0.9,0.46,0.92s0,0.09,0.04,0.15c0.22,0.35,0.39,0.72,0.51,1.12C1.1,2.56,1.16,2.63,1.3,2.63z"/>
				</g>
				<g id="グループ_33_1_" transform="translate(1.308 0.137)">
					<path id="パス_41_1_" class="st16" d="M1.36,2.59c0.26,0,0.55-0.36,0.55-0.68c0-0.35-1.31-0.96-1.31-0.96
						C0.54,0.91,0.48,0.9,0.46,0.92s0.01,0.09,0.05,0.15c0.24,0.36,0.43,0.76,0.56,1.17C1.14,2.5,1.22,2.59,1.36,2.59z"/>
				</g>
				<g id="グループ_34_1_" transform="translate(0 0.045)">
					<path id="パス_42_1_" class="st16" d="M7.51,5.04C7.45,5,7.37,5.01,7.32,5.06L6.81,5.63c-0.06,0.06-0.14,0.1-0.22,0.1H5.05
						c-0.07,0-0.13-0.06-0.13-0.13l0,0V5.37c0-0.08,0.05-0.15,0.13-0.18c0,0,0.19-0.07,0.19-0.16V4.98C5.18,4.95,5.19,4.9,5.26,4.88
						L6.55,4.3C6.62,4.27,6.7,4.25,6.78,4.24H6.8c0.22,0,0.33-0.04,0.33-0.13c0-0.03-0.01-0.06-0.04-0.08
						C7.05,3.98,7,3.93,6.95,3.89C6.93,3.87,6.92,3.84,6.94,3.82c0,0,0,0,0,0C6.94,3.81,6.95,3.81,6.96,3.8
						c0.03-0.02,0.15-0.09,0.21-0.13l0.65-0.42C7.9,3.2,7.98,3.17,8.06,3.16c0,0,0.4-0.03,0.4-0.14c0-0.03-0.01-0.06-0.03-0.09
						C8.37,2.86,8.3,2.81,8.23,2.75l-0.67-0.5C7.5,2.21,7.42,2.21,7.36,2.26L7.01,2.59c-0.06,0.06-0.14,0.09-0.23,0.1H5.84
						c-0.07,0-0.09-0.04-0.03-0.08l1.17-0.96c0.05-0.04,0.11-0.08,0.17-0.09h0.01c0.23,0,0.36-0.05,0.36-0.14V1.37
						C7.45,1.32,7.37,1.28,7.28,1.25L6.29,0.91C6.22,0.89,6.14,0.93,6.12,1L5.44,2.56c-0.04,0.07-0.12,0.12-0.2,0.12H1.78
						c-0.08,0-0.14-0.06-0.15-0.13L1.59,2.22C1.58,2.15,1.55,2.09,1.52,2.09S1.45,2.15,1.43,2.22c0,0-0.21,0.86-0.63,1.09L0.6,3.43
						C0.56,3.47,0.53,3.51,0.49,3.56C0.46,3.62,0.45,3.68,0.46,3.75c0,0.35,0.21,0.66,0.46,0.66S1.45,4,1.45,4
						c0.05-0.07,0.08-0.16,0.1-0.24c0.06-0.27,0.09-0.55,0.1-0.82V2.93c0-0.03,0.06-0.06,0.13-0.06h5.08
						c0.05-0.01,0.1,0.04,0.11,0.09c0,0,0,0,0,0c0,0.01,0,0.03,0,0.04L6.79,3.61C6.78,3.66,6.73,3.69,6.68,3.67
						c-0.01,0-0.03-0.01-0.04-0.02L6.2,3.34C6.14,3.3,6.05,3.31,6,3.36L5.73,3.64C5.67,3.7,5.59,3.73,5.5,3.74L2.14,3.73
						c-0.07,0-0.13,0.04-0.13,0.09s0.06,0.09,0.13,0.09h3.34c0.07,0,0.1,0.05,0.05,0.11L4.9,4.76C4.84,4.82,4.76,4.85,4.68,4.84
						L4.07,4.75c-0.06-0.01-0.12,0.04-0.13,0.1c0,0,0,0,0,0c0,0.01,0,0.01,0,0.02v0.86H0.6c-0.07,0-0.13,0.04-0.13,0.09
						S0.52,5.91,0.6,5.91H3.8c0.07,0,0.13,0.06,0.13,0.13c0,0,0,0,0,0l0,0v1.68c0,0-0.01,0.02-0.02,0.05s-0.1,0.05-0.1,0.05H3.66
						L2.22,7.75c-0.08,0-0.13,0.02-0.13,0.05s0.06,0.07,0.13,0.09c0.36,0.08,0.72,0.2,1.05,0.36C3.42,8.35,3.5,8.51,3.52,8.69
						c0.02,0.14,0.04,0.17,0.16,0.17c0.32,0,0.64-0.08,0.93-0.22c0.13-0.09,0.23-0.23,0.28-0.38c0.02-0.09,0.03-0.18,0.04-0.27V6.05
						c0-0.07,0.06-0.13,0.13-0.13H8.2c0.09,0,0.17-0.01,0.26-0.02V5.83C8.41,5.77,8.36,5.72,8.3,5.67L7.51,5.04z"/>
				</g>
			</g>
			<g id="グループ_41_1_" transform="translate(12.601 0.04)">
				<g id="グループ_36_1_" transform="translate(3.296 0.047)">
					<path id="パス_43_1_" class="st16" d="M5.22,2.52c0.07,0,0.15-0.01,0.22-0.02V2.45c-0.03-0.03-0.1-0.1-0.15-0.15L4.6,1.71
						C4.54,1.67,4.46,1.68,4.41,1.73l0,0l-0.4,0.5c-0.06,0.06-0.14,0.1-0.22,0.1H3.18c-0.07,0-0.13-0.06-0.13-0.13V1.48
						c0-0.08,0.05-0.15,0.12-0.19c0,0,0.22-0.1,0.22-0.17c0-0.11-1.2-0.22-1.2-0.22C2.14,0.89,2.09,0.93,2.08,0.98
						c0,0.01,0,0.03,0,0.05l0.04,0.6c0,0.07,0,0.19,0,0.27v0.3c0,0.07-0.06,0.13-0.13,0.13h-1.4c-0.07,0-0.13,0.04-0.13,0.09
						S0.52,2.5,0.59,2.5L5.22,2.52z"/>
				</g>
				<g id="グループ_37_1_" transform="translate(2.695 1.983)">
					<path id="パス_44_1_" class="st16" d="M1.45,1.82c-0.27,0.46-0.59,0.9-0.93,1.31C0.47,3.18,0.45,3.24,0.46,3.26
						s0.08,0,0.14-0.04l1.95-1.6c0.04-0.05,0.1-0.09,0.17-0.1h0.02c0.17,0,0.29-0.05,0.29-0.12C2.71,1.2,2.36,1.03,2,0.91
						C1.93,0.89,1.86,0.93,1.83,0.99C1.73,1.28,1.6,1.55,1.45,1.82z"/>
				</g>
				<g id="グループ_38_1_" transform="translate(5.917 2.028)">
					<path id="パス_45_1_" class="st16" d="M0.6,0.92c-0.07-0.02-0.14-0.02-0.15,0S0.49,1,0.54,1.05
						c0.48,0.44,0.91,0.93,1.28,1.46c0.15,0.28,0.23,0.35,0.35,0.35c0.21,0,0.39-0.33,0.39-0.69c0-0.29-0.1-0.45-0.46-0.67
						C1.61,1.27,1.12,1.07,0.6,0.92z"/>
				</g>
				<g id="グループ_39_1_">
					<path id="パス_46_1_" class="st16" d="M3.15,4.74c0.19,0,0.41-0.32,0.41-0.59c0-0.15-0.23-0.34-0.23-0.34
						C3.26,3.76,3.18,3.71,3.11,3.66L2.74,3.47C2.67,3.44,2.62,3.37,2.62,3.29V3.11c0-0.07,0.06-0.13,0.13-0.13h0.98
						c0.07,0,0.14-0.01,0.21-0.02V2.91c-0.02-0.03-0.08-0.1-0.13-0.15L3.32,2.28c-0.05-0.05-0.12-0.05-0.17,0L3.15,2.29l-0.29,0.4
						C2.82,2.74,2.76,2.78,2.7,2.8c-0.04,0-0.08-0.06-0.08-0.13l0.01-1.19c0-0.08,0.05-0.15,0.12-0.19c0,0,0.2-0.09,0.2-0.15
						c0-0.11-1.1-0.23-1.1-0.23C1.79,0.9,1.73,0.94,1.72,1.01c0,0.01,0,0.01,0,0.02v1.77H0.71c-0.07,0-0.13,0.04-0.13,0.09
						s0.06,0.09,0.13,0.09h0.82c0.06,0,0.11,0.04,0.11,0.1c0,0.01,0,0.02,0,0.03c0,0-0.2,1.05-0.4,1.73
						c-0.21,0.65-0.46,1.28-0.75,1.9C0.45,6.81,0.45,6.87,0.47,6.89s0.09-0.02,0.13-0.07l1.11-1.71c0.03-0.07,0.06-0.06,0.06,0.01
						v3.59c0,0.07,0.02,0.14,0.04,0.14C1.85,8.86,1.9,8.86,1.94,8.87h0.1c0.15,0,0.29-0.02,0.44-0.06l0.13-0.05
						c0.01-0.05,0.01-0.1,0.01-0.15V3.7c0-0.07,0.03-0.08,0.07-0.02c0.14,0.24,0.24,0.51,0.29,0.78C2.98,4.66,3.04,4.74,3.15,4.74z"
						/>
				</g>
				<g id="グループ_40_1_" transform="translate(2.354 3.435)">
					<path id="パス_47_1_" class="st16" d="M5.04,3.78c-0.3-0.13-0.59-0.29-0.86-0.46C4.12,3.27,4.1,3.19,4.14,3.14c0,0,0,0,0,0
						l0,0l0.8-1.38c0.04-0.07,0.11-0.12,0.19-0.13c0,0,0.26-0.02,0.26-0.1c0-0.1-0.12-0.17-1.04-0.57L4.29,0.92
						C4.22,0.9,4.19,0.95,4.16,1.05C4.11,1.26,4.05,1.47,3.97,1.67C3.83,2,3.66,2.32,3.48,2.64c-0.01,0.04-0.06,0.06-0.1,0.04
						c0,0,0,0,0,0C3.37,2.67,3.35,2.65,3.34,2.64C3.06,2.21,2.81,1.77,2.57,1.32L2.43,1c-0.05,0.03-0.1,0.06-0.15,0.08
						C2.22,1.11,2.18,1.16,2.17,1.22l0.07,0.15c0.21,0.48,0.83,1.7,0.83,1.7c0.03,0.07,0.02,0.16-0.03,0.21L0.55,5.22
						c-0.07,0.04-0.1,0.09-0.09,0.12s0.08,0.03,0.15,0.01C1.16,5.21,1.69,5.03,2.21,4.8C2.67,4.54,3.09,4.24,3.49,3.9
						c0.06-0.05,0.14-0.05,0.2,0.01c0.48,0.45,1,0.85,1.55,1.2c0.13,0.08,0.27,0.15,0.42,0.18c0.05,0,0.09-0.03,0.1-0.13
						c0.01-0.07,0.03-0.14,0.06-0.2C5.86,4.88,5.9,4.8,5.95,4.72l0.38-0.38C6.4,4.3,6.45,4.24,6.45,4.22S6.39,4.16,6.31,4.15
						C5.88,4.06,5.45,3.93,5.04,3.78z"/>
				</g>
			</g>
			<path id="パス_48_1_" class="st16" d="M25.99,3.01c1.13,0.28,1.55,0.55,1.55,0.97c0,0.34-0.24,0.63-0.57,0.7
				c-0.15,0-0.18-0.04-0.32-0.43c-0.16-0.38-0.37-0.73-0.62-1.06C25.99,3.14,25.97,3.07,25.99,3.01L25.99,3.01z M25.99,6.11
				c0.21,0.05,0.42,0.09,0.64,0.1c0.12,0,0.2-0.07,0.3-0.27c0.12-0.22,0.52-1.02,0.84-1.68c0.33-0.68,0.52-1.1,0.81-1.83l0,0
				c0.06,0.03,0.1,0.1,0.07,0.16l-1.07,3.43c-0.02,0.07-0.06,0.18-0.08,0.26c-0.04,0.14-0.07,0.28-0.08,0.42
				c0.01,0.11,0.04,0.22,0.08,0.33c0.11,0.24,0.18,0.5,0.19,0.77c0.02,0.51-0.37,0.95-0.89,0.97c-0.17,0-0.28-0.1-0.28-0.24
				c0-0.1,0.01-0.19,0.03-0.28c0.07-0.39,0.12-0.79,0.13-1.19c0.01-0.2-0.05-0.4-0.18-0.55c-0.12-0.09-0.26-0.17-0.4-0.23
				C26.04,6.24,25.99,6.18,25.99,6.11L25.99,6.11z M26.55,1.14c1.22,0.28,1.62,0.53,1.62,0.97c0,0.33-0.28,0.68-0.54,0.68
				c-0.14,0-0.2-0.06-0.28-0.25c-0.2-0.44-0.46-0.86-0.77-1.23C26.54,1.26,26.53,1.19,26.55,1.14L26.55,1.14z M32.31,4.79
				c0.24-0.28,0.46-0.53,0.68-0.77c0.34,0.25,0.66,0.52,0.97,0.8c0.03,0.04,0.05,0.07,0.05,0.09s-0.04,0.06-0.09,0.06h-2.71
				c-0.08,0-0.15,0.05-0.19,0.12c0,0-0.46,0.89-0.68,1.25c-0.21,0.34-0.39,0.6-0.72,1.06c1.11-0.05,1.91-0.11,2.7-0.2
				c-0.24-0.52-0.55-1.01-0.92-1.45l0,0c0.06-0.04,0.13-0.05,0.19-0.01c0.55,0.33,1.07,0.71,1.55,1.13
				c0.37,0.39,0.52,0.63,0.52,0.89c0,0.42-0.32,0.9-0.6,0.9c-0.13,0-0.21-0.1-0.31-0.42c-0.08-0.25-0.17-0.5-0.29-0.74
				c-0.91,0.27-0.92,0.27-3.71,0.92c-0.03,0.27-0.09,0.38-0.17,0.38c-0.1,0-0.15-0.15-0.45-1.4c0.35,0.02,0.5,0.02,0.71,0.02h0.39
				c0.29-0.8,0.53-1.62,0.72-2.45H28.3c-0.07,0-0.13-0.04-0.13-0.09s0.06-0.09,0.13-0.09h1.81c0.07,0,0.13-0.06,0.13-0.13V3.13
				c0-0.07-0.06-0.13-0.13-0.13h-1.2c-0.07,0-0.13-0.04-0.13-0.09s0.06-0.09,0.13-0.09h1.2c0.07,0,0.13-0.06,0.13-0.13V2.2
				c0-0.07,0-0.19,0-0.27c0,0-0.01-0.49-0.07-0.91c0.42,0.02,0.84,0.07,1.26,0.14c0.08,0.03,0.11,0.06,0.11,0.11
				c0,0.08-0.05,0.11-0.36,0.24v1.17c0,0.07,0.06,0.13,0.13,0.13c0,0,0,0,0,0H32c0.08,0,0.16-0.04,0.22-0.1c0,0,0.28-0.33,0.55-0.63
				c0.43,0.33,0.55,0.42,0.96,0.78c0.04,0.04,0.05,0.06,0.05,0.09S33.74,3,33.69,3h-2.37c-0.07,0-0.13,0.06-0.13,0.13v1.53
				c0,0.07,0.06,0.13,0.13,0.13L32.31,4.79z"/>
			<path id="パス_49_1_" class="st16" d="M38.71,8.8c0.93-0.64,1.69-1.5,2.2-2.51c0.5-0.96,0.81-2.02,0.91-3.1
				c0.05-0.46,0.1-1.09,0.1-1.47c0-0.17-0.01-0.27-0.03-0.49c0.3,0.03,0.54,0.06,0.69,0.07c0.61,0.07,0.79,0.11,0.79,0.22
				c0,0.07-0.08,0.12-0.36,0.22c-0.01,0.13-0.01,0.23-0.01,0.3c0.02,0.69,0.13,1.36,0.35,2.02c0.48,1.71,1.8,3.05,3.5,3.56l0,0
				c-0.02,0.07-0.06,0.12-0.13,0.15c-0.33,0.2-0.6,0.5-0.76,0.85c-0.04,0.09-0.07,0.11-0.11,0.11c-0.5-0.29-0.94-0.67-1.3-1.12
				c-0.63-0.81-1.08-1.75-1.31-2.76c-0.19-0.74-0.3-1.51-0.33-2.28c-0.02,1.09-0.26,2.17-0.72,3.16c-0.5,1.07-1.31,1.97-2.32,2.58
				c-0.28,0.18-0.98,0.5-0.98,0.5c-0.05,0.03-0.13,0.02-0.17-0.03L38.71,8.8z"/>
			<path id="パス_50_1_" class="st16" d="M57.9,3.31c0.21-0.23,0.26-0.29,0.49-0.51c0.28,0.21,0.37,0.28,0.64,0.49
				c0.12,0.09,0.16,0.15,0.16,0.2c0,0.08-0.08,0.14-0.29,0.26v2.5l0.01,1.57c0,0.09-0.01,0.18-0.03,0.27c0,0-0.11,0.47-0.39,0.61
				c-0.29,0.12-0.6,0.19-0.91,0.22c-0.09,0-0.11-0.03-0.12-0.15c-0.04-0.43-0.35-0.61-1.47-0.84l0,0c0.01-0.07,0.07-0.11,0.14-0.1
				c0,0,0.64,0.04,1.64,0.09c0.15-0.01,0.17-0.03,0.17-0.18V6.62c0-0.07-0.06-0.13-0.13-0.13h-3.74c-0.08,0-0.15,0.05-0.17,0.13
				c-0.15,0.51-0.38,0.99-0.68,1.42c-0.31,0.36-0.69,0.67-1.11,0.9l0,0c-0.03-0.03-0.02-0.1,0.02-0.17
				c0.69-1.41,1.02-2.97,0.98-4.54c0-0.03,0-0.15-0.01-0.33V3.58c-0.37,0.26-0.76,0.49-1.17,0.69l0,0
				c-0.03-0.06-0.02-0.13,0.04-0.17c0.53-0.53,1.02-1.1,1.46-1.71c0.32-0.45,0.57-0.95,0.74-1.47c0.43,0.09,0.86,0.2,1.29,0.34
				c0.09,0.03,0.12,0.07,0.12,0.12c0,0.09-0.1,0.14-0.45,0.17c-0.13,0.17-0.16,0.22-0.28,0.37h1.36c0.08-0.01,0.16-0.04,0.23-0.1
				c0,0,0.19-0.2,0.41-0.41l0.83,0.59c0.13,0.1,0.19,0.17,0.19,0.22c0,0.03-0.03,0.07-0.1,0.09c-0.13,0.03-0.27,0.06-0.4,0.08
				c-0.77,0.6-1.14,0.86-1.14,0.86c-0.06,0.04-0.05,0.08,0.02,0.08L57.9,3.31z M55.7,3.31c0.23-0.39,0.43-0.79,0.6-1.22H54.8
				c-0.08,0-0.16,0.04-0.22,0.1c-0.26,0.3-0.55,0.58-0.84,0.85l0.28,0.19c0.07,0.05,0.16,0.07,0.24,0.08L55.7,3.31z M55.35,6.3
				c0.07,0,0.13-0.06,0.13-0.13V5.04c0-0.07-0.06-0.13-0.13-0.13h-1.16c-0.07,0-0.13,0.06-0.14,0.13l-0.07,1.13
				c-0.01,0.06,0.04,0.12,0.1,0.13h0.02L55.35,6.3z M54.07,3.49v0.48c0,0.24,0,0.42-0.01,0.75h1.29c0.07,0,0.13-0.06,0.13-0.13V3.62
				c0-0.07-0.06-0.13-0.13-0.13L54.07,3.49z M56.41,4.59c0,0.07,0.06,0.13,0.13,0.13h1.27c0.07,0,0.13-0.06,0.13-0.13V3.62
				c0-0.07-0.06-0.13-0.13-0.13h-1.27c-0.07,0-0.13,0.06-0.13,0.13V4.59z M56.54,4.9c-0.07,0-0.13,0.06-0.13,0.13v1.13
				c0,0.07,0.06,0.13,0.13,0.13h1.27c0.07,0,0.13-0.06,0.13-0.13V5.04c0-0.07-0.06-0.13-0.13-0.13H56.54z"/>
			<path id="パス_51_1_" class="st16" d="M64.54,8.76c0.54-0.82,0.85-1.76,0.9-2.74c0.05-0.61,0.07-1.22,0.06-1.83
				c0-0.37,0-0.37,0.01-0.55V3.36c0.01-0.7-0.01-1.4-0.08-2.09c1.17,0.06,1.44,0.09,1.44,0.22c0,0.08-0.09,0.14-0.35,0.23
				c-0.01,0.22-0.02,0.86-0.03,1.93c0.03,0.85-0.02,1.71-0.15,2.55c-0.15,0.74-0.5,1.42-1.02,1.97c-0.2,0.21-0.61,0.56-0.61,0.56
				C64.66,8.78,64.59,8.79,64.54,8.76L64.54,8.76z M69.31,1.64c0.06,0.03,0.09,0.05,0.09,0.09c0,0.1-0.03,0.12-0.34,0.23
				c0,0.39-0.01,2.29-0.01,2.41c0,1.15,0.02,2.65,0.03,3.42v0.03c0,0.09-0.03,0.14-0.09,0.16c-0.24,0.05-0.49,0.08-0.73,0.08
				c-0.15,0-0.19-0.04-0.2-0.17c0-0.25,0-0.25,0.03-0.86c0.01-0.59,0.02-0.99,0.02-1.82c0-0.75-0.01-2.28-0.02-2.93
				c0-0.26-0.01-0.52-0.04-0.79C68.47,1.52,68.89,1.56,69.31,1.64L69.31,1.64z M72.1,1.47c0,0.09-0.07,0.13-0.35,0.24
				c-0.02,1.48-0.02,2.18-0.02,2.72c0,1.06,0.01,2.11,0.03,3.19c0.01,0.5,0.02,0.6,0.02,0.89c0.01,0.07-0.04,0.14-0.11,0.16
				C71.45,8.71,71.23,8.74,71,8.73c-0.21,0-0.26-0.03-0.29-0.15c0.03-1.22,0.05-2.37,0.05-3.78c0-2-0.02-3.07-0.07-3.56
				C71.96,1.32,72.1,1.34,72.1,1.47L72.1,1.47z"/>
			<path id="パス_52_1_" class="st16" d="M79.96,5.76c0,0.32,0,0.48,0.02,1.75c0,0.15,0.01,0.27,0.01,0.39
				c0.01,0.18-0.01,0.36-0.06,0.54c-0.04,0.13-0.16,0.22-0.29,0.22c-0.19-0.02-0.36-0.13-0.46-0.3c-0.16-0.21-0.27-0.45-0.3-0.72
				c0-0.11,0.02-0.22,0.07-0.33c0.21-1.11,0.27-2.24,0.2-3.36c0-1.55-0.03-1.84-0.15-2.07c-0.14-0.21-0.35-0.37-0.6-0.45
				c0.1-0.06,0.22-0.09,0.34-0.09c0.38,0.02,0.74,0.14,1.06,0.34c0.31,0.18,0.43,0.32,0.43,0.5c0,0.08-0.02,0.15-0.07,0.21
				c-0.15,0.25-0.17,0.41-0.2,1.75c0.72,0.03,1.42,0.18,2.09,0.44c0.37,0.11,0.63,0.45,0.63,0.84c0,0.36-0.16,0.6-0.39,0.6
				c-0.11,0-0.18-0.04-0.4-0.29c-0.53-0.59-1.19-1.05-1.93-1.35L79.96,5.76L79.96,5.76z M81.48,1.7c1.15,0.39,1.52,0.65,1.52,1.08
				c0,0.23-0.15,0.42-0.32,0.42c-0.09,0-0.15-0.06-0.23-0.2c-0.25-0.42-0.56-0.81-0.93-1.14C81.47,1.81,81.45,1.73,81.48,1.7
				L81.48,1.7z M82.26,1.1c0.36,0.07,0.7,0.19,1.03,0.35c0.34,0.15,0.49,0.35,0.49,0.61c0,0.22-0.13,0.4-0.28,0.4
				c-0.08,0-0.13-0.05-0.21-0.17C83.16,2.05,83,1.83,82.8,1.64c-0.15-0.14-0.31-0.27-0.48-0.39C82.27,1.2,82.24,1.14,82.26,1.1
				L82.26,1.1z"/>
			<path id="パス_53_1_" class="st16" d="M92.43,8.46c0.84-0.61,1.53-1.4,2.03-2.31c0.63-1.08,1.05-2.27,1.24-3.51
				c-0.94,0.03-1.88,0.16-2.8,0.37c-0.08,0.02-0.15,0.03-0.23,0.03c-0.17-0.01-0.34-0.08-0.48-0.18c0.03,0.42,0.03,0.46,0.04,0.93
				c0.02,0.3,0.02,0.54,0.03,0.68c0.02,0.35,0.03,0.47,0.03,0.53c0,0.4-0.11,0.6-0.34,0.6c-0.16,0-0.31-0.12-0.46-0.36
				c-0.14-0.19-0.22-0.41-0.23-0.64c0-0.07,0.02-0.14,0.05-0.21c0.08-0.24,0.12-0.49,0.11-0.74c0.02-0.37-0.05-0.75-0.18-1.1
				c-0.11-0.22-0.3-0.4-0.54-0.49c0.07-0.05,0.16-0.07,0.25-0.06c0.4,0.06,0.78,0.22,1.09,0.48c0.56-0.01,1.11-0.06,1.66-0.15
				c1.18-0.15,1.52-0.19,1.72-0.23c0.12-0.02,0.24-0.07,0.34-0.15c0.06-0.04,0.13-0.06,0.21-0.07c0.29,0.06,0.55,0.21,0.76,0.42
				c0.21,0.21,0.31,0.34,0.31,0.46c0,0.1-0.05,0.19-0.12,0.25c-0.14,0.17-0.24,0.37-0.29,0.59c-0.41,1.32-1.11,2.54-2.05,3.56
				c-0.59,0.52-1.25,0.97-1.95,1.33C92.56,8.55,92.48,8.53,92.43,8.46L92.43,8.46z"/>
			<path id="パス_54_1_" class="st16" d="M103.36,2.24c0.66,0.06,1.3,0.25,1.89,0.56c0.27,0.15,0.43,0.43,0.42,0.74
				c0,0.4-0.2,0.72-0.46,0.72c-0.15,0-0.23-0.07-0.36-0.29c-0.39-0.59-0.87-1.11-1.42-1.55C103.37,2.38,103.34,2.31,103.36,2.24
				L103.36,2.24z M109.91,2.74c-0.48,1-1.14,1.91-1.94,2.67c-0.75,0.75-1.59,1.41-2.5,1.97c-0.17,0.1-0.33,0.23-0.46,0.38
				c-0.08,0.12-0.22,0.2-0.36,0.21c-0.22,0-0.54-0.24-0.84-0.63c-0.24-0.27-0.38-0.6-0.41-0.96c0-0.08,0.01-0.16,0.04-0.23
				c0.23,0.4,0.52,0.64,0.75,0.64c0.92-0.28,1.77-0.73,2.52-1.33c1.06-0.83,2.07-1.72,3.02-2.68
				C109.77,2.73,109.85,2.71,109.91,2.74L109.91,2.74z"/>
			<path id="パス_55_1_" class="st16" d="M116.55,3.08c0.16,0.11,0.36,0.16,0.55,0.15c0.4,0,1.77-0.15,2.69-0.29
				c0.19-0.02,0.38-0.08,0.54-0.18c0.07-0.04,0.14-0.06,0.21-0.06c0.31,0.09,0.59,0.26,0.8,0.5c0.23,0.22,0.31,0.35,0.31,0.48
				c0,0.1-0.02,0.15-0.15,0.27c-0.11,0.17-0.18,0.36-0.22,0.55c-0.08,0.32-0.09,0.39-0.33,1.35c-0.05,0.25-0.1,0.44-0.14,0.59
				c0.33,0.23,0.48,0.44,0.48,0.63c0,0.16-0.1,0.25-0.28,0.25c-0.13-0.01-0.27-0.02-0.4-0.04c-0.25-0.03-0.49-0.04-0.74-0.04
				c-0.96-0.02-1.92,0.14-2.82,0.49c-0.07,0.02-0.14,0.04-0.21,0.04c-0.39,0-0.99-0.75-0.99-1.24c0-0.07,0.01-0.13,0.02-0.2
				c0.18,0.34,0.53,0.56,0.91,0.58c0.1,0,0.28-0.02,0.46-0.03c0.39-0.05,0.39-0.05,1.08-0.13c0.42-0.04,0.97-0.1,1.65-0.17
				c0.18-0.98,0.3-1.98,0.36-2.97c0-0.12-0.05-0.15-0.2-0.15c-0.53,0.03-1.06,0.1-1.58,0.2c-0.4,0.08-0.8,0.18-1.18,0.33
				c-0.1,0.05-0.22,0.08-0.34,0.08c-0.22,0-0.48-0.2-0.71-0.55c-0.14-0.19-0.23-0.42-0.24-0.65c0-0.07,0.02-0.14,0.04-0.2
				C116.26,2.81,116.4,2.96,116.55,3.08z M120.6,1.52c0.02-0.02,0.05-0.03,0.08-0.02l0.19,0.06c0.31,0.1,0.61,0.24,0.9,0.4
				c0.26,0.17,0.34,0.29,0.34,0.47c0,0.27-0.14,0.49-0.3,0.49c-0.1,0-0.14-0.03-0.27-0.28c-0.24-0.37-0.53-0.71-0.85-1.01
				C120.63,1.6,120.59,1.55,120.6,1.52L120.6,1.52z M121.45,0.98c0.38,0.05,0.74,0.16,1.09,0.32c0.29,0.16,0.4,0.28,0.4,0.5
				c0,0.26-0.12,0.48-0.26,0.48c-0.09,0-0.11-0.03-0.25-0.26c-0.26-0.34-0.56-0.64-0.9-0.9C121.46,1.08,121.43,1.02,121.45,0.98
				L121.45,0.98z"/>
			<path id="パス_56_1_" class="st16" d="M134.43,5.84c0.4-0.46,0.4-0.46,0.68-0.77c0.44,0.33,0.57,0.44,0.98,0.79
				c0.03,0.03,0.04,0.06,0.05,0.1c0,0.04-0.04,0.07-0.12,0.07h-3.26c-0.07,0-0.13,0.06-0.13,0.13v0.96l0.01,0.84
				c0,0.09-0.01,0.18-0.02,0.27c-0.03,0.2-0.14,0.39-0.31,0.51c-0.29,0.14-0.61,0.21-0.93,0.22c-0.11,0-0.14-0.03-0.15-0.16
				c-0.02-0.18-0.1-0.34-0.24-0.45c-0.16-0.14-0.29-0.18-1.18-0.39l0,0c0.01-0.06,0.07-0.11,0.13-0.1l0,0c0,0,1.07,0.07,1.57,0.09
				h0.03c0.09,0,0.12-0.03,0.12-0.13V6.16c0-0.07-0.06-0.13-0.13-0.13h-3.16c-0.07,0-0.13-0.04-0.13-0.09s0.06-0.09,0.13-0.09h3.16
				c0.07,0,0.13-0.03,0.13-0.07v-0.2c0,0-0.01-0.42-0.04-0.73c0.44,0.05,0.44,0.05,0.91,0.13c0.3-0.29,0.57-0.6,0.8-0.94h-3.43
				c-0.07,0-0.13-0.04-0.13-0.09s0.06-0.09,0.13-0.09h3.32c0.08-0.01,0.16-0.04,0.23-0.1c0,0,0.17-0.17,0.36-0.37
				c0.35,0.23,0.46,0.31,0.65,0.46c0.11-0.28,0.19-0.57,0.25-0.86h-5.2c-0.07,0-0.13,0.03-0.13,0.06v0.02
				c0,0.32-0.04,0.64-0.13,0.95c-0.08,0.28-0.31,0.48-0.6,0.51c-0.25,0-0.46-0.3-0.46-0.65c-0.01-0.11,0.03-0.22,0.12-0.29
				c0.03-0.03,0.03-0.03,0.22-0.14c0.43-0.25,0.68-0.72,0.65-1.22l0,0c0.07,0.01,0.12,0.06,0.13,0.13c0,0,0.04,0.27,0.05,0.45h3.58
				c0.08,0,0.15-0.05,0.19-0.12c0.28-0.54,0.53-1.1,0.72-1.68c0.61,0.19,1.1,0.35,1.24,0.42c0.08,0.03,0.11,0.08,0.11,0.12
				c0,0.1-0.12,0.14-0.35,0.14h-0.08c-0.43,0.41-0.89,0.78-1.37,1.12h1.07c0.08,0,0.16-0.04,0.23-0.1c0,0,0.21-0.21,0.45-0.42
				c0.39,0.29,0.51,0.38,0.88,0.66c0.09,0.08,0.13,0.13,0.13,0.18c0,0.11-0.15,0.15-0.54,0.15c-0.28,0.21-0.57,0.4-0.87,0.57
				c-0.03,0.02-0.09,0.05-0.16,0.1h0.01c0.06,0.04,0.15,0.12,0.2,0.17c0.02,0.02,0.03,0.05,0.03,0.08c0,0.09-0.1,0.13-0.33,0.13
				h-0.13c-0.49,0.27-1.01,0.49-1.53,0.68c0.08,0.03,0.1,0.06,0.1,0.1c0,0.09-0.08,0.13-0.32,0.21v0.37c0,0.07,0.06,0.13,0.13,0.13
				c0,0,0,0,0,0L134.43,5.84z M129.52,1.1c1.03,0.39,1.42,0.66,1.42,1.02c0,0.32-0.29,0.68-0.55,0.68c-0.14,0-0.21-0.09-0.29-0.35
				c-0.13-0.41-0.31-0.81-0.55-1.17C129.5,1.24,129.49,1.16,129.52,1.1L129.52,1.1z M131.3,0.97c0.94,0.32,1.42,0.66,1.42,1.01
				c0,0.36-0.27,0.67-0.62,0.73c-0.15,0-0.2-0.07-0.29-0.44c-0.11-0.39-0.28-0.77-0.5-1.11C131.27,1.1,131.27,1.02,131.3,0.97
				L131.3,0.97z"/>
			<path id="パス_57_1_" class="st16" d="M142.14,8.62c0.01,0.07-0.02,0.13-0.08,0.17c-0.17,0.06-0.35,0.09-0.54,0.08
				c-0.28,0-0.35-0.03-0.35-0.21c0.03-1.04,0.05-2.42,0.05-4.63c0-1.21-0.01-1.98-0.05-3.11c0.48,0.21,0.63,0.28,1.11,0.54h4.95
				c0.08-0.01,0.16-0.04,0.22-0.1c0,0,0.2-0.22,0.44-0.46c0.33,0.23,0.42,0.31,0.72,0.54c0.07,0.06,0.1,0.1,0.1,0.15
				c0,0.09-0.03,0.11-0.31,0.28V4.1c0,0,0.02,3.57,0.06,4.42c0.01,0.07-0.01,0.15-0.06,0.21c-0.18,0.09-0.38,0.13-0.58,0.11
				c-0.28,0-0.33-0.03-0.34-0.18V8.46c0-0.07-0.06-0.13-0.13-0.13h-5.08c-0.07,0-0.13,0.06-0.13,0.13L142.14,8.62z M142.14,8.02
				c0,0.07,0.06,0.13,0.13,0.13h5.08c0.07,0,0.13-0.06,0.13-0.13V1.78c0-0.07-0.06-0.13-0.13-0.13h-5.08
				c-0.07,0-0.13,0.06-0.13,0.13L142.14,8.02z M145.74,4.25c0.19-0.18,0.25-0.23,0.44-0.4c0.25,0.17,0.33,0.22,0.56,0.4
				c0.07,0.05,0.1,0.1,0.1,0.14c0,0.06-0.06,0.11-0.22,0.17v0.36c0,0.19,0,0.27,0.01,0.47c0.2,0.11,0.39,0.23,0.58,0.37
				c0.09,0.05,0.12,0.1,0.12,0.14s-0.06,0.08-0.13,0.08c-0.06,0-0.12-0.01-0.18-0.03c-0.33,0.14-0.66,0.27-1,0.38
				c0.8,0.35,1.04,0.54,1.04,0.85c0,0.27-0.18,0.53-0.37,0.53c-0.1,0-0.12-0.02-0.29-0.27c-0.25-0.37-0.55-0.71-0.88-1.01
				c-0.11-0.09-0.23-0.18-0.35-0.26v0.49c0,0,0,0.11,0.01,0.31c0.02,0.29,0.02,0.43,0.03,0.74c0,0.18-0.13,0.23-0.55,0.23
				c-0.26,0-0.31-0.03-0.31-0.2c0.03-0.64,0.03-0.69,0.03-0.99V6.52c0-0.07-0.05-0.1-0.1-0.05c-0.32,0.27-0.67,0.51-1.03,0.72
				c-0.32,0.16-0.65,0.3-0.98,0.41l0,0c-0.03-0.04-0.01-0.11,0.05-0.15c0.73-0.59,1.4-1.25,1.98-1.98h-0.4
				c-0.07,0-0.13,0.04-0.13,0.08c0,0.05-0.01,0.11-0.02,0.16l-0.03,0.02c-0.15,0.05-0.32,0.08-0.48,0.07
				c-0.27,0-0.31-0.02-0.31-0.14c0.02-0.43,0.03-0.78,0.03-1.13c0-0.14,0-0.21-0.02-0.67c0.27,0.1,0.53,0.21,0.79,0.34
				c0.08,0.04,0.16,0.06,0.25,0.06H145.74z M145.91,2.62c0.21-0.24,0.27-0.31,0.49-0.54c0.24,0.17,0.47,0.36,0.69,0.56
				c0.03,0.04,0.05,0.07,0.05,0.1s-0.04,0.06-0.11,0.06h-1.75c-0.07,0-0.13,0.06-0.13,0.13v0.48c0,0.07,0.06,0.13,0.13,0.13h0.78
				c0.08,0,0.16-0.04,0.22-0.1c0,0,0.19-0.21,0.41-0.43c0.3,0.24,0.4,0.32,0.67,0.56c0.04,0.04,0.06,0.07,0.06,0.1
				s-0.04,0.06-0.12,0.06h-4.83c-0.07,0-0.13-0.04-0.13-0.09s0.06-0.09,0.13-0.09h1.68c0.07,0,0.13-0.06,0.13-0.13V2.94
				c0-0.07-0.06-0.13-0.13-0.13h-1.3c-0.07,0-0.13-0.04-0.13-0.09s0.06-0.09,0.13-0.09h1.3c0.07,0,0.13-0.02,0.13-0.05
				s0-0.11,0-0.18c-0.01-0.19-0.02-0.37-0.05-0.56c1.05,0.09,1.23,0.12,1.23,0.23c0,0.08-0.07,0.12-0.32,0.18v0.24
				c0,0.07,0.06,0.13,0.13,0.13L145.91,2.62z M143.75,5.15c0,0.07,0.06,0.13,0.13,0.13h1.79c0.07,0,0.13-0.06,0.13-0.13c0,0,0,0,0,0
				V4.56c0-0.07-0.06-0.13-0.13-0.13h-1.79c-0.07,0-0.13,0.06-0.13,0.13L143.75,5.15z M145.15,6.02c0.16,0.06,0.16,0.06,0.58,0.22
				c0.2-0.17,0.39-0.35,0.55-0.55c-0.12,0.01-0.17,0.01-0.24,0.01c-0.19,0-0.23-0.03-0.24-0.11l0,0c-0.01-0.07-0.06-0.12-0.13-0.11
				h-0.37c-0.07,0-0.13,0.06-0.13,0.13L145.15,6.02z"/>
		</g>
		<circle id="楕円形_1_1_" class="st16" cx="142.58" cy="333.33" r="1.47"/>
		<g id="グループ_3159" transform="translate(149.861 324.894)">
			<g id="グループ_3158">
				<path id="パス_1998" class="st16" d="M9.05,5.13c-0.14-0.8-0.44-1.55-0.89-2.22c-0.72-1-1.89-1.58-3.12-1.54
					C4.21,1.35,3.42,1.72,2.89,2.36C2.48,2.88,2.26,3.52,2.27,4.19c-0.04,0.66,0.2,1.3,0.65,1.77c0.72,0.72,1.57,1.28,2.51,1.67
					c1.25,0.48,2.41,1.16,3.45,2.02c0.78,0.76,1.22,1.81,1.19,2.9c0.08,1.12-0.39,2.21-1.25,2.93c-0.98,0.8-2.23,1.21-3.5,1.14
					C4.4,16.54,3.5,16.4,2.61,16.2c-0.26-0.07-0.52-0.12-0.79-0.14c-0.19-0.01-0.39,0.02-0.58,0.07c-0.15,0.05-0.29,0.12-0.42,0.2
					c-0.04,0.03-0.08,0.05-0.13,0.07c-0.06,0.03-0.12,0.03-0.17-0.01c-0.04-0.04-0.07-0.09-0.07-0.15v-4.02
					c0-0.12,0.04-0.22,0.17-0.23c0.11,0,0.2,0.08,0.2,0.19c0,0,0,0,0,0.01c0.06,1.04,0.51,2.01,1.26,2.74
					c0.86,0.81,2,1.23,3.18,1.19c1.13,0.08,2.2-0.53,2.7-1.56c0.2-0.44,0.29-0.93,0.27-1.41c0-1.45-0.87-2.43-3.73-3.82
					C3.41,8.9,2.41,8.29,1.53,7.5C0.85,6.82,0.47,5.9,0.48,4.94C0.46,3.8,0.95,2.71,1.81,1.96C2.68,1.22,3.8,0.84,4.94,0.91
					c0.85,0.01,1.7,0.14,2.51,0.38c0.19,0.04,0.37,0.1,0.56,0.12C8.25,1.45,8.5,1.43,8.72,1.34c0.14-0.06,0.26-0.14,0.39-0.2
					c0.05-0.03,0.11-0.05,0.17-0.05c0.1,0,0.14,0.08,0.14,0.17v3.8c0,0.17-0.06,0.28-0.19,0.28C9.14,5.33,9.07,5.25,9.05,5.13z"/>
			</g>
		</g>
		<g id="グループ_3160" transform="translate(168.799 323.918)">
			<g id="グループ_5-2_1_" transform="translate(41.529 0.096)">
				<g id="グループ_2-2_1_" transform="translate(6.481)">
					<path id="パス_8-2_1_" class="st16" d="M2.23,4.52c0.75-0.14,1.3-0.78,1.31-1.54c0-0.73-2.74-2-2.74-2
						C0.66,0.91,0.51,0.89,0.47,0.94s0,0.19,0.08,0.32c0.46,0.73,0.82,1.51,1.06,2.34C1.81,4.37,1.92,4.52,2.23,4.52z"/>
				</g>
				<g id="グループ_3-2_1_" transform="translate(2.751 0.29)">
					<path id="パス_9-2_1_" class="st16" d="M2.35,4.43c0.56,0,1.16-0.76,1.16-1.43c0-0.74-2.74-2.02-2.74-2.02
						C0.63,0.9,0.49,0.89,0.46,0.93s0.02,0.18,0.11,0.31C1.08,2,1.47,2.83,1.73,3.7C1.9,4.24,2.06,4.43,2.35,4.43z"/>
				</g>
				<g id="グループ_4-2_1_" transform="translate(0 0.102)">
					<path id="パス_10-2_1_" class="st16" d="M15.27,9.58c-0.13-0.09-0.3-0.08-0.41,0.04l-1.06,1.19
						c-0.12,0.13-0.29,0.2-0.47,0.21H10.1c-0.15,0-0.28-0.13-0.28-0.28v-0.49c0.01-0.17,0.11-0.31,0.27-0.38
						c0,0,0.41-0.15,0.41-0.33V9.44c-0.12-0.07-0.1-0.17,0.05-0.23L13.25,8c0.15-0.07,0.31-0.11,0.47-0.12h0.05
						c0.47,0,0.69-0.09,0.69-0.27c0-0.06-0.03-0.12-0.08-0.17c-0.1-0.1-0.21-0.2-0.32-0.29c-0.05-0.04-0.06-0.1-0.02-0.15
						c0.01-0.01,0.02-0.03,0.04-0.03c0.08-0.05,0.32-0.19,0.45-0.27l1.37-0.88c0.15-0.1,0.32-0.17,0.5-0.19c0,0,0.84-0.07,0.84-0.3
						c0-0.07-0.03-0.13-0.07-0.18c-0.13-0.13-0.27-0.25-0.42-0.37l-1.4-1.06c-0.13-0.09-0.31-0.08-0.43,0.02l-0.74,0.7
						c-0.13,0.12-0.3,0.19-0.48,0.2h-1.96c-0.15,0-0.18-0.08-0.05-0.17l2.45-2.01c0.1-0.09,0.22-0.16,0.36-0.19h0.02
						c0.49,0,0.74-0.09,0.74-0.29c0-0.09-0.01-0.09-0.01-0.09c-0.15-0.1-0.32-0.19-0.49-0.26l-2.08-0.7
						c-0.15-0.05-0.31,0.03-0.36,0.18L10.9,4.38c-0.09,0.15-0.24,0.24-0.41,0.25H3.23c-0.16,0-0.29-0.12-0.31-0.28L2.84,3.68
						C2.82,3.52,2.74,3.4,2.68,3.4S2.54,3.52,2.5,3.67c0,0-0.44,1.8-1.31,2.29L0.77,6.19C0.74,6.22,0.64,6.35,0.54,6.47
						c-0.07,0.12-0.1,0.26-0.08,0.4c0,0.74,0.43,1.38,0.96,1.38s1.11-0.84,1.11-0.84c0.1-0.16,0.17-0.33,0.22-0.51
						c0.12-0.57,0.19-1.14,0.21-1.72V5.15c0-0.07,0.13-0.13,0.28-0.13h10.64c0.12-0.01,0.22,0.08,0.22,0.2c0,0.02,0,0.05-0.01,0.07
						l-0.36,1.27c-0.03,0.1-0.13,0.16-0.24,0.14c-0.03-0.01-0.06-0.02-0.08-0.04L12.5,6.01c-0.14-0.09-0.31-0.07-0.43,0.04
						L11.5,6.63c-0.13,0.12-0.3,0.19-0.48,0.2L3.97,6.82c-0.15,0-0.28,0.09-0.28,0.19S3.82,7.2,3.97,7.2l7,0.01
						c0.15,0,0.2,0.1,0.11,0.22l-1.3,1.55C9.66,9.1,9.49,9.16,9.31,9.14L8.03,8.96C7.9,8.94,7.78,9.03,7.76,9.16
						c0,0.01,0,0.03,0,0.04v1.81H0.74c-0.15,0-0.28,0.08-0.28,0.19s0.13,0.19,0.28,0.19l5.74,0.01h0.99c0.15,0,0.28,0.13,0.28,0.28
						l0,0v3.5c0,0.01,0,0.02,0,0.03c0,0-0.02,0.05-0.05,0.11s-0.21,0.11-0.22,0.11l-0.32-0.01l-3.01-0.17
						c-0.15-0.01-0.28,0.04-0.28,0.1S4,15.48,4.15,15.52c0.76,0.17,1.5,0.42,2.21,0.75c0.29,0.23,0.48,0.57,0.51,0.94
						c0.04,0.29,0.09,0.35,0.33,0.35c0.68-0.01,1.35-0.16,1.96-0.45c0.28-0.19,0.5-0.47,0.6-0.8c0.05-0.18,0.07-0.37,0.08-0.55
						v-4.08c0-0.16,0.13-0.28,0.28-0.28h6.59c0.18,0,0.36-0.02,0.54-0.05v-0.13c-0.09-0.13-0.2-0.24-0.33-0.34L15.27,9.58z"/>
				</g>
			</g>
			<g id="グループ_11-2_1_" transform="translate(0 0.021)">
				<g id="グループ_6-2_1_" transform="translate(4.212 9.708)">
					<path id="パス_11-2_1_" class="st16" d="M0.46,0.91L0.46,0.91C0.46,0.91,0.46,0.91,0.46,0.91C0.47,0.91,0.46,0.91,0.46,0.91z
						"/>
				</g>
				<g id="グループ_7-2_1_" transform="translate(4.267 9.81)">
					<path id="パス_12-2_1_" class="st16" d="M7.75,5.41c0.03-0.12,0.04-0.24,0.04-0.36V3.12C7.8,2.87,7.88,2.64,8.01,2.44
						c0,0,0.32-0.22,0.32-0.36c0-0.05-0.02-0.09-0.11-0.16C7.6,1.42,6.96,0.97,6.96,0.97C6.83,0.88,6.65,0.89,6.53,1L5.97,1.53
						c-0.14,0.12-0.3,0.18-0.48,0.19H2.75C2.57,1.72,2.39,1.68,2.22,1.6l-1.5-0.67C0.63,0.88,0.53,0.91,0.48,1
						C0.46,1.03,0.45,1.07,0.46,1.11v4.76c0,0.15,0.07,0.3,0.18,0.4h0.23c0.38,0,0.75-0.02,1.13-0.07l0.2-0.04
						c0.06-0.16,0.09-0.33,0.09-0.5V5.29c0-0.16,0.13-0.28,0.28-0.28c0,0,0,0,0,0h3.08c0.15,0,0.28,0.08,0.28,0.18
						c0.01,0.15,0.05,0.3,0.12,0.44c0.13,0.02,0.27,0.03,0.41,0.02c0.3,0,0.59-0.02,0.88-0.06C7.49,5.56,7.63,5.5,7.75,5.41z
						 M5.94,4.35c0,0.16-0.13,0.28-0.28,0.28H2.57c-0.16,0-0.28-0.13-0.28-0.28l0,0V2.39c0-0.16,0.13-0.28,0.28-0.28h3.08
						c0.16,0,0.28,0.13,0.28,0.28V4.35z"/>
				</g>
				<g id="グループ_8-2_1_" transform="translate(3.151 3.146)">
					<path id="パス_13-2_1_" class="st16" d="M9.14,0.96C9,0.88,8.82,0.9,8.7,1L8.16,1.55C8.04,1.67,7.87,1.74,7.7,1.75H2.89
						C2.7,1.75,2.52,1.71,2.35,1.63l-1.63-0.7C0.64,0.89,0.53,0.92,0.48,1C0.46,1.04,0.45,1.08,0.46,1.11v4.15
						c0,0.16,0.09,0.31,0.23,0.39h0.3c1.22,0,1.27-0.09,1.27-0.09c0.08-0.14,0.13-0.3,0.15-0.46c0.02-0.14,0.14-0.23,0.28-0.22h5.1
						c0.14-0.01,0.27,0.1,0.28,0.24c0.01,0.17,0.05,0.34,0.12,0.5c0,0,0.02,0.05,0.39,0.05c0.35-0.01,0.7-0.04,1.05-0.1
						C9.74,5.57,9.85,5.55,9.96,5.5c0.06-0.13,0.09-0.27,0.08-0.42V3.28c0-0.15,0.11-0.76,0.24-0.84c0,0,0.36-0.23,0.36-0.38V1.99
						c-0.12-0.12-0.26-0.22-0.4-0.32L9.14,0.96z M8.07,4.23c0,0.16-0.13,0.28-0.28,0.28h-5.1c-0.16,0-0.28-0.13-0.28-0.28V2.42
						c0-0.15,0.13-0.28,0.28-0.28h5.1c0.16,0,0.28,0.12,0.28,0.28l0,0V4.23z"/>
				</g>
				<g id="グループ_9-2_1_">
					<path id="パス_14-2_1_" class="st16" d="M16.93,3.27c-0.09-0.1-0.19-0.18-0.29-0.27l-1.75-1.36
						c-0.13-0.09-0.31-0.07-0.41,0.04l-1.01,1.14c-0.12,0.13-0.29,0.2-0.47,0.21H9.69c-0.16,0-0.28-0.13-0.28-0.28V2.18
						c0.01-0.17,0.1-0.32,0.25-0.41c0,0,0.44-0.22,0.44-0.35c0-0.24-0.47-0.36-1.58-0.44C8.24,0.97,7.58,0.91,7.58,0.91
						C7.44,0.9,7.32,0.99,7.3,1.13c0,0,0,0,0,0c0,0.01,0,0.02,0,0.03v1.59c0,0.16-0.13,0.28-0.28,0.28h0H0.74
						c-0.15,0-0.28,0.09-0.28,0.19s0.13,0.19,0.28,0.19h15.75c0.15,0,0.3-0.02,0.45-0.05L16.93,3.27L16.93,3.27z"/>
				</g>
				<g id="グループ_10-2_1_" transform="translate(0.615 7.668)">
					<path id="パス_15-2_1_" class="st16" d="M15.1,5.75V3.15c0.01-0.17,0.1-0.33,0.25-0.42c0,0,0.48-0.27,0.48-0.45V2.24
						c-0.12-0.11-0.24-0.22-0.37-0.31l-1.25-0.9c-0.13-0.09-0.31-0.07-0.43,0.04l-0.63,0.66c-0.13,0.12-0.3,0.2-0.47,0.21H2.95
						C2.77,1.93,2.59,1.88,2.42,1.8L0.71,0.94C0.64,0.89,0.53,0.91,0.48,0.98C0.46,1.02,0.45,1.06,0.46,1.1v8.57
						c0,0.15,0.07,0.29,0.19,0.38h0.21c1.38,0,1.47-0.23,1.47-0.23c0.06-0.17,0.1-0.36,0.1-0.54L2.41,6.3V2.6
						c0-0.16,0.13-0.28,0.28-0.28h0h10.16c0.16,0,0.28,0.13,0.28,0.28l0,0v5.01c0,0.14-0.01,0.28-0.03,0.42
						c-0.02,0.07-0.3,0.17-0.45,0.16l-1.69-0.08c-0.15-0.01-0.28,0.03-0.29,0.09s0.11,0.14,0.26,0.18l0.99,0.41
						c0.13,0.13,0.24,0.28,0.32,0.45l0.1,0.35c0.03,0.15,0.08,0.37,0.11,0.48h0.14c0.62,0,1.24-0.11,1.82-0.35
						c0.25-0.12,0.46-0.32,0.58-0.56c0.07-0.17,0.1-0.35,0.11-0.54L15.1,5.75z"/>
				</g>
			</g>
			<g id="グループ_14-2_1_" transform="translate(20.712)">
				<g id="グループ_12-2_1_" transform="translate(3.424 11.653)">
					<path id="パス_16-2_1_" class="st16" d="M3.03,1.61C2.52,1.4,0.78,0.94,0.78,0.94C0.63,0.9,0.49,0.9,0.46,0.93
						S0.5,1.09,0.61,1.2c0.68,0.73,1.25,1.56,1.7,2.44c0.31,0.69,0.43,0.82,0.73,0.82c0.58,0,1.16-0.76,1.16-1.49
						C4.19,2.36,3.86,1.98,3.03,1.61z"/>
				</g>
				<g id="グループ_13-2_1_" transform="translate(0)">
					<path id="パス_17-2_1_" class="st16" d="M17.27,3.32V3.29c-0.1-0.1-0.2-0.2-0.31-0.28l-1.52-1.19
						c-0.13-0.1-0.3-0.08-0.41,0.04l-0.9,0.99c-0.13,0.12-0.29,0.2-0.47,0.21h-2.53c-0.15,0-0.2-0.1-0.1-0.22l0.46-0.62
						c0.11-0.14,0.26-0.25,0.43-0.3c0,0,0.54-0.13,0.54-0.31c-0.76-0.31-1.55-0.52-2.36-0.64c-0.15-0.03-0.3,0.07-0.33,0.22
						l-0.52,1.8C9.2,3.13,9.16,3.24,9.14,3.22S9.03,3.11,8.92,3.01L7.68,1.92c-0.12-0.1-0.3-0.08-0.4,0.04L6.52,2.84
						c-0.12,0.13-0.29,0.2-0.46,0.21H4.38c-0.15,0-0.21-0.11-0.12-0.23l0.42-0.69c0.1-0.15,0.25-0.25,0.42-0.29
						c0,0,0.52-0.1,0.52-0.28C4.85,1.25,4.05,1.03,3.23,0.91c-0.15-0.03-0.3,0.07-0.34,0.22C2.73,1.77,2.52,2.39,2.26,3
						c-0.5,1.05-1.08,2.06-1.71,3.03c-0.08,0.13-0.12,0.27-0.07,0.3s0.18-0.01,0.31-0.11l2.83-2.58c0.13-0.12,0.29-0.2,0.47-0.21
						H4.1c0.17,0.01,0.32,0.11,0.4,0.25c0.28,0.64,0.48,1.31,0.59,2c0.07,0.42,0.18,0.56,0.44,0.56c0.64-0.08,1.14-0.59,1.2-1.23
						c0-0.47-1.75-1.44-1.75-1.44C4.84,3.5,4.86,3.44,5.01,3.44h3.79C8.9,3.43,8.99,3.49,9,3.59C9,3.63,9,3.67,8.98,3.7L8.44,4.81
						C8.35,4.95,8.19,5.03,8.03,5.03l-0.1-0.01C7.79,5,7.67,5.1,7.65,5.23c0,0,0,0,0,0c0,0.01,0,0.02,0,0.04v1.14
						c0,0.15-0.13,0.28-0.28,0.28H2.92c-0.15,0-0.28,0.08-0.28,0.19s0.13,0.19,0.28,0.19h4.44c0.16,0,0.28,0.13,0.28,0.28l0,0v1.69
						c0,0.15-0.13,0.28-0.28,0.28H1.12c-0.15,0-0.28,0.08-0.28,0.19S0.96,9.7,1.12,9.7l9.58,0.01c0.15,0,0.28,0.13,0.28,0.28v1.43
						c0,0.15-0.13,0.28-0.28,0.28H1.36c-0.15,0-0.28,0.09-0.28,0.19s0.13,0.19,0.28,0.19h9.34c0.15,0,0.28,0.13,0.28,0.28v2.79
						c0,0.14-0.01,0.28-0.04,0.42c-0.02,0.07-0.44,0.13-0.59,0.12l-2.29-0.11c-0.15-0.01-0.28,0.03-0.29,0.1s0.11,0.15,0.26,0.2
						c0.58,0.15,1.14,0.37,1.67,0.63c0.27,0.23,0.43,0.57,0.44,0.93c0.02,0.25,0.07,0.33,0.26,0.33c0.65-0.02,1.29-0.18,1.89-0.45
						c0.22-0.14,0.41-0.34,0.53-0.57c0.07-0.17,0.11-0.35,0.12-0.54v-3.9c0.02-0.14,0.14-0.25,0.28-0.24h3.27
						c0.17,0,0.33-0.01,0.5-0.04v-0.11c-0.09-0.11-0.19-0.22-0.3-0.32l-1.39-1.16c-0.12-0.09-0.3-0.07-0.4,0.04l-0.82,0.98
						c-0.12,0.13-0.28,0.21-0.46,0.22h-0.4c-0.09,0.01-0.19,0-0.28-0.02v-1.7c0-0.16,0.13-0.28,0.28-0.28h3.43
						c0.17,0,0.35-0.01,0.52-0.04V9.53c-0.1-0.11-0.21-0.21-0.32-0.31l-1.51-1.21c-0.13-0.09-0.3-0.08-0.41,0.04L13.99,9.1
						c-0.12,0.13-0.29,0.2-0.46,0.21H9.88c-0.15,0-0.28-0.13-0.28-0.28V7.35c0-0.15,0.12-0.28,0.28-0.28c0,0,0,0,0,0h5.39
						c0.16,0,0.32-0.01,0.48-0.04V6.92c-0.1-0.11-0.21-0.21-0.33-0.3l-1.35-1.04c-0.13-0.09-0.31-0.07-0.42,0.04l-0.8,0.86
						c-0.13,0.12-0.3,0.2-0.47,0.21h-2.5c-0.15,0-0.28-0.13-0.28-0.28c0,0,0,0,0,0V6.14c0.01-0.17,0.11-0.31,0.27-0.37
						c0,0,0.42-0.14,0.42-0.31c0-0.2-1.34-0.35-1.34-0.35C8.8,5.09,8.77,5,8.89,4.91l1.43-1.26c0.13-0.12,0.3-0.19,0.48-0.2h0.11
						c0.17,0.01,0.32,0.11,0.4,0.26c0.24,0.54,0.41,1.11,0.52,1.69c0.09,0.53,0.22,0.73,0.51,0.73c0.62-0.08,1.1-0.56,1.18-1.18
						c0-0.49-1.73-1.36-1.73-1.36c-0.14-0.07-0.12-0.13,0.03-0.13h4.99c0.16,0,0.31-0.01,0.46-0.04L17.27,3.32z"/>
				</g>
			</g>
			<g id="グループ_15-2_1_" transform="translate(62.041 0.152)">
				<path id="パス_18-2_1_" class="st16" d="M17.38,4.39c0.16,0,0.31-0.01,0.46-0.04V4.24c-0.1-0.11-0.21-0.22-0.32-0.32
					L16.09,2.7c-0.12-0.1-0.29-0.08-0.39,0.04l0,0l-0.84,1.05C14.73,3.91,14.57,3.99,14.39,4H13.1c-0.15,0-0.28-0.13-0.28-0.28V2.21
					c0.01-0.17,0.11-0.32,0.26-0.39c0,0,0.47-0.2,0.47-0.36c0-0.24-2.53-0.46-2.53-0.46c-0.12-0.02-0.23,0.07-0.25,0.19c0,0,0,0,0,0
					c0,0.02,0,0.04,0,0.07l0.09,1.27c0.01,0.15,0.01,0.41,0.01,0.56v0.64c0,0.15-0.13,0.28-0.28,0.28H7.67
					C7.51,4,7.39,4.09,7.39,4.19s0.13,0.19,0.28,0.19L17.38,4.39z"/>
				<path id="パス_19-2_1_" class="st16" d="M8.21,6.98C7.64,7.95,6.98,8.87,6.25,9.72C6.15,9.84,6.1,9.97,6.13,10
					s0.17,0,0.3-0.08l4.09-3.36c0.09-0.11,0.22-0.18,0.36-0.2h0.04c0.36,0,0.62-0.11,0.62-0.25c-0.68-0.42-1.41-0.76-2.17-1.01
					C9.22,5.03,9.06,5.1,9.01,5.25l0,0C8.79,5.84,8.52,6.42,8.21,6.98z"/>
				<path id="パス_20-2_1_" class="st16" d="M13.2,5.2c-0.15-0.04-0.29-0.04-0.31,0s0.06,0.17,0.17,0.27
					c1,0.92,1.9,1.94,2.68,3.06c0.33,0.58,0.49,0.73,0.74,0.73c0.43,0,0.82-0.69,0.82-1.45c0-0.62-0.22-0.95-0.98-1.42
					C15.31,5.91,14.27,5.51,13.2,5.2z"/>
				<path id="パス_21-2_1_" class="st16" d="M6.11,8.96c0.4,0,0.87-0.67,0.87-1.23c0-0.33-0.49-0.71-0.49-0.71
					C6.34,6.9,6.19,6.79,6.03,6.7L5.26,6.3C5.11,6.22,5.01,6.07,5,5.9V5.54c0-0.15,0.13-0.28,0.28-0.28h2.05
					c0.15,0,0.3-0.01,0.44-0.04V5.11C7.72,5.05,7.6,4.91,7.49,4.8L6.47,3.78c-0.1-0.1-0.25-0.1-0.35,0C6.12,3.79,6.11,3.8,6.1,3.81
					L5.49,4.65C5.42,4.76,5.3,4.85,5.16,4.88C5.07,4.88,5,4.75,5,4.59l0.02-2.5C5.02,1.93,5.12,1.78,5.27,1.7
					c0,0,0.43-0.18,0.43-0.31c0-0.23-2.32-0.49-2.32-0.49C3.26,0.89,3.13,0.98,3.11,1.12c0,0.01,0,0.03,0,0.04V4.6
					c0,0.15,0,0.28,0,0.28H0.99c-0.15,0-0.28,0.09-0.28,0.19s0.13,0.19,0.28,0.19H2.7c0.12-0.01,0.23,0.09,0.23,0.21c0,0,0,0,0,0
					c0,0.02,0,0.04-0.01,0.06c0,0-0.42,2.21-0.84,3.64c-0.44,1.36-0.97,2.7-1.58,3.99c-0.07,0.14-0.08,0.28-0.02,0.32
					s0.18-0.03,0.28-0.15l2.33-3.6C3.16,9.6,3.22,9.61,3.22,9.77v7.54c0,0.15,0.04,0.29,0.09,0.3c0.09,0.01,0.17,0.02,0.26,0.02h0.2
					c0.31,0.01,0.62-0.03,0.92-0.12c0.14-0.05,0.27-0.11,0.27-0.11c0.02-0.1,0.02-0.2,0.02-0.31V6.77c0-0.15,0.07-0.17,0.14-0.04
					c0.29,0.51,0.5,1.07,0.6,1.64C5.76,8.8,5.89,8.96,6.11,8.96z"/>
				<path id="パス_22-2_1_" class="st16" d="M15.03,14.13c-0.73-0.28-1.42-0.66-2.05-1.13c0.8-1.04,1.46-2.17,1.96-3.38
					c0.62-0.02,0.82-0.07,0.82-0.24c0-0.21-0.25-0.35-2.19-1.2c-0.04-0.02-0.08-0.04-0.13-0.06c-0.13-0.06-0.21,0.05-0.27,0.27
					c-0.1,0.44-0.23,0.88-0.39,1.3c-0.32,0.79-0.71,1.55-1.16,2.27c-0.72-0.92-1.31-1.92-1.77-2.99C9.55,8.3,9.44,8.42,9.43,8.39
					L9.04,8.56C8.98,8.61,9,8.76,9.14,9.07c0.55,1.31,1.17,2.58,1.87,3.81c-1.47,1.93-3.42,3.46-5.64,4.43l0.09,0.2
					c1.27-0.23,2.49-0.64,3.65-1.22c1.07-0.53,2.04-1.24,2.88-2.09c1,1.09,2.17,2.01,3.47,2.72c0.27,0.18,0.57,0.31,0.89,0.38
					c0.11,0,0.18-0.07,0.22-0.27c0.05-0.23,0.13-0.46,0.24-0.67c0.25-0.52,0.67-0.94,1.19-1.2v-0.18
					C16.97,14.83,15.98,14.54,15.03,14.13z"/>
			</g>
		</g>
	</g>
</g>
</svg>
