<?xml version="1.0" encoding="utf-8"?>
<!-- Generator: Adobe Illustrator 24.1.0, SVG Export Plug-In . SVG Version: 6.00 Build 0)  -->
<svg version="1.1" id="レイヤー_1" xmlns="http://www.w3.org/2000/svg" xmlns:xlink="http://www.w3.org/1999/xlink" x="0px"
	 y="0px" viewBox="0 0 362 64" style="enable-background:new 0 0 362 64;" xml:space="preserve">
<style type="text/css">
	.st0{fill:#0099D9;}
	.st1{fill:#FFE100;}
	.st2{fill:#FA422B;}
	.st3{fill:#55417D;}
	.st4{fill:#FFAE21;}
	.st5{fill:#20C960;}
	.st6{fill:#5DD9CB;}
	.st7{fill:#188EBD;}
	.st8{fill:none;stroke:#000000;stroke-width:2;stroke-linecap:round;stroke-linejoin:round;stroke-miterlimit:10;}
	.st9{fill:none;}
	.st10{fill:#1877F2;}
	.st11{fill:#FFFFFF;}
	.st12{fill:none;stroke:#000000;stroke-width:2;stroke-linecap:round;stroke-linejoin:round;}
	.st13{fill:none;stroke:#231815;stroke-width:2;stroke-linecap:round;stroke-linejoin:round;}
	.st14{fill:#1F286F;}
	.st15{fill:none;stroke:#000000;stroke-width:2.2;stroke-linecap:round;stroke-linejoin:round;stroke-miterlimit:10;}
	.st16{fill:#000066;}
	.st17{enable-background:new    ;}
	.st18{fill:#1DA1F2;}
	.st19{fill:#FF0000;}
</style>
<g id="グループ_1_2_" transform="translate(957.972 194.292)">
	<path id="パス_1_2_" class="st16" d="M-948.84-176.24l-8.45,6.12l3.2,9.93L-948.84-176.24"/>
	<path id="パス_2_2_" class="st16" d="M-946.76-177.87l-5.25,16.05l3.2,9.93L-946.76-177.87"/>
	<path id="パス_3_2_" class="st16" d="M-945.32-174.02l8.39,26l-10.44-0.02L-945.32-174.02"/>
	<path id="パス_4_2_" class="st16" d="M-945.5-178.91l18.82,26.03l-10.44-0.02L-945.5-178.91"/>
	<path id="パス_5_2_" class="st16" d="M-950-186.92l8.46-6.12l10.37,32.14L-950-186.92"/>
	<path id="パス_6_2_" class="st16" d="M-938.49-188.79l8.43,6.15l1.94,25.99L-938.49-188.79"/>
	<path id="パス_7_2_" class="st16" d="M-928.73-180.82l8.43,6.15l-6.49,19.84L-928.73-180.82"/>
</g>
<g id="グループ_16_2_" transform="translate(1006.55 215.094)">
	<g id="グループ_5_4_" transform="translate(93.36 0.149)">
		<g id="グループ_2_4_" transform="translate(9.775)">
			<path id="パス_8_4_" class="st16" d="M-957.39-188.77c1.11-0.2,1.92-1.15,1.94-2.28c0-1.08-4.05-2.98-4.05-2.98
				c-0.21-0.1-0.42-0.12-0.48-0.06c-0.06,0.06-0.01,0.28,0.12,0.47c0.68,1.08,1.21,2.25,1.56,3.47
				C-958.01-188.98-957.85-188.77-957.39-188.77z"/>
		</g>
		<g id="グループ_3_4_" transform="translate(4.147 0.438)">
			<path id="パス_9_4_" class="st16" d="M-957.11-188.92c0.83,0,1.72-1.13,1.72-2.12c0-1.1-4.05-3.01-4.05-3.01
				c-0.21-0.1-0.41-0.12-0.46-0.06c-0.04,0.07,0.03,0.27,0.16,0.46c0.74,1.13,1.32,2.35,1.71,3.64
				C-957.79-189.19-957.55-188.92-957.11-188.92z"/>
		</g>
		<g id="グループ_4_4_" transform="translate(0 0.162)">
			<path id="パス_10_4_" class="st16" d="M-937.92-181.26c-0.19-0.14-0.45-0.12-0.61,0.05l-1.58,1.76
				c-0.19,0.18-0.43,0.3-0.69,0.31l-4.78-0.01c-0.23,0-0.41-0.19-0.42-0.42l0-0.73c0.01-0.25,0.17-0.46,0.39-0.56
				c0,0,0.61-0.23,0.61-0.5l0-0.13c-0.18-0.1-0.15-0.26,0.07-0.34l4.03-1.78c0.22-0.1,0.45-0.17,0.69-0.18l0.08,0
				c0.7,0,1.02-0.13,1.02-0.4c-0.01-0.09-0.05-0.18-0.11-0.24c-0.15-0.15-0.3-0.29-0.47-0.43c-0.07-0.05-0.08-0.15-0.03-0.22
				c0.02-0.02,0.04-0.04,0.06-0.05c0.11-0.07,0.47-0.29,0.66-0.41l2.03-1.3c0.22-0.15,0.48-0.25,0.75-0.28c0,0,1.25-0.1,1.25-0.45
				c0-0.1-0.04-0.2-0.11-0.27c-0.2-0.19-0.4-0.38-0.62-0.55l-2.08-1.58c-0.2-0.14-0.46-0.12-0.64,0.03l-1.1,1.04
				c-0.2,0.18-0.45,0.28-0.71,0.29l-2.9-0.01c-0.23,0-0.27-0.11-0.08-0.25l3.64-2.96c0.15-0.14,0.33-0.23,0.53-0.27l0.03,0
				c0.73,0,1.1-0.13,1.1-0.43c0-0.13-0.01-0.14-0.01-0.14c-0.23-0.15-0.47-0.28-0.73-0.38l-3.08-1.05
				c-0.22-0.07-0.46,0.05-0.53,0.26l-2.13,4.85c-0.13,0.22-0.36,0.35-0.61,0.37l-10.75-0.02c-0.23-0.01-0.43-0.18-0.45-0.42l-0.11-1
				c-0.03-0.23-0.14-0.41-0.24-0.41c-0.09,0-0.22,0.18-0.27,0.4c0,0-0.66,2.66-1.95,3.38l-0.62,0.35c-0.04,0.05-0.2,0.23-0.34,0.41
				c-0.1,0.18-0.14,0.38-0.12,0.59c0,1.1,0.64,2.04,1.42,2.05s1.64-1.24,1.64-1.24c0.15-0.23,0.26-0.48,0.33-0.75
				c0.18-0.84,0.29-1.69,0.32-2.55l0-0.05c0-0.1,0.19-0.19,0.42-0.19l15.77,0.03c0.17-0.01,0.32,0.12,0.33,0.3
				c0,0.04,0,0.07-0.01,0.11l-0.55,1.89c-0.04,0.15-0.2,0.25-0.35,0.21c-0.04-0.01-0.09-0.03-0.12-0.06l-1.37-0.97
				c-0.2-0.13-0.46-0.1-0.64,0.06l-0.84,0.86c-0.19,0.18-0.44,0.28-0.71,0.29l-10.45-0.04c-0.23,0-0.42,0.13-0.42,0.28
				s0.19,0.29,0.42,0.29l10.37,0.03c0.23,0,0.3,0.15,0.17,0.33l-1.93,2.3c-0.19,0.17-0.44,0.26-0.7,0.23l-1.89-0.27
				c-0.2-0.03-0.38,0.11-0.41,0.3c0,0.02,0,0.04,0,0.06l-0.01,2.68c0,0-0.19,0-0.42,0l-9.97-0.02c-0.23,0-0.42,0.12-0.42,0.27
				c0,0.15,0.19,0.28,0.42,0.28l8.51,0.03l1.47,0c0.23,0,0.42,0.19,0.42,0.42c0,0,0,0,0,0l-0.01,5.19c0,0.01,0,0.03,0,0.04
				c0,0-0.03,0.07-0.07,0.16s-0.31,0.16-0.33,0.16s-0.24-0.01-0.47-0.02l-4.46-0.26c-0.23-0.02-0.42,0.05-0.42,0.15
				c0,0.1,0.18,0.22,0.4,0.27c1.13,0.25,2.23,0.63,3.27,1.12c0.43,0.34,0.7,0.85,0.75,1.4c0.05,0.43,0.13,0.51,0.48,0.51
				c1-0.01,1.99-0.24,2.9-0.66c0.42-0.29,0.73-0.7,0.89-1.19c0.07-0.27,0.11-0.54,0.11-0.82l0.01-6.05c0-0.23,0.19-0.42,0.42-0.42
				c0,0,0,0,0,0l9.76,0.02c0.27,0,0.53-0.03,0.79-0.08l0-0.19c-0.14-0.19-0.3-0.36-0.48-0.51L-937.92-181.26z"/>
		</g>
	</g>
	<g id="グループ_11_4_" transform="translate(30.713 0.03)">
		<g id="グループ_6_4_" transform="translate(6.353 14.65)">
			<path id="パス_11_4_" class="st16" d="M-958.85-194.52L-958.85-194.52C-958.86-194.52-958.85-194.52-958.85-194.52
				C-958.84-194.51-958.84-194.52-958.85-194.52z"/>
		</g>
		<g id="グループ_7_4_" transform="translate(6.436 14.805)">
			<path id="パス_12_4_" class="st16" d="M-948.07-187.83c0.05-0.18,0.07-0.36,0.06-0.54l0.01-2.87c0.02-0.36,0.14-0.71,0.34-1
				c0,0,0.47-0.33,0.47-0.54c0-0.08-0.03-0.13-0.16-0.24c-0.91-0.73-1.86-1.4-1.86-1.4c-0.2-0.13-0.46-0.11-0.64,0.05l-0.83,0.79
				c-0.2,0.17-0.45,0.27-0.72,0.29l-4.06-0.01c-0.27-0.01-0.54-0.07-0.79-0.19l-2.22-1c-0.12-0.07-0.28-0.03-0.35,0.1
				c-0.03,0.05-0.04,0.1-0.03,0.16l-0.02,7.05c0,0.23,0.1,0.44,0.27,0.59l0.35,0c0.56,0.01,1.12-0.03,1.67-0.1l0.29-0.05
				c0.09-0.24,0.13-0.49,0.14-0.74l0-0.54c0-0.23,0.19-0.42,0.42-0.42l4.57,0.01c0.23,0,0.42,0.12,0.42,0.27
				c0.02,0.22,0.08,0.44,0.17,0.65c0.2,0.04,0.4,0.05,0.6,0.03c0.44,0,0.88-0.03,1.31-0.09
				C-948.45-187.61-948.25-187.7-948.07-187.83z M-950.75-189.4c0,0.23-0.19,0.42-0.42,0.42l-4.57-0.01c-0.23,0-0.42-0.19-0.42-0.42
				l0.01-2.9c0-0.23,0.19-0.42,0.42-0.42l4.57,0.01c0.23,0,0.42,0.19,0.42,0.42L-950.75-189.4z"/>
		</g>
		<g id="グループ_8_4_" transform="translate(4.756 4.75)">
			<path id="パス_13_4_" class="st16" d="M-945.94-194.25c-0.21-0.12-0.47-0.09-0.66,0.07l-0.79,0.8
				c-0.19,0.18-0.43,0.29-0.7,0.31l-7.12-0.02c-0.27-0.01-0.54-0.07-0.79-0.18l-2.41-1.04c-0.13-0.07-0.29-0.03-0.36,0.1
				c-0.03,0.05-0.04,0.11-0.03,0.16l-0.01,6.15c0.01,0.24,0.14,0.46,0.34,0.58l0.44,0c1.8,0,1.88-0.12,1.88-0.12
				c0.12-0.21,0.2-0.44,0.22-0.68c0.03-0.2,0.21-0.34,0.42-0.32l7.55,0.02c0.22-0.01,0.4,0.15,0.42,0.36
				c0.01,0.25,0.07,0.51,0.18,0.74c0,0,0.04,0.08,0.58,0.08c0.52-0.01,1.04-0.06,1.55-0.14c0.17-0.02,0.34-0.06,0.5-0.12
				c0.09-0.19,0.13-0.4,0.13-0.62l0.01-2.69c0-0.22,0.16-1.12,0.35-1.24c0,0,0.54-0.34,0.54-0.55l0-0.11
				c-0.18-0.17-0.38-0.33-0.59-0.48L-945.94-194.25z M-947.55-189.4c0,0.23-0.19,0.42-0.42,0.42l-7.55-0.02
				c-0.23,0-0.42-0.19-0.42-0.42l0.01-2.69c0-0.23,0.19-0.42,0.42-0.41l7.55,0.02c0.23,0,0.42,0.19,0.42,0.42L-947.55-189.4z"/>
		</g>
		<g id="グループ_9_4_">
			<path id="パス_14_4_" class="st16" d="M-934.31-190.72c-0.13-0.14-0.28-0.27-0.43-0.39l-2.59-2.02
				c-0.19-0.14-0.45-0.11-0.61,0.06l-1.49,1.68c-0.18,0.19-0.43,0.3-0.69,0.31l-4.92-0.01c-0.23,0-0.42-0.19-0.42-0.42l0-0.86
				c0.01-0.25,0.15-0.48,0.37-0.6c0,0,0.65-0.32,0.65-0.51c0-0.35-0.7-0.54-2.34-0.65c-0.41-0.02-1.39-0.11-1.39-0.11
				c-0.21-0.02-0.39,0.12-0.41,0.33c0,0.02,0,0.03,0,0.05l-0.01,2.36c0,0.23-0.19,0.42-0.42,0.42l-6.92-0.02c0,0-0.19,0-0.42,0
				l-1.97,0c-0.23,0-0.42,0.13-0.42,0.28c0,0.16,0.19,0.28,0.42,0.28l3.01,0.01c0.23,0,0.42,0,0.42,0s0.19,0,0.42,0l19.49,0.04
				c0.22,0,0.44-0.02,0.66-0.08L-934.31-190.72L-934.31-190.72z"/>
		</g>
		<g id="グループ_10_4_" transform="translate(0.936 11.572)">
			<path id="パス_15_4_" class="st16" d="M-937.08-187.26l0.01-3.84c0.01-0.25,0.15-0.48,0.37-0.62c0,0,0.71-0.39,0.71-0.66
				l0-0.08c-0.17-0.17-0.36-0.32-0.55-0.47l-1.85-1.34c-0.2-0.13-0.46-0.1-0.63,0.06l-0.93,0.98c-0.19,0.18-0.44,0.29-0.7,0.3
				l-14.41-0.03c-0.27-0.01-0.54-0.08-0.79-0.2l-2.53-1.28c-0.11-0.08-0.26-0.05-0.34,0.06c-0.03,0.05-0.05,0.11-0.04,0.17
				l-0.03,12.69c0,0.22,0.1,0.43,0.28,0.57l0.31,0c2.04,0,2.18-0.33,2.18-0.33c0.09-0.26,0.15-0.53,0.15-0.8l-0.01-4.41
				c0-0.23,0-0.6,0-0.83l0.01-4.65c0-0.23,0.19-0.41,0.42-0.41l15.05,0.03c0.23,0,0.42,0.19,0.42,0.42l-0.02,7.42
				c0,0.21-0.01,0.41-0.04,0.62c-0.02,0.11-0.44,0.25-0.67,0.24l-2.5-0.12c-0.23-0.02-0.42,0.04-0.43,0.13
				c-0.01,0.09,0.17,0.21,0.39,0.27l1.46,0.61c0.2,0.19,0.35,0.41,0.47,0.66l0.14,0.52c0.04,0.22,0.11,0.54,0.16,0.71l0.21,0
				c0.92,0.01,1.84-0.16,2.69-0.51c0.37-0.17,0.68-0.47,0.86-0.83c0.1-0.26,0.15-0.53,0.16-0.8L-937.08-187.26z"/>
		</g>
	</g>
	<g id="グループ_14_4_" transform="translate(61.953)">
		<g id="グループ_12_4_" transform="translate(5.168 17.583)">
			<path id="パス_16_4_" class="st16" d="M-955.59-193.46c-0.75-0.32-3.33-1-3.33-1c-0.22-0.06-0.43-0.06-0.47-0.01
				c-0.04,0.05,0.06,0.23,0.21,0.4c1,1.09,1.84,2.31,2.5,3.63c0.45,1.02,0.64,1.21,1.07,1.21c0.86,0,1.72-1.13,1.73-2.2
				C-953.88-192.35-954.36-192.92-955.59-193.46z"/>
		</g>
		<g id="グループ_13_4_">
			<path id="パス_17_4_" class="st16" d="M-934.37-190.57l0-0.05c-0.14-0.15-0.3-0.29-0.46-0.42l-2.24-1.77
				c-0.19-0.14-0.45-0.12-0.6,0.06l-1.33,1.47c-0.19,0.18-0.44,0.29-0.7,0.31l-3.76-0.01c-0.23,0-0.29-0.15-0.15-0.32l0.69-0.92
				c0.16-0.21,0.38-0.37,0.64-0.44c0,0,0.81-0.19,0.81-0.46c0-0.29-3.49-0.95-3.49-0.95c-0.23-0.04-0.44,0.11-0.49,0.33l-0.78,2.67
				c-0.08,0.21-0.15,0.37-0.17,0.35c-0.02-0.02-0.16-0.17-0.33-0.33l-1.84-1.61c-0.18-0.14-0.44-0.12-0.59,0.06l-1.13,1.3
				c-0.18,0.19-0.43,0.3-0.69,0.31l-2.47-0.01c-0.23,0-0.31-0.16-0.18-0.34l0.63-1.02c0.15-0.22,0.37-0.37,0.62-0.43
				c0,0,0.77-0.14,0.77-0.41c0-0.29-3.54-0.98-3.54-0.98c-0.23-0.04-0.45,0.1-0.51,0.32c-0.24,0.94-0.55,1.87-0.93,2.76
				c-0.75,1.55-1.6,3.05-2.55,4.48c-0.13,0.2-0.17,0.39-0.11,0.44c0.07,0.05,0.27-0.02,0.45-0.16l4.21-3.81
				c0.19-0.18,0.44-0.29,0.7-0.31l0.03,0c0.25,0.01,0.48,0.16,0.59,0.38c0.41,0.95,0.7,1.94,0.86,2.96
				c0.11,0.62,0.27,0.83,0.64,0.83c0.95-0.12,1.69-0.87,1.78-1.82c0-0.7-2.59-2.14-2.59-2.14c-0.2-0.11-0.18-0.2,0.05-0.2l5.62,0.01
				c0.14-0.02,0.27,0.08,0.29,0.22c0.01,0.06-0.01,0.11-0.03,0.16l-0.8,1.64c-0.13,0.21-0.36,0.34-0.61,0.32l-0.15-0.01
				c-0.2-0.02-0.39,0.12-0.41,0.32c0,0.02,0,0.03,0,0.05l0,1.69c0,0.23-0.19,0.42-0.42,0.42l-6.59-0.01c-0.23,0-0.42,0.12-0.42,0.28
				s0.19,0.28,0.42,0.28l6.58,0.01c0.23,0,0.42,0.19,0.42,0.42l-0.01,2.5c0,0.23-0.19,0.42-0.42,0.42l-9.24-0.02
				c-0.23,0-0.42,0.12-0.42,0.28c0,0.15,0.19,0.28,0.42,0.28l14.19,0.05c0.23,0,0.42,0.19,0.42,0.42l0,2.12
				c0,0.23-0.19,0.42-0.42,0.42l-13.84-0.03c-0.23,0-0.42,0.13-0.42,0.28c0,0.16,0.19,0.29,0.41,0.29l13.84,0.03
				c0.23,0,0.42,0.19,0.42,0.42l-0.01,4.14c0,0.21-0.02,0.41-0.05,0.62c-0.03,0.11-0.65,0.19-0.87,0.18l-3.39-0.17
				c-0.23-0.02-0.42,0.05-0.43,0.14c-0.01,0.1,0.17,0.23,0.39,0.3c0.85,0.23,1.68,0.55,2.47,0.94c0.4,0.35,0.63,0.85,0.64,1.38
				c0.03,0.38,0.11,0.48,0.38,0.48c0.97-0.03,1.92-0.26,2.8-0.67c0.33-0.21,0.6-0.5,0.79-0.84c0.11-0.25,0.17-0.52,0.18-0.79
				l0.01-5.78c0.02-0.21,0.21-0.36,0.42-0.35l4.84,0.01c0.25,0,0.49-0.02,0.74-0.05l0-0.16c-0.13-0.17-0.28-0.33-0.44-0.47
				l-2.05-1.73c-0.18-0.14-0.45-0.12-0.6,0.06l-1.22,1.45c-0.17,0.19-0.42,0.31-0.68,0.32l-0.59,0c-0.14,0.01-0.28,0-0.42-0.03
				l0.01-2.51c0-0.23,0.19-0.42,0.42-0.42l5.08,0.01c0.26,0,0.51-0.02,0.77-0.05l0-0.19c-0.15-0.16-0.31-0.32-0.47-0.46l-2.23-1.79
				c-0.19-0.14-0.45-0.12-0.61,0.05l-1.39,1.55c-0.18,0.19-0.43,0.3-0.69,0.31l-5.4-0.01c-0.23,0-0.41-0.19-0.41-0.42l0.01-2.5
				c0-0.23,0.19-0.42,0.42-0.42l7.98,0.02c0.24,0,0.48-0.02,0.71-0.05l0-0.16c-0.15-0.16-0.31-0.31-0.48-0.45l-2-1.54
				c-0.19-0.13-0.46-0.11-0.62,0.06l-1.18,1.27c-0.19,0.18-0.44,0.29-0.7,0.3l-3.71-0.01c-0.23,0-0.41-0.19-0.41-0.42l0-0.4
				c0.01-0.25,0.17-0.46,0.39-0.55c0,0,0.63-0.21,0.63-0.45c0-0.29-1.98-0.52-1.98-0.52c-0.23-0.03-0.26-0.16-0.08-0.3l2.12-1.86
				c0.2-0.18,0.45-0.28,0.71-0.29l0.16,0c0.25,0.01,0.47,0.16,0.59,0.38c0.35,0.8,0.6,1.64,0.76,2.5c0.13,0.78,0.32,1.08,0.75,1.08
				c0.91-0.12,1.63-0.83,1.75-1.74c0-0.73-2.55-2.02-2.55-2.02c-0.21-0.1-0.18-0.19,0.05-0.19l7.39,0.02c0.23,0,0.46-0.02,0.69-0.05
				L-934.37-190.57z"/>
		</g>
	</g>
	<g id="グループ_15_4_" transform="translate(124.303 0.23)">
		<path id="パス_18_4_" class="st16" d="M-935.33-188.86c0.23,0,0.46-0.02,0.69-0.05l0-0.16c-0.15-0.16-0.3-0.32-0.47-0.47
			l-2.13-1.83c-0.18-0.14-0.43-0.12-0.58,0.06c0,0,0,0,0,0l-1.25,1.55c-0.18,0.19-0.42,0.31-0.68,0.32l-1.91,0
			c-0.23,0-0.41-0.19-0.42-0.42l0-2.23c0.01-0.25,0.16-0.47,0.39-0.58c0,0,0.69-0.29,0.69-0.53c0-0.35-3.75-0.7-3.75-0.7
			c-0.18-0.03-0.34,0.1-0.37,0.28c0,0.03,0,0.07,0,0.1l0.12,1.88c0.01,0.23,0.01,0.6,0.01,0.83l0,0.94c0,0.23-0.19,0.41-0.42,0.41
			l-4.32-0.01c-0.23,0-0.42,0.12-0.42,0.28c0,0.15,0.19,0.28,0.42,0.28L-935.33-188.86z"/>
		<path id="パス_19_4_" class="st16" d="M-948.93-185.05c-0.86,1.43-1.83,2.79-2.91,4.06c-0.15,0.17-0.23,0.36-0.18,0.41
			c0.05,0.05,0.25,0,0.45-0.13l6.07-4.97c0.14-0.16,0.32-0.26,0.53-0.3l0.05,0c0.54,0,0.91-0.16,0.92-0.38c0-0.29-3.21-1.5-3.21-1.5
			c-0.21-0.08-0.45,0.03-0.53,0.24c0,0,0,0,0,0.01C-948.07-186.73-948.47-185.87-948.93-185.05z"/>
		<path id="パス_20_4_" class="st16" d="M-941.53-187.68c-0.22-0.07-0.42-0.07-0.45,0c-0.03,0.07,0.08,0.25,0.25,0.41
			c1.48,1.36,2.81,2.88,3.96,4.54c0.48,0.86,0.72,1.08,1.1,1.08c0.64,0,1.21-1.02,1.21-2.15c0-0.91-0.32-1.4-1.45-2.1
			C-938.4-186.61-939.95-187.2-941.53-187.68z"/>
		<path id="パス_21_4_" class="st16" d="M-952.05-182.13c0.59,0,1.29-0.99,1.3-1.82c0-0.48-0.72-1.06-0.72-1.06
			c-0.22-0.17-0.45-0.33-0.69-0.47l-1.14-0.59c-0.22-0.11-0.37-0.33-0.38-0.58l0-0.54c0-0.23,0.19-0.42,0.42-0.41l3.04,0.01
			c0.22,0,0.44-0.02,0.66-0.05l0-0.16c-0.07-0.09-0.26-0.3-0.42-0.46l-1.51-1.51c-0.14-0.14-0.38-0.14-0.52,0
			c-0.01,0.01-0.03,0.03-0.04,0.04l-0.91,1.24c-0.11,0.17-0.29,0.29-0.49,0.34c-0.13,0-0.24-0.19-0.24-0.42l0.03-3.71
			c0.01-0.25,0.16-0.47,0.39-0.58c0,0,0.64-0.27,0.64-0.45c0-0.34-3.43-0.73-3.43-0.73c-0.2-0.03-0.38,0.11-0.41,0.31
			c0,0.02,0,0.04,0,0.06l-0.01,5.09c0,0.23,0,0.42-0.01,0.42l-3.15-0.01c-0.23,0-0.42,0.13-0.42,0.28c0,0.16,0.19,0.29,0.42,0.29
			l2.55,0.01c0.18-0.01,0.34,0.13,0.35,0.32c0,0.03,0,0.06-0.01,0.09c0,0-0.63,3.27-1.25,5.39c-0.65,2.02-1.44,3.99-2.36,5.91
			c-0.1,0.21-0.11,0.42-0.03,0.47c0.08,0.05,0.27-0.05,0.42-0.22l3.46-5.32c0.1-0.21,0.18-0.19,0.18,0.04l-0.02,11.17
			c0,0.23,0.06,0.43,0.13,0.45c0.13,0.02,0.25,0.03,0.38,0.03l0.29,0c0.46,0.01,0.92-0.05,1.36-0.17c0.21-0.08,0.39-0.16,0.41-0.16
			c0.03-0.15,0.04-0.3,0.03-0.46l0.03-15.3c0-0.23,0.1-0.25,0.21-0.06c0.43,0.76,0.73,1.58,0.89,2.44
			C-952.56-182.37-952.37-182.13-952.05-182.13z"/>
		<path id="パス_22_4_" class="st16" d="M-938.84-174.44c-1.08-0.42-2.1-0.99-3.03-1.68c1.18-1.53,2.17-3.21,2.92-4.99
			c0.91-0.03,1.21-0.11,1.21-0.35c0-0.31-0.36-0.52-3.24-1.79c-0.06-0.03-0.12-0.06-0.19-0.08c-0.2-0.08-0.32,0.07-0.4,0.39
			c-0.15,0.65-0.35,1.3-0.59,1.93c-0.48,1.17-1.05,2.29-1.73,3.36c-1.06-1.36-1.94-2.86-2.61-4.44c-0.44-1-0.6-0.82-0.62-0.87
			l-0.57,0.25c-0.09,0.08-0.06,0.29,0.14,0.75c0.81,1.94,1.73,3.82,2.76,5.65c-2.19,2.86-5.07,5.11-8.38,6.54l0.14,0.29
			c1.88-0.34,3.7-0.94,5.41-1.79c1.58-0.79,3.03-1.83,4.28-3.08c1.48,1.61,3.21,2.98,5.13,4.04c0.4,0.26,0.85,0.46,1.31,0.57
			c0.16,0,0.27-0.11,0.32-0.4c0.08-0.34,0.2-0.68,0.35-0.99c0.38-0.77,1-1.39,1.77-1.77l0-0.27
			C-935.98-173.4-937.45-173.82-938.84-174.44z"/>
	</g>
	<path id="パス_23_2_" class="st16" d="M-935.59-191.37c0-0.16-0.19-0.27-0.42-0.27l0,0l-6.69-0.01l0,0
		c-0.23,0-0.42,0.11-0.42,0.27c0,0.16,0.19,0.29,0.42,0.29c1.03-0.07,2.01,0.47,2.52,1.37c0.41,0.67,0.57,1.74,0.57,3.91l-0.03,11.5
		c-0.02,0.16-0.18,0.22-0.32,0.11l-12.14-17.47l-5.39-0.01c-0.23,0-0.42,0.13-0.42,0.28s0.18,0.29,0.42,0.29l0,0
		c2.32,0.18,2.59,1,2.59,3.84l-0.03,11.67c-0.01,3.94-0.41,5.13-2.87,5.24l0,0c-0.23,0-0.42,0.12-0.42,0.27s0.18,0.28,0.42,0.28
		l6.69,0.01c0.23,0,0.42-0.13,0.42-0.28s-0.19-0.27-0.42-0.27l0,0c-2.49-0.15-3.04-1.2-3.03-5.02l0.03-13.66
		c0.02-0.16,0.18-0.22,0.32-0.11l13.46,19.37l1.48,0l0.04-16.25c0-1.85,0.09-3.01,0.52-3.71c0.44-0.88,1.36-1.42,2.34-1.36l0-0.01
		C-935.75-191.12-935.59-191.23-935.59-191.37z"/>
</g>
<g id="グループ_42_2_" transform="translate(1008.107 194.166)">
	<g id="グループ_35_2_" transform="translate(0 0.078)">
		<g id="グループ_32_2_" transform="translate(4.66)">
			<path id="パス_40_2_" class="st16" d="M-956.98-190.4c0.53-0.09,0.92-0.55,0.93-1.09c0-0.51-1.93-1.42-1.93-1.42
				c-0.1-0.05-0.2-0.06-0.23-0.03c-0.03,0.03,0,0.13,0.06,0.22c0.33,0.51,0.58,1.07,0.75,1.66
				C-957.27-190.5-957.2-190.4-956.98-190.4z"/>
		</g>
		<g id="グループ_33_2_" transform="translate(1.978 0.209)">
			<path id="パス_41_2_" class="st16" d="M-956.85-190.47c0.39,0,0.82-0.54,0.82-1.01c0-0.53-1.93-1.43-1.93-1.43
				c-0.1-0.05-0.2-0.06-0.22-0.03s0.01,0.13,0.07,0.22c0.36,0.54,0.63,1.12,0.82,1.74C-957.17-190.6-957.05-190.47-956.85-190.47z"
				/>
		</g>
		<g id="グループ_34_2_" transform="translate(0 0.077)">
			<path id="パス_42_2_" class="st16" d="M-947.7-186.82c-0.09-0.07-0.21-0.05-0.29,0.03l-0.75,0.84
				c-0.09,0.09-0.21,0.14-0.33,0.15l-2.28-0.01c-0.11,0-0.2-0.09-0.2-0.2c0,0,0,0,0,0l0-0.35c0.01-0.12,0.08-0.22,0.19-0.27
				c0,0,0.29-0.11,0.29-0.24l0-0.06c-0.08-0.05-0.07-0.12,0.03-0.16l1.92-0.85c0.1-0.05,0.22-0.08,0.33-0.09l0.04,0
				c0.33,0,0.49-0.06,0.49-0.2c0-0.04-0.02-0.08-0.05-0.12c-0.07-0.07-0.14-0.14-0.22-0.2c-0.03-0.03-0.04-0.07-0.01-0.11
				c0.01-0.01,0.02-0.02,0.03-0.02c0.05-0.03,0.22-0.14,0.32-0.2l0.97-0.62c0.11-0.07,0.23-0.12,0.36-0.13c0,0,0.6-0.05,0.6-0.21
				c0-0.05-0.02-0.09-0.05-0.13c-0.09-0.09-0.19-0.18-0.29-0.26l-0.99-0.75c-0.09-0.07-0.22-0.06-0.3,0.02l-0.52,0.49
				c-0.09,0.08-0.21,0.13-0.34,0.14l-1.38,0c-0.11,0-0.13-0.05-0.04-0.12l1.73-1.41c0.07-0.07,0.16-0.11,0.25-0.13l0.01,0
				c0.35,0,0.53-0.06,0.53-0.21c0-0.06,0-0.07,0-0.07c-0.11-0.07-0.23-0.14-0.35-0.18l-1.47-0.5c-0.11-0.03-0.22,0.02-0.25,0.13
				l-1.02,2.31c-0.06,0.1-0.17,0.17-0.29,0.18l-5.12-0.01c-0.11,0-0.2-0.09-0.22-0.2l-0.06-0.48c-0.02-0.11-0.07-0.2-0.11-0.2
				c-0.05,0-0.1,0.09-0.13,0.2c0,0-0.32,1.27-0.93,1.61l-0.29,0.17c-0.02,0.02-0.1,0.11-0.16,0.2c-0.05,0.09-0.07,0.18-0.06,0.28
				c0,0.52,0.31,0.97,0.68,0.97c0.37,0,0.79-0.59,0.79-0.59c0.07-0.11,0.12-0.23,0.15-0.36c0.09-0.4,0.14-0.81,0.15-1.22l0-0.03
				c0-0.05,0.09-0.09,0.2-0.09l7.52,0.02c0.08-0.01,0.15,0.06,0.16,0.14c0,0.02,0,0.04-0.01,0.06l-0.26,0.9
				c-0.02,0.07-0.09,0.12-0.17,0.1c-0.02-0.01-0.04-0.02-0.06-0.03l-0.65-0.46c-0.1-0.06-0.22-0.05-0.3,0.03l-0.4,0.41
				c-0.09,0.08-0.21,0.13-0.34,0.14l-4.98-0.02c-0.11,0-0.2,0.06-0.2,0.14c0,0.08,0.09,0.14,0.2,0.14l4.94,0.01
				c0.11,0,0.14,0.07,0.08,0.16l-0.93,1.09c-0.09,0.08-0.21,0.12-0.33,0.11l-0.9-0.13c-0.09-0.01-0.18,0.05-0.2,0.15
				c0,0.01,0,0.02,0,0.03l0,1.28c0,0-0.09,0-0.2,0l-4.75-0.01c-0.11,0-0.2,0.06-0.2,0.13c0,0.07,0.09,0.13,0.2,0.13l4.05,0.01l0.7,0
				c0.11,0,0.2,0.09,0.2,0.2c0,0,0,0,0,0l-0.01,2.47l0,0.02c0,0-0.01,0.04-0.03,0.08c-0.02,0.04-0.15,0.08-0.16,0.08l-0.22-0.01
				l-2.13-0.13c-0.11-0.01-0.2,0.02-0.2,0.07c0,0.05,0.09,0.1,0.2,0.13c0.54,0.12,1.06,0.3,1.56,0.53c0.21,0.16,0.34,0.41,0.36,0.67
				c0.03,0.21,0.06,0.24,0.23,0.25c0.48-0.01,0.95-0.11,1.38-0.32c0.2-0.14,0.35-0.34,0.42-0.57c0.03-0.13,0.05-0.26,0.05-0.39
				l0.01-2.87c0-0.11,0.09-0.2,0.2-0.2l0,0l4.65,0.01c0.13,0,0.25-0.01,0.38-0.04l0-0.09c-0.07-0.09-0.14-0.17-0.23-0.24
				L-947.7-186.82z"/>
		</g>
	</g>
	<g id="グループ_41_2_" transform="translate(19.009 0.052)">
		<g id="グループ_36_2_" transform="translate(4.973 0.069)">
			<path id="パス_43_2_" class="st16" d="M-951.52-190.51c0.11,0,0.22-0.01,0.32-0.02l0-0.08c-0.04-0.05-0.14-0.15-0.22-0.22
				l-1.02-0.87c-0.08-0.07-0.21-0.06-0.28,0.03c0,0,0,0,0,0l-0.6,0.74c-0.08,0.09-0.2,0.15-0.32,0.15l-0.91,0
				c-0.11,0-0.2-0.09-0.2-0.2l0-1.06c0.01-0.12,0.08-0.22,0.18-0.28c0,0,0.33-0.14,0.33-0.25c0-0.17-1.78-0.33-1.78-0.33
				c-0.08-0.01-0.16,0.05-0.18,0.13c0,0.02,0,0.03,0,0.05l0.06,0.9c0,0.11,0.01,0.29,0.01,0.39l0,0.45c0,0.11-0.09,0.2-0.2,0.2
				l-2.06,0c-0.11,0-0.2,0.06-0.2,0.13c0,0.07,0.09,0.13,0.2,0.13L-951.52-190.51z"/>
		</g>
		<g id="グループ_37_2_" transform="translate(4.071 2.989)">
			<path id="パス_44_2_" class="st16" d="M-957.09-191.61c-0.41,0.68-0.87,1.33-1.39,1.93c-0.07,0.08-0.11,0.17-0.08,0.2
				c0.02,0.02,0.12,0,0.21-0.06l2.89-2.37c0.06-0.08,0.15-0.13,0.25-0.14l0.03,0c0.25,0,0.44-0.08,0.44-0.18
				c-0.48-0.3-0.99-0.53-1.53-0.71c-0.1-0.04-0.21,0.02-0.25,0.12C-956.69-192.41-956.88-192-957.09-191.61z"/>
		</g>
		<g id="グループ_38_2_" transform="translate(8.931 3.058)">
			<path id="パス_45_2_" class="st16" d="M-958.43-192.93c-0.11-0.03-0.2-0.03-0.22,0c-0.01,0.03,0.04,0.12,0.12,0.2
				c0.71,0.65,1.34,1.38,1.88,2.16c0.23,0.41,0.34,0.51,0.52,0.51c0.31,0,0.58-0.49,0.58-1.02c0-0.44-0.15-0.67-0.69-1
				C-956.94-192.42-957.68-192.7-958.43-192.93z"/>
		</g>
		<g id="グループ_39_2_">
			<path id="パス_46_2_" class="st16" d="M-954.51-187.23c0.28,0,0.61-0.47,0.62-0.87c0-0.23-0.34-0.5-0.34-0.5
				c-0.1-0.08-0.21-0.16-0.32-0.22l-0.54-0.28c-0.1-0.05-0.17-0.16-0.18-0.28l0-0.26c0-0.11,0.09-0.2,0.2-0.2l1.45,0
				c0.1,0,0.21-0.01,0.31-0.02l0-0.08c-0.03-0.04-0.12-0.14-0.2-0.22l-0.72-0.72c-0.07-0.07-0.18-0.07-0.24,0
				c-0.01,0.01-0.01,0.01-0.02,0.02l-0.43,0.59c-0.05,0.08-0.14,0.14-0.23,0.16c-0.06,0-0.11-0.09-0.11-0.2l0.01-1.77
				c0.01-0.12,0.08-0.22,0.18-0.28c0,0,0.3-0.13,0.3-0.22c0-0.16-1.63-0.35-1.63-0.35c-0.1-0.01-0.18,0.05-0.2,0.15
				c0,0.01,0,0.02,0,0.03l-0.01,2.43c0,0.11,0,0.2,0,0.2l-1.5,0c-0.11,0-0.2,0.06-0.2,0.14c0,0.07,0.09,0.14,0.2,0.14l1.21,0
				c0.09,0,0.16,0.07,0.16,0.15c0,0.01,0,0.03,0,0.04c0,0-0.3,1.56-0.59,2.57c-0.31,0.96-0.69,1.9-1.12,2.81
				c-0.05,0.1-0.05,0.2-0.02,0.22c0.04,0.03,0.13-0.02,0.2-0.11l1.65-2.53c0.05-0.1,0.09-0.09,0.09,0.02l-0.01,5.32
				c0,0.11,0.03,0.21,0.06,0.21c0.06,0.01,0.12,0.02,0.18,0.02l0.14,0c0.22,0,0.44-0.02,0.65-0.08c0.1-0.04,0.19-0.07,0.2-0.08
				c0.01-0.07,0.02-0.14,0.02-0.22l0.02-7.28c0-0.11,0.04-0.12,0.1-0.03c0.21,0.36,0.35,0.75,0.42,1.16
				C-954.75-187.35-954.66-187.23-954.51-187.23z"/>
		</g>
		<g id="グループ_40_2_" transform="translate(3.554 5.184)">
			<path id="パス_47_2_" class="st16" d="M-951.78-188.75c-0.44-0.2-0.87-0.43-1.28-0.69c-0.09-0.06-0.11-0.17-0.06-0.26
				c0,0,0,0,0-0.01l1.18-2.04c0.06-0.11,0.16-0.18,0.29-0.2c0,0,0.38-0.03,0.38-0.15c0-0.15-0.17-0.25-1.54-0.85
				c-0.03-0.01-0.06-0.03-0.09-0.04c-0.1-0.04-0.15,0.03-0.19,0.19c-0.07,0.31-0.17,0.62-0.28,0.92c-0.26,0.61-0.72,1.43-0.72,1.43
				c-0.02,0.06-0.09,0.08-0.14,0.06c-0.03-0.01-0.05-0.03-0.06-0.06c0,0-0.89-1.38-1.14-1.95l-0.21-0.47
				c-0.07,0.05-0.15,0.09-0.23,0.12c-0.08,0.04-0.14,0.11-0.17,0.2l0.1,0.22c0.31,0.7,1.22,2.51,1.22,2.51
				c0.05,0.11,0.03,0.23-0.05,0.32l-3.68,2.87c-0.1,0.05-0.16,0.13-0.14,0.17c0.02,0.04,0.12,0.05,0.22,0.02
				c0.81-0.21,1.61-0.47,2.38-0.8c0.67-0.39,1.3-0.84,1.89-1.34c0.09-0.07,0.21-0.07,0.29,0.01c0.71,0.67,1.48,1.26,2.3,1.79
				c0.19,0.13,0.4,0.22,0.63,0.27c0.08,0,0.13-0.05,0.15-0.19c0.02-0.1,0.05-0.2,0.09-0.29c0.05-0.12,0.12-0.23,0.19-0.34l0.57-0.57
				c0.09-0.06,0.16-0.14,0.16-0.18s-0.09-0.08-0.2-0.11C-950.53-188.33-951.16-188.52-951.78-188.75z"/>
		</g>
	</g>
	<path id="パス_48_2_" class="st16" d="M-920.33-189.77c1.67,0.42,2.3,0.82,2.29,1.45c0,0.5-0.35,0.93-0.84,1.03
		c-0.22,0-0.27-0.07-0.47-0.64c-0.24-0.56-0.54-1.09-0.91-1.57C-920.32-189.58-920.35-189.68-920.33-189.77L-920.33-189.77z
		 M-920.32-185.18c0.31,0.08,0.62,0.13,0.94,0.15c0.18,0,0.29-0.1,0.45-0.39c0.18-0.33,0.77-1.5,1.24-2.49
		c0.49-1.01,0.77-1.63,1.21-2.71l0,0c0.09,0.04,0.14,0.15,0.11,0.24l-1.6,5.07c-0.03,0.1-0.08,0.27-0.11,0.38
		c-0.06,0.2-0.1,0.41-0.13,0.62c0.01,0.17,0.05,0.33,0.11,0.49c0.16,0.36,0.26,0.74,0.28,1.14c0.03,0.76-0.56,1.4-1.32,1.44
		c-0.26,0-0.41-0.14-0.41-0.36c0-0.14,0.02-0.28,0.05-0.42c0.11-0.58,0.18-1.17,0.2-1.76c0.02-0.3-0.08-0.59-0.27-0.82
		c-0.18-0.14-0.38-0.25-0.59-0.34C-920.26-184.97-920.32-185.07-920.32-185.18L-920.32-185.18z M-919.49-192.54
		c1.81,0.43,2.4,0.78,2.4,1.45c0,0.49-0.42,1.01-0.79,1.01c-0.2,0-0.29-0.09-0.41-0.37c-0.3-0.66-0.68-1.27-1.13-1.83
		C-919.49-192.35-919.52-192.45-919.49-192.54L-919.49-192.54z M-910.96-187.11c0.36-0.41,0.69-0.78,1.01-1.13
		c0.5,0.37,0.98,0.77,1.44,1.19c0.05,0.06,0.08,0.1,0.08,0.13c0,0.05-0.06,0.09-0.14,0.09l-4.02-0.01
		c-0.12,0.01-0.23,0.07-0.29,0.18c0,0-0.68,1.32-1.01,1.85c-0.31,0.5-0.58,0.89-1.08,1.57c1.65-0.07,2.82-0.16,4-0.29
		c-0.35-0.78-0.81-1.5-1.36-2.15l0,0c0.08-0.06,0.2-0.07,0.28-0.01c0.81,0.49,1.58,1.05,2.29,1.67c0.55,0.58,0.76,0.93,0.76,1.32
		c0,0.63-0.48,1.34-0.9,1.34c-0.2,0-0.31-0.15-0.46-0.63c-0.11-0.38-0.26-0.74-0.42-1.1c-1.35,0.41-1.37,0.41-5.5,1.35
		c-0.05,0.39-0.13,0.56-0.26,0.56c-0.15,0-0.22-0.23-0.66-2.08c0.52,0.03,0.74,0.03,1.06,0.03l0.58,0c0.44-1.18,0.79-2.39,1.07-3.63
		l-2.42-0.01c-0.11,0-0.2-0.06-0.2-0.13c0-0.07,0.09-0.13,0.2-0.13l2.69,0.01c0.11,0,0.2-0.09,0.2-0.2l0-2.26
		c0-0.11-0.09-0.2-0.2-0.2l-1.77,0c-0.11,0-0.2-0.06-0.2-0.13c0-0.07,0.09-0.13,0.2-0.13l1.77,0c0.11,0,0.2-0.09,0.2-0.2l0-0.72
		c0-0.11,0-0.29-0.01-0.39c0,0-0.02-0.72-0.1-1.35c0.63,0.03,1.25,0.1,1.87,0.21c0.11,0.04,0.17,0.09,0.17,0.17
		c0,0.12-0.08,0.17-0.54,0.36l0,1.73c0,0.11,0.09,0.2,0.2,0.2l1,0c0.12-0.01,0.24-0.06,0.32-0.15c0,0,0.41-0.49,0.82-0.93
		c0.64,0.49,0.82,0.63,1.41,1.15c0.05,0.06,0.08,0.09,0.08,0.13c0,0.04-0.05,0.08-0.13,0.08l-3.51-0.01c-0.11,0-0.2,0.09-0.2,0.2
		l-0.01,2.26c0,0.11,0.09,0.2,0.2,0.2L-910.96-187.11z"/>
	<path id="パス_49_2_" class="st16" d="M-901.5-181.15c1.39-0.94,2.51-2.21,3.26-3.71c0.75-1.42,1.21-2.98,1.36-4.58
		c0.08-0.68,0.14-1.61,0.15-2.18c0-0.26-0.01-0.39-0.04-0.73c0.45,0.05,0.8,0.09,1.02,0.1c0.91,0.1,1.16,0.17,1.16,0.32
		c0,0.1-0.12,0.18-0.54,0.33c-0.01,0.19-0.01,0.34-0.01,0.45c0.02,1.02,0.19,2.02,0.5,2.99c0.45,1.61,1.42,3.04,2.75,4.05
		c0.73,0.55,1.55,0.97,2.42,1.23l0,0c-0.03,0.1-0.1,0.18-0.19,0.22c-0.49,0.3-0.88,0.74-1.13,1.26c-0.05,0.13-0.1,0.17-0.17,0.17
		c-0.74-0.43-1.39-0.99-1.93-1.66c-0.93-1.21-1.59-2.6-1.93-4.09c-0.28-1.1-0.44-2.23-0.49-3.37c-0.03,1.62-0.39,3.21-1.07,4.68
		c-0.75,1.58-1.95,2.91-3.45,3.82c-0.42,0.27-1.46,0.74-1.46,0.74C-901.34-181.06-901.44-181.08-901.5-181.15L-901.5-181.15z"/>
	<path id="パス_50_2_" class="st16" d="M-873.04-189.22c0.31-0.33,0.39-0.43,0.73-0.75c0.42,0.31,0.55,0.41,0.94,0.73
		c0.18,0.14,0.24,0.22,0.24,0.3c0,0.12-0.12,0.21-0.44,0.38l-0.01,3.31c0,0.11,0,0.29,0,0.39l0.01,2.32c0,0.13-0.02,0.26-0.04,0.39
		c0,0-0.16,0.7-0.58,0.9c-0.43,0.18-0.89,0.29-1.35,0.32c-0.13,0-0.17-0.04-0.18-0.22c-0.06-0.64-0.52-0.91-2.17-1.24l0,0
		c0.02-0.1,0.11-0.17,0.21-0.15c0,0,0.95,0.06,2.43,0.13c0.22-0.01,0.25-0.05,0.25-0.27l0-1.65c0-0.11-0.09-0.2-0.2-0.2l-5.54-0.01
		c-0.12,0-0.22,0.08-0.26,0.19c-0.23,0.75-0.57,1.46-1.02,2.11c-0.47,0.54-1.02,0.99-1.65,1.33l0,0c-0.04-0.04-0.03-0.15,0.02-0.25
		c1.03-2.09,1.53-4.4,1.46-6.72c0-0.05,0-0.23-0.01-0.49l0-0.47c-0.55,0.39-1.13,0.73-1.74,1.02l0,0c-0.05-0.09-0.02-0.19,0.05-0.25
		c0.79-0.78,1.52-1.62,2.17-2.53c0.47-0.67,0.84-1.4,1.1-2.18c0.64,0.13,1.28,0.3,1.9,0.5c0.13,0.05,0.18,0.1,0.18,0.18
		c0,0.14-0.14,0.2-0.67,0.25c-0.19,0.25-0.24,0.33-0.42,0.55l2.01,0c0.12-0.01,0.24-0.06,0.33-0.14c0,0,0.29-0.3,0.61-0.61
		c0.52,0.37,0.69,0.49,1.22,0.87c0.19,0.15,0.28,0.26,0.28,0.33c0,0.05-0.05,0.1-0.14,0.13c-0.2,0.05-0.4,0.09-0.6,0.11
		c-1.14,0.89-1.69,1.26-1.69,1.26c-0.09,0.06-0.07,0.11,0.03,0.11L-873.04-189.22z M-876.31-189.23c0.34-0.57,0.64-1.18,0.89-1.8
		l-2.2,0c-0.12,0.01-0.24,0.06-0.33,0.15c-0.39,0.44-0.81,0.86-1.25,1.25l0.41,0.28c0.11,0.07,0.23,0.11,0.36,0.11L-876.31-189.23z
		 M-876.84-184.8c0.11,0,0.2-0.09,0.2-0.2l0-1.67c0-0.11-0.09-0.2-0.2-0.2l-1.71,0c-0.11,0-0.2,0.09-0.2,0.2l-0.1,1.68
		c-0.01,0.1,0.06,0.18,0.15,0.2c0.01,0,0.02,0,0.02,0L-876.84-184.8z M-878.73-188.97l0,0.72c0,0.36,0,0.62-0.02,1.11l1.91,0
		c0.11,0,0.2-0.09,0.2-0.2l0-1.43c0-0.11-0.09-0.2-0.2-0.2L-878.73-188.97z M-875.26-187.33c0,0.11,0.09,0.2,0.2,0.2l1.88,0
		c0.11,0,0.2-0.09,0.2-0.2l0-1.43c0-0.11-0.09-0.2-0.2-0.2l-1.88,0c-0.11,0-0.2,0.09-0.2,0.2L-875.26-187.33z M-875.06-186.86
		c-0.11,0-0.2,0.09-0.2,0.2l0,1.67c0,0.11,0.09,0.2,0.2,0.2l1.88,0c0.11,0,0.2-0.09,0.2-0.2l0-1.67c0-0.11-0.09-0.2-0.2-0.2
		L-875.06-186.86z"/>
	<path id="パス_51_2_" class="st16" d="M-863.24-181.13c0.8-1.21,1.27-2.61,1.35-4.06c0.08-0.9,0.11-1.8,0.1-2.71
		c0-0.55,0-0.55,0.01-0.82l0-0.41c0.02-1.04-0.01-2.07-0.11-3.1c1.74,0.09,2.13,0.15,2.13,0.34c0,0.11-0.13,0.2-0.51,0.34
		c-0.01,0.32-0.03,1.28-0.06,2.86c0.05,1.26-0.03,2.53-0.24,3.78c-0.22,1.09-0.75,2.1-1.52,2.91c-0.3,0.32-0.9,0.83-0.9,0.83
		C-863.05-181.1-863.15-181.09-863.24-181.13L-863.24-181.13z M-856.14-191.66c0.09,0.04,0.13,0.08,0.13,0.14
		c0,0.14-0.05,0.18-0.51,0.34c0,0.58-0.02,3.4-0.02,3.58c0,1.7,0.02,3.92,0.04,5.07l0,0.05c0,0.13-0.04,0.2-0.13,0.24
		c-0.36,0.08-0.72,0.11-1.09,0.11c-0.22,0-0.28-0.06-0.29-0.26c0-0.37,0-0.37,0.04-1.28c0.02-0.87,0.03-1.47,0.03-2.69
		c0-1.11,0-3.37-0.02-4.34c0-0.39-0.02-0.78-0.06-1.16C-857.39-191.84-856.76-191.78-856.14-191.66L-856.14-191.66z M-852.01-191.91
		c0,0.13-0.1,0.19-0.51,0.36c-0.03,2.2-0.03,3.23-0.03,4.03c0,1.57,0.01,3.13,0.04,4.72c0.01,0.74,0.02,0.88,0.02,1.32
		c0.01,0.11-0.06,0.21-0.17,0.24c-0.33,0.07-0.66,0.1-1,0.1c-0.31,0-0.39-0.05-0.42-0.23c0.06-1.8,0.09-3.51,0.09-5.6
		c0.01-2.96-0.02-4.55-0.09-5.28C-852.21-192.13-852.01-192.09-852.01-191.91L-852.01-191.91z"/>
	<path id="パス_52_2_" class="st16" d="M-840.38-185.52c0,0.47,0,0.72,0.02,2.59c0,0.23,0.01,0.39,0.01,0.57
		c0.02,0.27-0.01,0.54-0.09,0.79c-0.06,0.19-0.23,0.32-0.43,0.33c-0.29-0.03-0.54-0.2-0.68-0.45c-0.24-0.31-0.39-0.67-0.44-1.06
		c0-0.17,0.04-0.33,0.1-0.48c0.22-0.65,0.3-1.9,0.31-4.98c0.01-2.3-0.03-2.73-0.21-3.06c-0.21-0.32-0.52-0.55-0.88-0.67
		c0.15-0.09,0.32-0.14,0.5-0.13c0.56,0.04,1.1,0.21,1.57,0.5c0.46,0.27,0.64,0.47,0.64,0.74c0,0.11-0.04,0.22-0.1,0.32
		c-0.23,0.37-0.26,0.61-0.3,2.59c1.06,0.05,2.1,0.27,3.09,0.66c0.55,0.17,0.93,0.68,0.93,1.25c0,0.54-0.23,0.89-0.58,0.89
		c-0.17,0-0.27-0.06-0.59-0.42c-0.78-0.88-1.76-1.56-2.86-2L-840.38-185.52L-840.38-185.52z M-838.11-191.53
		c1.7,0.58,2.26,0.98,2.26,1.6c0,0.33-0.22,0.63-0.47,0.63c-0.13,0-0.23-0.09-0.34-0.3c-0.37-0.63-0.83-1.2-1.37-1.7
		C-838.12-191.37-838.15-191.48-838.11-191.53L-838.11-191.53z M-836.96-192.41c0.53,0.11,1.04,0.28,1.52,0.51
		c0.5,0.23,0.73,0.51,0.73,0.91c0,0.32-0.2,0.6-0.41,0.6c-0.11,0-0.19-0.08-0.31-0.26c-0.19-0.35-0.44-0.68-0.72-0.96
		c-0.22-0.21-0.45-0.41-0.7-0.58C-836.95-192.25-836.99-192.35-836.96-192.41L-836.96-192.41z"/>
	<path id="パス_53_2_" class="st16" d="M-821.91-181.47c1.24-0.9,2.27-2.07,3.01-3.42c0.94-1.6,1.57-3.36,1.85-5.19
		c-1.4,0.04-2.79,0.22-4.15,0.54c-0.11,0.03-0.23,0.05-0.34,0.05c-0.26-0.02-0.51-0.11-0.71-0.27c0.04,0.63,0.04,0.69,0.06,1.38
		c0.02,0.45,0.04,0.79,0.05,1.01c0.02,0.51,0.04,0.7,0.04,0.78c0,0.6-0.17,0.88-0.51,0.88c-0.23,0-0.46-0.18-0.69-0.54
		c-0.2-0.28-0.32-0.6-0.34-0.95c0.01-0.11,0.03-0.21,0.08-0.31c0.13-0.35,0.18-0.72,0.17-1.1c0.02-0.55-0.06-1.11-0.26-1.62
		c-0.17-0.33-0.45-0.59-0.79-0.73c0.11-0.07,0.24-0.1,0.37-0.09c0.59,0.09,1.15,0.33,1.61,0.72c0.82-0.01,1.64-0.09,2.46-0.22
		c1.75-0.21,2.25-0.28,2.55-0.34c0.18-0.03,0.36-0.11,0.51-0.22c0.09-0.06,0.2-0.09,0.31-0.1c0.43,0.09,0.82,0.31,1.12,0.63
		c0.32,0.31,0.46,0.5,0.46,0.69c0,0.14-0.07,0.28-0.18,0.37c-0.21,0.25-0.36,0.55-0.44,0.87c-0.62,1.96-1.66,3.76-3.05,5.27
		c-0.88,0.77-1.85,1.43-2.89,1.97C-821.73-181.36-821.85-181.38-821.91-181.47L-821.91-181.47z"/>
	<path id="パス_54_2_" class="st16" d="M-805.7-190.66c0.98,0.08,1.93,0.37,2.8,0.84c0.4,0.22,0.64,0.64,0.62,1.1
		c0,0.6-0.3,1.06-0.69,1.06c-0.22,0-0.35-0.1-0.54-0.43c-0.57-0.87-1.28-1.65-2.1-2.3C-805.69-190.45-805.73-190.56-805.7-190.66
		L-805.7-190.66z M-795.99-189.9c-0.71,1.48-1.69,2.82-2.88,3.95c-1.12,1.11-2.36,2.08-3.71,2.9c-0.26,0.15-0.49,0.34-0.69,0.56
		c-0.12,0.18-0.32,0.3-0.54,0.32c-0.33,0-0.8-0.36-1.25-0.93c-0.35-0.39-0.57-0.89-0.61-1.42c0-0.12,0.02-0.24,0.06-0.35
		c0.34,0.59,0.76,0.95,1.11,0.95c1.36-0.41,2.63-1.07,3.74-1.96c1.58-1.22,3.08-2.54,4.48-3.96
		C-796.21-189.91-796.09-189.93-795.99-189.9L-795.99-189.9z"/>
	<path id="パス_55_2_" class="st16" d="M-786.16-189.38c0.24,0.16,0.53,0.24,0.82,0.22c0.59,0,2.62-0.21,3.99-0.41
		c0.29-0.03,0.56-0.12,0.8-0.27c0.1-0.06,0.21-0.09,0.32-0.09c0.46,0.13,0.87,0.39,1.18,0.74c0.34,0.32,0.46,0.51,0.46,0.7
		c0,0.14-0.04,0.22-0.22,0.39c-0.16,0.25-0.27,0.53-0.32,0.82c-0.12,0.47-0.14,0.57-0.49,2c-0.08,0.37-0.15,0.65-0.21,0.87
		c0.48,0.35,0.71,0.65,0.71,0.93c0,0.24-0.14,0.37-0.41,0.37c-0.2-0.01-0.4-0.03-0.6-0.07c-0.36-0.04-0.73-0.07-1.1-0.07
		c-1.43-0.04-2.85,0.21-4.18,0.72c-0.1,0.04-0.2,0.06-0.31,0.06c-0.57,0-1.47-1.11-1.46-1.84c0.01-0.1,0.02-0.2,0.04-0.29
		c0.26,0.51,0.78,0.84,1.35,0.86c0.15,0,0.41-0.02,0.68-0.05c0.58-0.08,0.58-0.08,1.6-0.19c0.63-0.06,1.44-0.15,2.44-0.24
		c0.26-1.46,0.44-2.93,0.55-4.4c0-0.18-0.08-0.23-0.29-0.23c-0.79,0.05-1.57,0.14-2.34,0.29c-0.6,0.11-1.18,0.27-1.75,0.48
		c-0.15,0.08-0.33,0.12-0.5,0.13c-0.32,0-0.7-0.3-1.05-0.82c-0.21-0.28-0.33-0.62-0.36-0.97c0-0.1,0.02-0.2,0.07-0.29
		C-786.6-189.77-786.4-189.55-786.16-189.38z M-780.16-191.66c0.03-0.03,0.08-0.04,0.12-0.03l0.28,0.09
		c0.46,0.15,0.91,0.35,1.33,0.59c0.38,0.26,0.5,0.42,0.5,0.7c0,0.39-0.2,0.73-0.45,0.73c-0.15,0-0.2-0.05-0.41-0.41
		c-0.35-0.55-0.78-1.05-1.26-1.49C-780.13-191.55-780.17-191.63-780.16-191.66L-780.16-191.66z M-778.9-192.46
		c0.56,0.08,1.1,0.24,1.61,0.47c0.43,0.23,0.59,0.42,0.59,0.74c0,0.38-0.18,0.72-0.39,0.72c-0.13,0-0.17-0.05-0.37-0.38
		c-0.39-0.5-0.83-0.95-1.33-1.34C-778.89-192.32-778.93-192.41-778.9-192.46L-778.9-192.46z"/>
	<path id="パス_56_2_" class="st16" d="M-759.68-185.22c0.6-0.68,0.6-0.68,1.01-1.13c0.65,0.5,0.84,0.65,1.45,1.17
		c0.04,0.04,0.06,0.09,0.08,0.14c0,0.06-0.06,0.1-0.18,0.1l-4.83-0.01c-0.11,0-0.2,0.09-0.2,0.2l0,1.03c0,0.11,0,0.29,0,0.39
		l0.01,1.24c0,0.13-0.01,0.26-0.03,0.39c-0.05,0.3-0.21,0.57-0.46,0.76c-0.43,0.2-0.9,0.31-1.38,0.32c-0.16,0-0.2-0.04-0.23-0.24
		c-0.02-0.26-0.15-0.5-0.36-0.67c-0.24-0.2-0.43-0.27-1.75-0.58l0,0c0.01-0.09,0.09-0.16,0.19-0.15c0,0,0.01,0,0.01,0
		c0,0,1.58,0.1,2.32,0.13l0.04,0c0.13,0,0.18-0.05,0.18-0.19l0.01-2.45c0-0.11-0.09-0.2-0.2-0.2l-4.69-0.01
		c-0.11,0-0.2-0.06-0.2-0.13c0-0.07,0.09-0.13,0.2-0.13l4.69,0.01c0.11,0,0.2-0.05,0.2-0.1c0-0.05,0-0.2,0-0.3
		c0,0-0.01-0.62-0.06-1.08c0.65,0.08,0.65,0.08,1.35,0.2c0.44-0.42,0.84-0.89,1.18-1.39l-5.08-0.01c-0.11,0-0.2-0.06-0.2-0.13
		c0-0.07,0.09-0.13,0.2-0.13l4.92,0.01c0.12-0.01,0.24-0.06,0.34-0.14c0,0,0.25-0.25,0.54-0.55c0.51,0.35,0.68,0.46,0.97,0.69
		c0.16-0.41,0.29-0.84,0.37-1.28l-7.7-0.02c-0.11,0-0.2,0.04-0.2,0.09v0.03c0,0.47-0.07,0.95-0.2,1.4c-0.12,0.41-0.47,0.71-0.9,0.75
		c-0.37,0-0.68-0.45-0.68-0.97c-0.02-0.17,0.05-0.33,0.18-0.43c0.04-0.04,0.04-0.04,0.33-0.2c0.63-0.37,1.01-1.07,0.97-1.8l0,0
		c0.1,0.01,0.18,0.09,0.2,0.2c0,0,0.06,0.39,0.07,0.67l5.3,0.01c0.12-0.01,0.23-0.07,0.29-0.18c0.42-0.8,0.78-1.63,1.08-2.49
		c0.91,0.28,1.63,0.53,1.84,0.63c0.11,0.05,0.16,0.12,0.16,0.18c0,0.14-0.18,0.2-0.52,0.2l-0.11,0c-0.63,0.6-1.31,1.16-2.03,1.66
		l1.58,0c0.13-0.01,0.24-0.06,0.34-0.14c0,0,0.31-0.31,0.67-0.63c0.57,0.42,0.75,0.56,1.3,0.98c0.14,0.12,0.19,0.19,0.19,0.27
		c0,0.17-0.22,0.23-0.79,0.23c-0.41,0.31-0.84,0.59-1.29,0.84c-0.05,0.03-0.13,0.08-0.24,0.15l0.01,0.01
		c0.08,0.07,0.22,0.18,0.29,0.26c0.03,0.03,0.05,0.07,0.05,0.12c0,0.13-0.15,0.2-0.48,0.2l-0.2,0c-0.73,0.39-1.49,0.73-2.28,1
		c0.11,0.04,0.15,0.09,0.15,0.15c0,0.13-0.11,0.2-0.47,0.31l0,0.54c0,0.11,0.09,0.2,0.2,0.2L-759.68-185.22z M-766.94-192.26
		c1.52,0.58,2.11,0.99,2.1,1.51c0,0.47-0.42,1.01-0.82,1.01c-0.2,0-0.32-0.13-0.43-0.51c-0.19-0.61-0.46-1.2-0.82-1.73
		C-766.97-192.06-766.98-192.17-766.94-192.26L-766.94-192.26z M-764.3-192.46c1.39,0.48,2.11,0.99,2.11,1.5
		c-0.01,0.54-0.39,0.99-0.92,1.08c-0.22,0-0.29-0.1-0.43-0.65c-0.17-0.58-0.42-1.14-0.74-1.65
		C-764.35-192.26-764.35-192.37-764.3-192.46L-764.3-192.46z"/>
	<path id="パス_57_2_" class="st16" d="M-748.27-181.07c0.01,0.1-0.03,0.2-0.12,0.25c-0.25,0.1-0.52,0.13-0.79,0.11
		c-0.42,0-0.52-0.05-0.52-0.31c0.05-1.53,0.08-3.59,0.09-6.86c0-1.8-0.01-2.94-0.07-4.61c0.71,0.32,0.93,0.42,1.65,0.81l7.34,0.02
		c0.12-0.01,0.24-0.06,0.33-0.14c0,0,0.3-0.33,0.66-0.69c0.49,0.35,0.63,0.46,1.06,0.79c0.1,0.09,0.14,0.15,0.14,0.23
		c0,0.13-0.04,0.17-0.46,0.42l-0.01,2.89c0,0.11,0,0.29,0,0.39c0,0,0.02,5.29,0.07,6.55c0.01,0.11-0.02,0.22-0.09,0.31
		c-0.26,0.14-0.56,0.19-0.86,0.16c-0.42,0-0.49-0.04-0.51-0.27l0-0.27c0-0.11-0.09-0.2-0.2-0.2l-7.52-0.02c-0.11,0-0.2,0.09-0.2,0.2
		L-748.27-181.07z M-748.27-181.96c0,0.11,0.09,0.2,0.2,0.2l7.52,0.02c0.11,0,0.2-0.09,0.2-0.2l0.02-9.25c0-0.11-0.09-0.2-0.2-0.2
		l-7.52-0.02c-0.11,0-0.2,0.09-0.2,0.2L-748.27-181.96z M-742.93-187.53c0.28-0.27,0.37-0.34,0.65-0.59
		c0.37,0.26,0.48,0.33,0.83,0.59c0.1,0.08,0.14,0.14,0.14,0.2c0,0.09-0.09,0.17-0.33,0.25l0,0.54c0,0.28,0,0.39,0.01,0.7
		c0.3,0.16,0.58,0.35,0.86,0.55c0.13,0.08,0.18,0.14,0.18,0.21c0,0.06-0.09,0.12-0.2,0.12c-0.09-0.01-0.18-0.02-0.27-0.04
		c-0.48,0.21-0.98,0.4-1.48,0.56c1.19,0.51,1.54,0.79,1.54,1.27c0,0.39-0.27,0.78-0.55,0.78c-0.15,0-0.18-0.03-0.42-0.39
		c-0.38-0.55-0.81-1.05-1.3-1.5c-0.16-0.14-0.34-0.27-0.52-0.39l0,0.72c0,0,0,0.16,0.01,0.45c0.02,0.43,0.02,0.64,0.04,1.1
		c0,0.27-0.2,0.34-0.82,0.34c-0.38,0-0.46-0.05-0.46-0.3c0.05-0.95,0.05-1.02,0.05-1.47l0-0.35c0-0.11-0.07-0.14-0.15-0.07
		c-0.48,0.39-0.99,0.75-1.52,1.06c-0.47,0.24-0.96,0.44-1.46,0.61l0,0c-0.04-0.06-0.01-0.16,0.08-0.23
		c1.08-0.87,2.07-1.85,2.94-2.93l-0.59,0c-0.11,0-0.2,0.05-0.2,0.12c0,0.08-0.01,0.16-0.03,0.24l-0.05,0.02
		c-0.23,0.08-0.47,0.11-0.72,0.1c-0.39,0-0.46-0.03-0.46-0.21c0.03-0.64,0.04-1.15,0.04-1.67c0-0.2,0-0.31-0.02-1
		c0.4,0.15,0.78,0.31,1.16,0.5c0.12,0.05,0.24,0.08,0.37,0.09L-742.93-187.53z M-742.67-189.95c0.31-0.36,0.41-0.46,0.73-0.79
		c0.36,0.26,0.7,0.53,1.02,0.83c0.05,0.06,0.08,0.1,0.08,0.14c0,0.04-0.06,0.09-0.17,0.09l-2.6-0.01c-0.11,0-0.2,0.09-0.2,0.2l0,0.7
		c0,0.11,0.09,0.2,0.2,0.2l1.15,0c0.12-0.01,0.24-0.06,0.33-0.15c0,0,0.28-0.31,0.61-0.64c0.45,0.36,0.59,0.47,0.99,0.83
		c0.06,0.06,0.09,0.1,0.09,0.14c0,0.06-0.06,0.09-0.18,0.09l-7.16-0.02c-0.11,0-0.2-0.06-0.2-0.13c0-0.07,0.09-0.13,0.2-0.13
		l2.49,0.01c0.11,0,0.2-0.09,0.2-0.2l0-0.7c0-0.11-0.09-0.2-0.2-0.2l-1.93,0c-0.11,0-0.2-0.06-0.2-0.14c0-0.07,0.09-0.14,0.2-0.14
		l1.93,0c0.11,0,0.2-0.03,0.2-0.07c0-0.04,0-0.16-0.01-0.27c-0.01-0.28-0.03-0.55-0.07-0.82c1.56,0.13,1.83,0.18,1.83,0.35
		c0,0.12-0.1,0.18-0.47,0.27l0,0.35c0,0.11,0.09,0.2,0.2,0.2L-742.67-189.95z M-745.87-186.2c0,0.11,0.09,0.2,0.2,0.2l2.64,0.01
		c0.11,0,0.2-0.09,0.2-0.2l0-0.87c0-0.11-0.09-0.2-0.2-0.2l-2.65-0.01c-0.11,0-0.2,0.09-0.2,0.2L-745.87-186.2z M-743.79-184.92
		c0.24,0.09,0.24,0.09,0.85,0.32c0.3-0.25,0.57-0.52,0.82-0.82c-0.18,0.01-0.26,0.01-0.36,0.01c-0.28,0-0.34-0.04-0.36-0.17l0,0
		c-0.01-0.1-0.1-0.17-0.2-0.17l-0.56,0c-0.11,0-0.2,0.09-0.2,0.2L-743.79-184.92z"/>
</g>
<circle id="楕円形_1_2_" class="st16" cx="205.77" cy="33.9" r="2.18"/>
<g>
	<g>
		<path class="st16" d="M229.62,28.86c-0.23-1.38-0.78-2.5-1.31-3.3c-0.93-1.42-2.68-2.29-4.61-2.29c-1.41,0-2.46,0.6-3.2,1.46
			c-0.59,0.71-0.93,1.69-0.93,2.7c0,1.01,0.26,1.95,0.96,2.63c0.71,0.74,1.56,1.45,3.71,2.47c2.89,1.36,4.03,2.01,5.1,3
			c1.17,1.08,1.76,2.66,1.76,4.31c0,1.94-0.6,3.29-1.87,4.34c-1.32,1.13-3.01,1.68-5.19,1.68c-1.17,0-3.7-0.54-4-0.61
			c-0.29-0.07-0.83-0.21-1.17-0.21c-0.29,0-0.58,0.02-0.85,0.1c-0.22,0.07-0.42,0.17-0.62,0.29c-0.06,0.04-0.12,0.08-0.19,0.1
			c-0.09,0.04-0.18,0.05-0.26-0.02c-0.07-0.05-0.1-0.14-0.1-0.22c0-0.91,0.01-5.77,0.01-5.95c0-0.18,0.06-0.33,0.26-0.34
			c0.18-0.01,0.29,0.12,0.3,0.29c0.17,2,0.97,3.15,1.86,4.06c1.06,1.1,2.74,1.76,4.7,1.77c1.97,0,3.29-0.85,4-2.3
			c0.28-0.52,0.4-1.26,0.4-2.09c0-2.15-1.28-3.61-5.51-5.67c-2.73-1.33-3.45-1.78-4.4-2.7c-1-0.97-1.56-2.38-1.55-3.8
			c0-1.84,0.72-3.27,1.98-4.4c1.23-1.07,2.67-1.56,4.64-1.56c1.23,0,1.7,0.1,3.72,0.56c0.27,0.06,0.55,0.14,0.83,0.18
			c0.36,0.05,0.72,0.06,1.06-0.08c0.21-0.09,0.38-0.2,0.58-0.3c0.08-0.04,0.17-0.08,0.26-0.08c0.14,0,0.21,0.12,0.21,0.25
			c0,1.02-0.01,5.41-0.01,5.63c0,0.25-0.09,0.42-0.29,0.42C229.75,29.16,229.65,29.04,229.62,28.86z"/>
	</g>
</g>
<g>
	<g id="グループ_5_1_" transform="translate(93.36 0.149)">
		<g id="グループ_2_1_" transform="translate(9.775)">
			<path id="パス_8_1_" class="st16" d="M213.16,26.69c1.11-0.2,1.92-1.15,1.94-2.28c0-1.08-4.05-2.98-4.05-2.98
				c-0.21-0.1-0.42-0.12-0.48-0.06c-0.06,0.06-0.01,0.28,0.12,0.47c0.68,1.08,1.21,2.25,1.56,3.47
				C212.54,26.47,212.7,26.69,213.16,26.69z"/>
		</g>
		<g id="グループ_3_1_" transform="translate(4.147 0.438)">
			<path id="パス_9_1_" class="st16" d="M213.44,26.54c0.83,0,1.72-1.13,1.72-2.12c0-1.1-4.05-3.01-4.05-3.01
				c-0.21-0.1-0.41-0.12-0.46-0.06s0.03,0.27,0.16,0.46c0.74,1.13,1.32,2.35,1.71,3.64C212.76,26.26,213,26.54,213.44,26.54z"/>
		</g>
		<g id="グループ_4_1_" transform="translate(0 0.162)">
			<path id="パス_10_1_" class="st16" d="M232.62,34.19c-0.19-0.14-0.45-0.12-0.61,0.05l-1.58,1.76c-0.19,0.18-0.43,0.3-0.69,0.31
				l-4.78-0.01c-0.23,0-0.41-0.19-0.42-0.42l0-0.73c0.01-0.25,0.17-0.46,0.39-0.56c0,0,0.61-0.23,0.61-0.5l0-0.13
				c-0.18-0.1-0.15-0.26,0.07-0.34l4.03-1.78c0.22-0.1,0.45-0.17,0.69-0.18l0.08,0c0.7,0,1.02-0.13,1.02-0.4
				c-0.01-0.09-0.05-0.18-0.11-0.24c-0.15-0.15-0.3-0.29-0.47-0.43c-0.07-0.05-0.08-0.15-0.03-0.22c0.02-0.02,0.04-0.04,0.06-0.05
				c0.11-0.07,0.47-0.29,0.66-0.41l2.03-1.3c0.22-0.15,0.48-0.25,0.75-0.28c0,0,1.25-0.1,1.25-0.45c0-0.1-0.04-0.2-0.11-0.27
				c-0.2-0.19-0.4-0.38-0.62-0.55l-2.08-1.58c-0.2-0.14-0.46-0.12-0.64,0.03l-1.1,1.04c-0.2,0.18-0.45,0.28-0.71,0.29l-2.9-0.01
				c-0.23,0-0.27-0.11-0.08-0.25l3.64-2.96c0.15-0.14,0.33-0.23,0.53-0.27l0.03,0c0.73,0,1.1-0.13,1.1-0.43
				c0-0.13-0.01-0.14-0.01-0.14c-0.23-0.15-0.47-0.28-0.73-0.38l-3.08-1.05c-0.22-0.07-0.46,0.05-0.53,0.26l-2.13,4.85
				c-0.13,0.22-0.36,0.35-0.61,0.37l-10.75-0.02c-0.23-0.01-0.43-0.18-0.45-0.42l-0.11-1c-0.03-0.23-0.14-0.41-0.24-0.41
				s-0.22,0.18-0.27,0.4c0,0-0.66,2.66-1.95,3.38l-0.62,0.35c-0.04,0.05-0.2,0.23-0.34,0.41c-0.1,0.18-0.14,0.38-0.12,0.59
				c0,1.1,0.64,2.04,1.42,2.05c0.78,0,1.64-1.24,1.64-1.24c0.15-0.23,0.26-0.48,0.33-0.75c0.18-0.84,0.29-1.69,0.32-2.55l0-0.05
				c0-0.1,0.19-0.19,0.42-0.19l15.77,0.03c0.17-0.01,0.32,0.12,0.33,0.3c0,0.04,0,0.07-0.01,0.11l-0.55,1.89
				c-0.04,0.15-0.2,0.25-0.35,0.21c-0.04-0.01-0.09-0.03-0.12-0.06l-1.37-0.97c-0.2-0.13-0.46-0.1-0.64,0.06l-0.84,0.86
				c-0.19,0.18-0.44,0.28-0.71,0.29l-10.45-0.04c-0.23,0-0.42,0.13-0.42,0.28c0,0.16,0.19,0.29,0.42,0.29l10.37,0.03
				c0.23,0,0.3,0.15,0.17,0.33l-1.93,2.3c-0.19,0.17-0.44,0.26-0.7,0.23l-1.89-0.27c-0.2-0.03-0.38,0.11-0.41,0.3
				c0,0.02,0,0.04,0,0.06l-0.01,2.68c0,0-0.19,0-0.42,0l-9.97-0.02c-0.23,0-0.42,0.12-0.42,0.27c0,0.15,0.19,0.28,0.42,0.28
				l8.51,0.03l1.47,0c0.23,0,0.42,0.19,0.42,0.42c0,0,0,0,0,0l-0.01,5.19c0,0.01,0,0.03,0,0.04c0,0-0.03,0.07-0.07,0.16
				c-0.04,0.09-0.31,0.16-0.33,0.16c-0.01,0-0.24-0.01-0.47-0.02l-4.46-0.26c-0.23-0.02-0.42,0.05-0.42,0.15
				c0,0.1,0.18,0.22,0.4,0.27c1.13,0.25,2.23,0.63,3.27,1.12c0.43,0.34,0.7,0.85,0.75,1.4c0.05,0.43,0.13,0.51,0.48,0.51
				c1-0.01,1.99-0.24,2.9-0.66c0.42-0.29,0.73-0.7,0.89-1.19c0.07-0.27,0.11-0.54,0.11-0.82l0.01-6.05c0-0.23,0.19-0.42,0.42-0.42
				c0,0,0,0,0,0l9.76,0.02c0.27,0,0.53-0.03,0.79-0.08l0-0.19c-0.14-0.19-0.3-0.36-0.48-0.51L232.62,34.19z"/>
		</g>
	</g>
	<g id="グループ_11_1_" transform="translate(30.713 0.03)">
		<g id="グループ_6_1_" transform="translate(6.353 14.65)">
			<path id="パス_11_1_" class="st16" d="M211.7,20.93L211.7,20.93C211.69,20.94,211.7,20.94,211.7,20.93
				C211.71,20.94,211.71,20.94,211.7,20.93z"/>
		</g>
		<g id="グループ_7_1_" transform="translate(6.436 14.805)">
			<path id="パス_12_1_" class="st16" d="M222.48,27.63c0.05-0.18,0.07-0.36,0.06-0.54l0.01-2.87c0.02-0.36,0.14-0.71,0.34-1
				c0,0,0.47-0.33,0.47-0.54c0-0.08-0.03-0.13-0.16-0.24c-0.91-0.73-1.86-1.4-1.86-1.4c-0.2-0.13-0.46-0.11-0.64,0.05l-0.83,0.79
				c-0.2,0.17-0.45,0.27-0.72,0.29l-4.06-0.01c-0.27-0.01-0.54-0.07-0.79-0.19l-2.22-1c-0.12-0.07-0.28-0.03-0.35,0.1
				c-0.03,0.05-0.04,0.1-0.03,0.16l-0.02,7.05c0,0.23,0.1,0.44,0.27,0.59l0.35,0c0.56,0.01,1.12-0.03,1.67-0.1l0.29-0.05
				c0.09-0.24,0.13-0.49,0.14-0.74l0-0.54c0-0.23,0.19-0.42,0.42-0.42l4.57,0.01c0.23,0,0.42,0.12,0.42,0.27
				c0.02,0.22,0.08,0.44,0.17,0.65c0.2,0.04,0.4,0.05,0.6,0.03c0.44,0,0.88-0.03,1.31-0.09C222.1,27.85,222.3,27.76,222.48,27.63z
				 M219.8,26.05c0,0.23-0.19,0.42-0.42,0.42l-4.57-0.01c-0.23,0-0.42-0.19-0.42-0.42l0.01-2.9c0-0.23,0.19-0.42,0.42-0.42
				l4.57,0.01c0.23,0,0.42,0.19,0.42,0.42L219.8,26.05z"/>
		</g>
		<g id="グループ_8_1_" transform="translate(4.756 4.75)">
			<path id="パス_13_1_" class="st16" d="M224.61,21.21c-0.21-0.12-0.47-0.09-0.66,0.07l-0.79,0.8c-0.19,0.18-0.43,0.29-0.7,0.31
				l-7.12-0.02c-0.27-0.01-0.54-0.07-0.79-0.18l-2.41-1.04c-0.13-0.07-0.29-0.03-0.36,0.1c-0.03,0.05-0.04,0.11-0.03,0.16
				l-0.01,6.15c0.01,0.24,0.14,0.46,0.34,0.58l0.44,0c1.8,0,1.88-0.12,1.88-0.12c0.12-0.21,0.2-0.44,0.22-0.68
				c0.03-0.2,0.21-0.34,0.42-0.32l7.55,0.02c0.22-0.01,0.4,0.15,0.42,0.36c0.01,0.25,0.07,0.51,0.18,0.74c0,0,0.04,0.08,0.58,0.08
				c0.52-0.01,1.04-0.06,1.55-0.14c0.17-0.02,0.34-0.06,0.5-0.12c0.09-0.19,0.13-0.4,0.13-0.62l0.01-2.69
				c0-0.22,0.16-1.12,0.35-1.24c0,0,0.54-0.34,0.54-0.55l0-0.11c-0.18-0.17-0.38-0.33-0.59-0.48L224.61,21.21z M223,26.06
				c0,0.23-0.19,0.42-0.42,0.42l-7.55-0.02c-0.23,0-0.42-0.19-0.42-0.42l0.01-2.69c0-0.23,0.19-0.42,0.42-0.41l7.55,0.02
				c0.23,0,0.42,0.19,0.42,0.42L223,26.06z"/>
		</g>
		<g id="グループ_9_1_">
			<path id="パス_14_1_" class="st16" d="M236.24,24.74c-0.13-0.14-0.28-0.27-0.43-0.39l-2.59-2.02
				c-0.19-0.14-0.45-0.11-0.61,0.06l-1.49,1.68c-0.18,0.19-0.43,0.3-0.69,0.31l-4.92-0.01c-0.23,0-0.42-0.19-0.42-0.42l0-0.86
				c0.01-0.25,0.15-0.48,0.37-0.6c0,0,0.65-0.32,0.65-0.51c0-0.35-0.7-0.54-2.34-0.65c-0.41-0.02-1.39-0.11-1.39-0.11
				c-0.21-0.02-0.39,0.12-0.41,0.33c0,0.02,0,0.03,0,0.05l-0.01,2.36c0,0.23-0.19,0.42-0.42,0.42l-6.92-0.02c0,0-0.19,0-0.42,0
				l-1.97,0c-0.23,0-0.42,0.13-0.42,0.28c0,0.16,0.19,0.28,0.42,0.28l3.01,0.01c0.23,0,0.42,0,0.42,0s0.19,0,0.42,0l19.49,0.04
				c0.22,0,0.44-0.02,0.66-0.08L236.24,24.74L236.24,24.74z"/>
		</g>
		<g id="グループ_10_1_" transform="translate(0.936 11.572)">
			<path id="パス_15_1_" class="st16" d="M233.47,28.2l0.01-3.84c0.01-0.25,0.15-0.48,0.37-0.62c0,0,0.71-0.39,0.71-0.66l0-0.08
				c-0.17-0.17-0.36-0.32-0.55-0.47l-1.85-1.34c-0.2-0.13-0.46-0.1-0.63,0.06l-0.93,0.98c-0.19,0.18-0.44,0.29-0.7,0.3l-14.41-0.03
				c-0.27-0.01-0.54-0.08-0.79-0.2l-2.53-1.28c-0.11-0.08-0.26-0.05-0.34,0.06c-0.03,0.05-0.05,0.11-0.04,0.17l-0.03,12.69
				c0,0.22,0.1,0.43,0.28,0.57l0.31,0c2.04,0,2.18-0.33,2.18-0.33c0.09-0.26,0.15-0.53,0.15-0.8l-0.01-4.41c0-0.23,0-0.6,0-0.83
				l0.01-4.65c0-0.23,0.19-0.41,0.42-0.41l15.05,0.03c0.23,0,0.42,0.19,0.42,0.42l-0.02,7.42c0,0.21-0.01,0.41-0.04,0.62
				c-0.02,0.11-0.44,0.25-0.67,0.24l-2.5-0.12c-0.23-0.02-0.42,0.04-0.43,0.13c-0.01,0.09,0.17,0.21,0.39,0.27l1.46,0.61
				c0.2,0.19,0.35,0.41,0.47,0.66l0.14,0.52c0.04,0.22,0.11,0.54,0.16,0.71l0.21,0c0.92,0.01,1.84-0.16,2.69-0.51
				c0.37-0.17,0.68-0.47,0.86-0.83c0.1-0.26,0.15-0.53,0.16-0.8L233.47,28.2z"/>
		</g>
	</g>
	<g id="グループ_14_1_" transform="translate(61.953)">
		<g id="グループ_12_1_" transform="translate(5.168 17.583)">
			<path id="パス_16_1_" class="st16" d="M214.95,22c-0.75-0.32-3.33-1-3.33-1c-0.22-0.06-0.43-0.06-0.47-0.01s0.06,0.23,0.21,0.4
				c1,1.09,1.84,2.31,2.5,3.63c0.45,1.02,0.64,1.21,1.07,1.21c0.86,0,1.72-1.13,1.73-2.2C216.67,23.1,216.19,22.54,214.95,22z"/>
		</g>
		<g id="グループ_13_1_">
			<path id="パス_17_1_" class="st16" d="M236.18,24.89l0-0.05c-0.14-0.15-0.3-0.29-0.46-0.42l-2.24-1.77
				c-0.19-0.14-0.45-0.12-0.6,0.06l-1.33,1.47c-0.19,0.18-0.44,0.29-0.7,0.31l-3.76-0.01c-0.23,0-0.29-0.15-0.15-0.32l0.69-0.92
				c0.16-0.21,0.38-0.37,0.64-0.44c0,0,0.81-0.19,0.81-0.46c0-0.29-3.49-0.95-3.49-0.95c-0.23-0.04-0.44,0.11-0.49,0.33l-0.78,2.67
				c-0.08,0.21-0.15,0.37-0.17,0.35s-0.16-0.17-0.33-0.33l-1.84-1.61c-0.18-0.14-0.44-0.12-0.59,0.06l-1.13,1.3
				c-0.18,0.19-0.43,0.3-0.69,0.31l-2.47-0.01c-0.23,0-0.31-0.16-0.18-0.34l0.63-1.02c0.15-0.22,0.37-0.37,0.62-0.43
				c0,0,0.77-0.14,0.77-0.41c0-0.29-3.54-0.98-3.54-0.98c-0.23-0.04-0.45,0.1-0.51,0.32c-0.24,0.94-0.55,1.87-0.93,2.76
				c-0.75,1.55-1.6,3.05-2.55,4.48c-0.13,0.2-0.17,0.39-0.11,0.44s0.27-0.02,0.45-0.16l4.21-3.81c0.19-0.18,0.44-0.29,0.7-0.31
				l0.03,0c0.25,0.01,0.48,0.16,0.59,0.38c0.41,0.95,0.7,1.94,0.86,2.96c0.11,0.62,0.27,0.83,0.64,0.83
				c0.95-0.12,1.69-0.87,1.78-1.82c0-0.7-2.59-2.14-2.59-2.14c-0.2-0.11-0.18-0.2,0.05-0.2l5.62,0.01c0.14-0.02,0.27,0.08,0.29,0.22
				c0.01,0.06-0.01,0.11-0.03,0.16l-0.8,1.64c-0.13,0.21-0.36,0.34-0.61,0.32l-0.15-0.01c-0.2-0.02-0.39,0.12-0.41,0.32
				c0,0.02,0,0.03,0,0.05l0,1.69c0,0.23-0.19,0.42-0.42,0.42l-6.59-0.01c-0.23,0-0.42,0.12-0.42,0.28c0,0.16,0.19,0.28,0.42,0.28
				l6.58,0.01c0.23,0,0.42,0.19,0.42,0.42l-0.01,2.5c0,0.23-0.19,0.42-0.42,0.42l-9.24-0.02c-0.23,0-0.42,0.12-0.42,0.28
				c0,0.15,0.19,0.28,0.42,0.28l14.19,0.05c0.23,0,0.42,0.19,0.42,0.42l0,2.12c0,0.23-0.19,0.42-0.42,0.42l-13.84-0.03
				c-0.23,0-0.42,0.13-0.42,0.28c0,0.16,0.19,0.29,0.41,0.29l13.84,0.03c0.23,0,0.42,0.19,0.42,0.42l-0.01,4.14
				c0,0.21-0.02,0.41-0.05,0.62c-0.03,0.11-0.65,0.19-0.87,0.18l-3.39-0.17c-0.23-0.02-0.42,0.05-0.43,0.14
				c-0.01,0.1,0.17,0.23,0.39,0.3c0.85,0.23,1.68,0.55,2.47,0.94c0.4,0.35,0.63,0.85,0.64,1.38c0.03,0.38,0.11,0.48,0.38,0.48
				c0.97-0.03,1.92-0.26,2.8-0.67c0.33-0.21,0.6-0.5,0.79-0.84c0.11-0.25,0.17-0.52,0.18-0.79l0.01-5.78
				c0.02-0.21,0.21-0.36,0.42-0.35l4.84,0.01c0.25,0,0.49-0.02,0.74-0.05l0-0.16c-0.13-0.17-0.28-0.33-0.44-0.47l-2.05-1.73
				c-0.18-0.14-0.45-0.12-0.6,0.06l-1.22,1.45c-0.17,0.19-0.42,0.31-0.68,0.32l-0.59,0c-0.14,0.01-0.28,0-0.42-0.03l0.01-2.51
				c0-0.23,0.19-0.42,0.42-0.42l5.08,0.01c0.26,0,0.51-0.02,0.77-0.05l0-0.19c-0.15-0.16-0.31-0.32-0.47-0.46l-2.23-1.79
				c-0.19-0.14-0.45-0.12-0.61,0.05l-1.39,1.55c-0.18,0.19-0.43,0.3-0.69,0.31l-5.4-0.01c-0.23,0-0.41-0.19-0.41-0.42l0.01-2.5
				c0-0.23,0.19-0.42,0.42-0.42l7.98,0.02c0.24,0,0.48-0.02,0.71-0.05l0-0.16c-0.15-0.16-0.31-0.31-0.48-0.45l-2-1.54
				c-0.19-0.13-0.46-0.11-0.62,0.06l-1.18,1.27c-0.19,0.18-0.44,0.29-0.7,0.3l-3.71-0.01c-0.23,0-0.41-0.19-0.41-0.42l0-0.4
				c0.01-0.25,0.17-0.46,0.39-0.55c0,0,0.63-0.21,0.63-0.45c0-0.29-1.98-0.52-1.98-0.52c-0.23-0.03-0.26-0.16-0.08-0.3l2.12-1.86
				c0.2-0.18,0.45-0.28,0.71-0.29l0.16,0c0.25,0.01,0.47,0.16,0.59,0.38c0.35,0.8,0.6,1.64,0.76,2.5c0.13,0.78,0.32,1.08,0.75,1.08
				c0.91-0.12,1.63-0.83,1.75-1.74c0-0.73-2.55-2.02-2.55-2.02c-0.21-0.1-0.18-0.19,0.05-0.19l7.39,0.02c0.23,0,0.46-0.02,0.69-0.05
				L236.18,24.89z"/>
		</g>
	</g>
	<g id="グループ_15_1_" transform="translate(124.303 0.23)">
		<path id="パス_18_1_" class="st16" d="M235.22,26.6c0.23,0,0.46-0.02,0.69-0.05l0-0.16c-0.15-0.16-0.3-0.32-0.47-0.47
			l-2.13-1.83c-0.18-0.14-0.43-0.12-0.58,0.06c0,0,0,0,0,0l-1.25,1.55c-0.18,0.19-0.42,0.31-0.68,0.32l-1.91,0
			c-0.23,0-0.41-0.19-0.42-0.42l0-2.23c0.01-0.25,0.16-0.47,0.39-0.58c0,0,0.69-0.29,0.69-0.53c0-0.35-3.75-0.7-3.75-0.7
			c-0.18-0.03-0.34,0.1-0.37,0.28c0,0.03,0,0.07,0,0.1l0.12,1.88c0.01,0.23,0.01,0.6,0.01,0.83l0,0.94c0,0.23-0.19,0.41-0.42,0.41
			L220.82,26c-0.23,0-0.42,0.12-0.42,0.28c0,0.15,0.19,0.28,0.42,0.28L235.22,26.6z"/>
		<path id="パス_19_1_" class="st16" d="M221.62,30.41c-0.86,1.43-1.83,2.79-2.91,4.06c-0.15,0.17-0.23,0.36-0.18,0.41
			c0.05,0.05,0.25,0,0.45-0.13l6.07-4.97c0.14-0.16,0.32-0.26,0.53-0.3l0.05,0c0.54,0,0.91-0.16,0.92-0.38c0-0.29-3.21-1.5-3.21-1.5
			c-0.21-0.08-0.45,0.03-0.53,0.24c0,0,0,0,0,0.01C222.48,28.73,222.08,29.59,221.62,30.41z"/>
		<path id="パス_20_1_" class="st16" d="M229.02,27.78c-0.22-0.07-0.42-0.07-0.45,0s0.08,0.25,0.25,0.41
			c1.48,1.36,2.81,2.88,3.96,4.54c0.48,0.86,0.72,1.08,1.1,1.08c0.64,0,1.21-1.02,1.21-2.15c0-0.91-0.32-1.4-1.45-2.1
			C232.15,28.84,230.6,28.25,229.02,27.78z"/>
		<path id="パス_21_1_" class="st16" d="M218.5,33.33c0.59,0,1.29-0.99,1.3-1.82c0-0.48-0.72-1.06-0.72-1.06
			c-0.22-0.17-0.45-0.33-0.69-0.47l-1.14-0.59c-0.22-0.11-0.37-0.33-0.38-0.58l0-0.54c0-0.23,0.19-0.42,0.42-0.41l3.04,0.01
			c0.22,0,0.44-0.02,0.66-0.05l0-0.16c-0.07-0.09-0.26-0.3-0.42-0.46l-1.51-1.51c-0.14-0.14-0.38-0.14-0.52,0
			c-0.01,0.01-0.03,0.03-0.04,0.04l-0.91,1.24c-0.11,0.17-0.29,0.29-0.49,0.34c-0.13,0-0.24-0.19-0.24-0.42l0.03-3.71
			c0.01-0.25,0.16-0.47,0.39-0.58c0,0,0.64-0.27,0.64-0.45c0-0.34-3.43-0.73-3.43-0.73c-0.2-0.03-0.38,0.11-0.41,0.31
			c0,0.02,0,0.04,0,0.06l-0.01,5.09c0,0.23,0,0.42-0.01,0.42l-3.15-0.01c-0.23,0-0.42,0.13-0.42,0.28c0,0.16,0.19,0.29,0.42,0.29
			l2.55,0.01c0.18-0.01,0.34,0.13,0.35,0.32c0,0.03,0,0.06-0.01,0.09c0,0-0.63,3.27-1.25,5.39c-0.65,2.02-1.44,3.99-2.36,5.91
			c-0.1,0.21-0.11,0.42-0.03,0.47s0.27-0.05,0.42-0.22l3.46-5.32c0.1-0.21,0.18-0.19,0.18,0.04l-0.02,11.17
			c0,0.23,0.06,0.43,0.13,0.45c0.13,0.02,0.25,0.03,0.38,0.03l0.29,0c0.46,0.01,0.92-0.05,1.36-0.17c0.21-0.08,0.39-0.16,0.41-0.16
			c0.03-0.15,0.04-0.3,0.03-0.46l0.03-15.3c0-0.23,0.1-0.25,0.21-0.06c0.43,0.76,0.73,1.58,0.89,2.44
			C217.99,33.09,218.18,33.33,218.5,33.33z"/>
		<path id="パス_22_1_" class="st16" d="M231.71,41.02c-1.08-0.42-2.1-0.99-3.03-1.68c1.18-1.53,2.17-3.21,2.92-4.99
			c0.91-0.03,1.21-0.11,1.21-0.35c0-0.31-0.36-0.52-3.24-1.79c-0.06-0.03-0.12-0.06-0.19-0.08c-0.2-0.08-0.32,0.07-0.4,0.39
			c-0.15,0.65-0.35,1.3-0.59,1.93c-0.48,1.17-1.05,2.29-1.73,3.36c-1.06-1.36-1.94-2.86-2.61-4.44c-0.44-1-0.6-0.82-0.62-0.87
			l-0.57,0.25c-0.09,0.08-0.06,0.29,0.14,0.75c0.81,1.94,1.73,3.82,2.76,5.65c-2.19,2.86-5.07,5.11-8.38,6.54l0.14,0.29
			c1.88-0.34,3.7-0.94,5.41-1.79c1.58-0.79,3.03-1.83,4.28-3.08c1.48,1.61,3.21,2.98,5.13,4.04c0.4,0.26,0.85,0.46,1.31,0.57
			c0.16,0,0.27-0.11,0.32-0.4c0.08-0.34,0.2-0.68,0.35-0.99c0.38-0.77,1-1.39,1.77-1.77l0-0.27
			C234.57,42.06,233.1,41.63,231.71,41.02z"/>
	</g>
</g>
<g id="グループ_3115_1_" transform="translate(33.624 64.193)">
	<path id="パス_2038_2_" class="st16" d="M210.03-8.13c0.25,0.06,0.51,0.09,0.76,0.09h1.71c0.27-0.32,0.35-0.42,0.62-0.72
		c0.44,0.33,0.58,0.44,0.99,0.78c0.04,0.04,0.06,0.07,0.06,0.09c0,0.04-0.04,0.06-0.11,0.06h-3.31c-0.22,0-0.44,0.02-0.65,0.07
		L210.03-8.13z M210.31-9.38c0.22,0.05,0.45,0.08,0.68,0.08h1.22l0.6-0.69c0.41,0.32,0.53,0.42,0.91,0.75
		c0.02,0.03,0.03,0.06,0.04,0.09c0,0.04-0.04,0.06-0.1,0.06h-2.69c-0.2,0-0.41,0.01-0.61,0.05L210.31-9.38z M210.39-6.85
		c0.23,0.05,0.45,0.07,0.68,0.08h1.1c0.31-0.36,0.31-0.36,0.62-0.68c0.4,0.32,0.52,0.42,0.89,0.74c0.03,0.02,0.05,0.05,0.05,0.09
		c0,0.04-0.04,0.06-0.11,0.06h-2.56c-0.2,0-0.41,0.02-0.61,0.06L210.39-6.85z M210.41-5.57c0.23,0.05,0.45,0.07,0.68,0.08h1.02
		c0.26-0.31,0.34-0.4,0.6-0.69c0.4,0.31,0.52,0.41,0.89,0.74c0.04,0.05,0.06,0.07,0.06,0.1s-0.04,0.06-0.11,0.06h-2.47
		c-0.2,0-0.41,0.02-0.61,0.05L210.41-5.57z M211.45-1.05c-0.01,0.18-0.12,0.22-0.68,0.22c-0.28,0-0.34-0.03-0.34-0.2
		c0.04-1.14,0.04-1.37,0.04-2.07c0-0.58,0-0.72-0.04-1.62c0.49,0.24,0.64,0.32,1.11,0.58h0.89c0.21-0.26,0.27-0.34,0.48-0.58
		c0.35,0.25,0.45,0.33,0.75,0.58c0.09,0.08,0.12,0.13,0.12,0.18c0,0.08-0.07,0.14-0.32,0.29c0.01,0.62,0.01,1.34,0.03,2.15
		c0,0.12-0.03,0.17-0.13,0.21c-0.19,0.04-0.39,0.07-0.59,0.07c-0.25,0-0.31-0.04-0.31-0.2v-0.17h-1.02L211.45-1.05z M211.45-1.82
		h1.02v-2.11h-1.02V-1.82z M219.48-2.13c-0.44,0.2-0.74,0.61-0.82,1.08c-0.01,0.05-0.05,0.09-0.11,0.09
		c-0.13-0.03-0.25-0.08-0.37-0.14c-0.69-0.32-1.31-0.76-1.86-1.29c-0.97,0.79-2.12,1.35-3.35,1.63l-0.04-0.13
		c1.07-0.53,2.04-1.25,2.84-2.13c-0.53-0.7-0.9-1.51-1.08-2.36c-0.22,0.01-0.43,0.03-0.65,0.07l-0.06-0.36
		c0.26,0.05,0.52,0.07,0.78,0.08h2.39c0.23-0.26,0.3-0.33,0.54-0.57c0.42,0.31,0.55,0.4,0.94,0.71c0.1,0.08,0.13,0.13,0.13,0.17
		c0,0.09-0.11,0.14-0.46,0.24c-0.36,0.74-0.82,1.42-1.36,2.04c0.78,0.43,1.64,0.68,2.53,0.73L219.48-2.13z M213.54-5.76
		c0.43-0.4,0.72-0.91,0.85-1.48c0.14-0.62,0.21-1.26,0.2-1.9c0-0.28-0.02-0.55-0.06-0.82c0.53,0.25,0.68,0.33,1.18,0.61h0.93
		c0.21-0.25,0.28-0.33,0.52-0.58c0.34,0.26,0.44,0.35,0.76,0.61c0.08,0.07,0.11,0.12,0.11,0.16c0,0.08-0.07,0.14-0.35,0.28v1.6
		c0,0.15,0.03,0.16,0.32,0.16s0.37-0.02,0.45-0.15c0.21-0.45,0.37-0.92,0.48-1.41l0.11,0.01L219-7.45v0.08
		c0,0.07,0.03,0.1,0.12,0.15c0.18,0.05,0.29,0.21,0.29,0.4c0.01,0.19-0.11,0.37-0.29,0.44c-0.35,0.1-0.72,0.14-1.08,0.11
		c-0.38,0.04-0.76,0.01-1.13-0.1c-0.16-0.08-0.25-0.26-0.22-0.44v-0.33c0.01-0.22,0.01-0.36,0.01-0.38v-1.62h-1.07
		c0.08,0.82-0.11,1.65-0.54,2.35c-0.39,0.49-0.9,0.86-1.48,1.1L213.54-5.76z M214.9-5.39c0.26,0.72,0.71,1.36,1.3,1.86
		c0.43-0.57,0.77-1.19,1.02-1.86H214.9z"/>
	<path id="パス_2039_2_" class="st16" d="M228.24-6.9c-0.02,0.12-0.04,0.21-0.05,0.27c-0.02,0.08-0.07,0.3-0.15,0.65h1.49
		c0.22-0.23,0.29-0.31,0.52-0.53c0.36,0.24,0.47,0.31,0.79,0.56c0.08,0.07,0.12,0.11,0.12,0.17c0,0.06-0.06,0.12-0.31,0.26v0.95
		c0,1.26,0.01,1.9,0.04,2.39c0,0.07-0.02,0.13-0.07,0.18c-0.2,0.08-0.42,0.11-0.64,0.09c-0.33,0-0.38-0.02-0.38-0.18v-0.2h-3.01
		v0.22c-0.01,0.19-0.12,0.23-0.69,0.23c-0.36,0-0.41-0.03-0.41-0.23c0.02-1.02,0.04-1.87,0.04-2.54c0-0.93-0.01-1.31-0.05-1.86
		c0.4,0.14,0.78,0.31,1.15,0.5h0.38c0.14-0.59,0.14-0.61,0.2-0.91h-3.49c-0.26-0.01-0.51,0.01-0.76,0.06l-0.06-0.35
		c0.26,0.05,0.53,0.08,0.79,0.08h3.56c0.05-0.23,0.07-0.37,0.13-0.75h-2.7v0.16c-0.01,0.18-0.11,0.21-0.66,0.21
		c-0.36,0-0.42-0.03-0.42-0.21c0.02-0.61,0.03-0.92,0.03-1.32c0-0.4-0.01-0.58-0.04-0.99c0.52,0.2,0.68,0.26,1.16,0.49h5.37
		c0.25-0.24,0.32-0.32,0.56-0.53c0.33,0.22,0.43,0.29,0.73,0.52c0.11,0.07,0.15,0.12,0.15,0.18c0,0.06-0.05,0.1-0.34,0.27v0.28
		c0,0.27,0.01,0.55,0.03,0.95c0,0.1-0.02,0.13-0.12,0.19c0.42,0.3,0.48,0.34,0.84,0.64c0.03,0.02,0.04,0.05,0.05,0.09
		c0,0.03-0.05,0.05-0.11,0.05L228.24-6.9z M224.57-0.99c0,0.19-0.09,0.22-0.7,0.22c-0.36,0-0.41-0.02-0.41-0.22
		c0.04-1.03,0.05-1.57,0.05-2.95c0.04-0.8,0.01-1.6-0.08-2.4c1.36,0.12,1.51,0.15,1.51,0.29c0,0.09-0.11,0.16-0.37,0.24v4.34h5.61
		c0.36-0.36,0.47-0.47,0.8-0.77c0.36,0.25,0.7,0.52,1.03,0.81c0.04,0.05,0.06,0.08,0.06,0.11s-0.04,0.06-0.11,0.06h-7.4L224.57-0.99
		z M224.68-9.31v1.26h1.14v-1.26H224.68z M229.61-5.77h-3.01v0.89h3.01V-5.77z M226.6-4.67v0.95h3.01v-0.95H226.6z M226.6-3.5v1
		h3.01v-1H226.6z M226.81-8.06h1.17v-1.26h-1.17V-8.06z M230.37-7.1c0.12-0.12,0.29-0.29,0.5-0.52c-0.13,0.01-0.2,0.01-0.32,0.01
		c-0.31,0-0.37-0.02-0.37-0.15v-0.1h-1.75c-0.08,0.41-0.08,0.41-0.15,0.75L230.37-7.1z M228.99-8.06h1.2v-1.26h-1.2V-8.06z"/>
	<path id="パス_2040_2_" class="st16" d="M235.49-8.12c0.25,0.05,0.49,0.07,0.74,0.08h1.65c0.27-0.32,0.35-0.41,0.62-0.71
		c0.44,0.32,0.56,0.42,0.96,0.75c0.05,0.05,0.07,0.08,0.07,0.1c0,0.04-0.05,0.07-0.13,0.07h-3.18c-0.23,0-0.46,0.02-0.68,0.06
		L235.49-8.12z M235.73-6.84c0.23,0.05,0.47,0.08,0.71,0.08h1.16c0.24-0.31,0.32-0.4,0.57-0.68c0.32,0.23,0.63,0.48,0.92,0.74
		c0.03,0.02,0.04,0.05,0.05,0.09c0,0.03-0.05,0.06-0.1,0.06h-2.63c-0.21,0-0.41,0.01-0.62,0.05L235.73-6.84z M235.79-5.56
		c0.22,0.05,0.44,0.08,0.66,0.08h1.15c0.23-0.31,0.3-0.4,0.54-0.68c0.4,0.31,0.52,0.41,0.9,0.74c0.03,0.02,0.04,0.05,0.05,0.09
		c0,0.03-0.05,0.06-0.12,0.06h-2.53c-0.2,0-0.39,0.01-0.59,0.05L235.79-5.56z M235.82-9.4c0.23,0.05,0.47,0.08,0.7,0.08h1.1
		c0.27-0.33,0.35-0.43,0.63-0.73c0.42,0.34,0.54,0.44,0.91,0.78c0.04,0.04,0.06,0.07,0.06,0.1c0,0.03-0.04,0.06-0.12,0.06h-2.58
		c-0.22,0-0.44,0.01-0.66,0.05L235.82-9.4z M236.93-1.06c0,0.23-0.12,0.28-0.65,0.28c-0.32,0-0.38-0.04-0.38-0.22
		c0.02-0.68,0.03-1.23,0.03-2.12c0-0.75-0.01-0.97-0.04-1.6c0.49,0.24,0.64,0.32,1.12,0.6h0.77c0.2-0.24,0.2-0.24,0.5-0.58
		c0.33,0.24,0.43,0.31,0.72,0.55c0.08,0.07,0.11,0.12,0.11,0.17c0,0.08-0.08,0.15-0.32,0.29v0.48c0,0.31,0.02,1.68,0.03,2
		c0.01,0.06-0.01,0.13-0.04,0.18c-0.06,0.08-0.27,0.12-0.63,0.12c-0.26,0-0.32-0.04-0.33-0.2v-0.33h-0.92L236.93-1.06z M236.93-1.66
		h0.92v-2.25h-0.92V-1.66z M239.57-8.38c0.85,0.1,0.85,0.1,1.18,0.15c0.05-0.3,0.07-0.61,0.07-0.91h-0.63
		c-0.24,0-0.48,0.01-0.71,0.05l-0.07-0.34c0.26,0.05,0.51,0.08,0.77,0.08h2.94c0.25-0.25,0.33-0.33,0.58-0.57
		c0.28,0.2,0.55,0.42,0.8,0.66c0.07,0.06,0.09,0.09,0.09,0.14c0,0.09-0.06,0.14-0.31,0.27c-0.13,2.1-0.25,2.79-0.56,3.16
		c-0.28,0.29-0.68,0.45-1.09,0.42c-0.11,0-0.13-0.01-0.15-0.12c-0.03-0.18-0.12-0.34-0.26-0.46c-0.14-0.12-0.23-0.15-0.88-0.33
		l0.02-0.14c0.72,0.08,1.02,0.11,1.26,0.11c0.26,0,0.33-0.08,0.42-0.43c0.15-0.83,0.23-1.66,0.23-2.5h-1.42
		c-0.02,0.37-0.07,0.74-0.15,1.1l0.14,0.04c0.2,0.03,0.39,0.12,0.54,0.26c0.12,0.13,0.18,0.3,0.18,0.48c0,0.28-0.12,0.52-0.27,0.52
		c-0.07,0-0.14-0.04-0.25-0.15c-0.17-0.15-0.35-0.29-0.55-0.42c-0.45,1.16-1.4,2.05-2.58,2.44l-0.06-0.09
		c0.47-0.35,0.87-0.77,1.19-1.26c0.3-0.48,0.51-1.01,0.63-1.57c-0.36-0.2-0.73-0.37-1.12-0.5L239.57-8.38z M240.02-4.25
		c0.06,0.3,0.09,0.6,0.09,0.9c0,0.96-0.36,1.77-0.78,1.77c-0.15-0.02-0.28-0.12-0.33-0.27c-0.06-0.15-0.09-0.3-0.1-0.46
		c0-0.16,0.1-0.32,0.33-0.5c0.42-0.36,0.67-0.89,0.67-1.45L240.02-4.25z M240.5-3.69c0-0.29-0.02-0.59-0.05-0.88
		c1.22,0.11,1.32,0.13,1.32,0.26c0,0.07-0.06,0.12-0.3,0.22v1.93c0,0.19,0,0.19,0.58,0.19c0.34,0,0.46-0.03,0.53-0.15
		c0.22-0.46,0.39-0.93,0.52-1.42l0.1,0.01l-0.04,1.24v0.01c-0.01,0.09,0.06,0.18,0.15,0.2c0.19,0.04,0.32,0.21,0.31,0.41
		c-0.01,0.28-0.22,0.51-0.5,0.53c-0.45,0.06-0.91,0.09-1.37,0.07c-1.03,0-1.21-0.08-1.26-0.57v-0.24c0-0.05,0-0.05,0.01-0.79
		L240.5-3.69z M240.94-5.42c1.59,0.36,1.97,0.55,1.97,0.99c0,0.36-0.24,0.74-0.46,0.74c-0.11,0-0.16-0.06-0.34-0.36
		c-0.29-0.53-0.71-0.98-1.22-1.3L240.94-5.42z M243.4-4.3c0.48,0.26,0.9,0.61,1.24,1.04c0.15,0.18,0.24,0.4,0.26,0.63
		c0,0.41-0.36,0.9-0.65,0.9c-0.16,0-0.24-0.14-0.28-0.47c-0.06-0.43-0.15-0.86-0.28-1.27c-0.09-0.27-0.21-0.53-0.37-0.76L243.4-4.3z
		"/>
	<path id="パス_2041_2_" class="st16" d="M256.22-4.74v0.95l0.01,1.11l0.01,0.64c0.04,0.31-0.09,0.61-0.34,0.79
		c-0.39,0.23-0.83,0.35-1.28,0.35c-0.14,0-0.18-0.04-0.19-0.15c-0.02-0.24-0.15-0.47-0.36-0.6c-0.46-0.25-0.95-0.41-1.47-0.48
		l0.01-0.12c1.14,0.07,1.45,0.08,2.29,0.08c0.15-0.01,0.18-0.04,0.18-0.17v-6.63h-5.81c-0.3,0-0.6,0.02-0.89,0.06l-0.05-0.37
		c0.31,0.07,0.63,0.1,0.94,0.1h6.42c0.33-0.39,0.43-0.5,0.75-0.88c0.5,0.38,0.66,0.5,1.15,0.9c0.05,0.05,0.07,0.08,0.07,0.11
		s-0.05,0.07-0.13,0.07h-1.33L256.22-4.74z M250.64-3.32c0,0.08-0.03,0.16-0.09,0.21c-0.23,0.1-0.48,0.13-0.73,0.11
		c-0.24,0-0.32-0.05-0.32-0.21v-0.06c0.04-0.91,0.05-1.86,0.05-3.29c0-0.48-0.01-0.86-0.05-1.46c0.43,0.19,0.85,0.41,1.26,0.66h1.66
		c0.25-0.28,0.33-0.36,0.59-0.64c0.28,0.19,0.55,0.39,0.81,0.61c0.08,0.08,0.12,0.13,0.12,0.17c0,0.08-0.06,0.13-0.33,0.28
		c0,1.56,0.01,2.19,0.04,3.32c0,0.12-0.04,0.16-0.15,0.2c-0.22,0.05-0.45,0.08-0.67,0.08c-0.25,0-0.32-0.04-0.32-0.21V-4.1h-1.86
		V-3.32z M250.64-4.31h1.86v-2.85h-1.86V-4.31z"/>
	<path id="パス_2042_2_" class="st16" d="M266.11-3.8c0,0.88,0.02,1.8,0.04,2.74c-0.01,0.25-0.1,0.29-0.74,0.29
		c-0.43,0-0.49-0.03-0.49-0.24c0.05-2.28,0.05-2.28,0.05-2.79h-2.1v0.48c-0.01,0.25-0.1,0.29-0.69,0.29c-0.43,0-0.49-0.03-0.49-0.21
		v-0.03c0.04-1.88,0.05-2.07,0.05-3.19c0-1.07-0.02-1.63-0.06-2.39c0.45,0.2,0.89,0.43,1.31,0.69h1.97
		c0.01-0.61-0.01-1.21-0.06-1.82c0.33,0.04,0.6,0.06,0.75,0.08c0.71,0.07,0.85,0.1,0.85,0.23c0,0.1-0.11,0.17-0.41,0.28v1.23h2.09
		c0.32-0.35,0.32-0.35,0.61-0.67c0.29,0.19,0.57,0.39,0.84,0.62c0.09,0.08,0.13,0.13,0.13,0.18c0,0.08-0.08,0.14-0.36,0.28
		c0.01,2.74,0.01,2.74,0.05,4.4c-0.01,0.25-0.12,0.29-0.76,0.29c-0.36,0-0.43-0.03-0.43-0.23l0.01-0.02V-3.8L266.11-3.8z
		 M264.96-7.96h-2.09v1.82h2.1L264.96-7.96z M264.97-5.93h-2.1v1.92h2.1L264.97-5.93z M268.28-7.96h-2.18v1.82h2.19L268.28-7.96z
		 M268.28-5.93h-2.18l0.01,1.92h2.18L268.28-5.93z"/>
	<path id="パス_2043_1_" class="st16" d="M273.73-8.12c0.22,0.05,0.45,0.08,0.69,0.08h1.51c0.29-0.32,0.38-0.42,0.68-0.72
		c0.43,0.33,0.56,0.44,0.96,0.79c0.04,0.04,0.05,0.06,0.05,0.08c0,0.02-0.05,0.06-0.11,0.06h-3.13c-0.2-0.01-0.4,0.01-0.6,0.06
		L273.73-8.12z M273.99-5.55c0.2,0.05,0.41,0.07,0.62,0.07h1.08c0.26-0.31,0.34-0.4,0.6-0.69c0.4,0.31,0.52,0.41,0.88,0.72
		c0.05,0.05,0.07,0.08,0.07,0.11s-0.05,0.07-0.13,0.07h-2.5c-0.19,0-0.37,0.02-0.56,0.05L273.99-5.55z M275.72-6.74
		c0.26-0.31,0.34-0.4,0.6-0.7c0.41,0.32,0.53,0.42,0.91,0.75c0.02,0.02,0.04,0.04,0.05,0.07c0,0.03-0.01,0.05-0.03,0.07
		c0.24,0.05,0.47,0.07,0.71,0.07h1.46v-1h-1.02c-0.2,0-0.41,0.02-0.61,0.05l-0.07-0.33c0.22,0.05,0.45,0.07,0.67,0.07h1.02v-0.95
		h-1.27c-0.21,0-0.42,0.02-0.63,0.06l-0.07-0.34c0.23,0.05,0.46,0.07,0.69,0.07h1.27v-0.24c0-0.31-0.02-0.61-0.06-0.91
		c0.31,0.03,0.56,0.05,0.7,0.06c0.63,0.04,0.79,0.08,0.79,0.2c0,0.09-0.11,0.16-0.39,0.25v0.65h0.88c0.26-0.32,0.35-0.42,0.62-0.7
		c0.42,0.32,0.54,0.42,0.92,0.74c0.04,0.05,0.06,0.07,0.06,0.1s-0.05,0.07-0.12,0.07h-2.35v0.95h0.75c0.26-0.3,0.34-0.39,0.61-0.67
		c0.29,0.23,0.58,0.47,0.84,0.72c0.03,0.02,0.04,0.06,0.05,0.09c0,0.03-0.05,0.06-0.1,0.06h-2.15v1h1.05l0.65-0.7
		c0.42,0.32,0.54,0.42,0.92,0.74c0.04,0.05,0.06,0.08,0.06,0.11c0,0.03-0.04,0.06-0.09,0.06h-5.08c-0.23-0.01-0.45,0.02-0.67,0.07
		l-0.07-0.35l-0.07,0.01h-2.52c-0.2,0-0.4,0.01-0.6,0.05L274-6.8c0.22,0.04,0.44,0.07,0.67,0.07L275.72-6.74z M274.06-9.42
		c0.2,0.05,0.42,0.08,0.63,0.08h1.02c0.29-0.32,0.38-0.42,0.67-0.72c0.32,0.25,0.64,0.51,0.93,0.79c0.03,0.04,0.04,0.06,0.04,0.08
		c0,0.04-0.04,0.06-0.09,0.06h-2.57c-0.19,0-0.38,0.01-0.57,0.05L274.06-9.42z M275.12-1.05c0,0.2-0.14,0.25-0.7,0.25
		c-0.25,0-0.31-0.04-0.31-0.21c0.04-0.94,0.04-1.13,0.04-1.82c0-0.84-0.01-1.29-0.05-1.86c0.38,0.16,0.75,0.35,1.11,0.57h0.73
		c0.16-0.19,0.32-0.37,0.5-0.54c0.33,0.24,0.43,0.31,0.73,0.55c0.08,0.07,0.11,0.11,0.11,0.16c0,0.08-0.08,0.15-0.3,0.28
		c0,1.42,0,1.46,0.04,2.46c0,0.23-0.14,0.29-0.7,0.29c-0.27,0-0.32-0.03-0.33-0.18v-0.36h-0.88L275.12-1.05z M275.11-1.67H276v-2.24
		h-0.89V-1.67z M278.79-2.99v0.53c0,0.29,0,0.38,0.01,1.39c0,0.22-0.13,0.27-0.68,0.27c-0.31,0-0.36-0.03-0.37-0.19
		c0.03-1.17,0.04-1.76,0.04-2.84c0-0.93-0.01-1.4-0.04-2.22l1.14,0.56h2.18c0.22-0.25,0.29-0.32,0.52-0.55
		c0.27,0.17,0.54,0.36,0.78,0.57c0.08,0.07,0.11,0.12,0.11,0.16c0,0.08-0.07,0.15-0.31,0.3v2.11c0,0.08,0.01,0.32,0.02,0.68
		c0,0.11,0.01,0.29,0.01,0.5c0.03,0.2-0.04,0.41-0.19,0.56c-0.25,0.21-0.57,0.33-0.89,0.35c-0.12,0.01-0.17,0.02-0.23,0.02
		c-0.11,0-0.13-0.02-0.14-0.12c-0.01-0.22-0.12-0.41-0.29-0.55c-0.14-0.11-0.22-0.14-0.88-0.33l0.01-0.13
		c0.78,0.05,0.95,0.06,1.44,0.06c0.09,0,0.11-0.02,0.11-0.12v-1L278.79-2.99z M281.16-5.29h-2.37v0.92h2.37V-5.29z M281.16-4.16
		h-2.37v0.96h2.37V-4.16z"/>
	<path id="パス_2044_1_" class="st16" d="M291.6-4.46v0.31c0,0.92,0.01,2.18,0.04,3.05c0,0.25-0.13,0.3-0.77,0.3
		c-0.44,0-0.49-0.03-0.49-0.25c0.04-1.3,0.04-1.65,0.05-3.4h-2.14v0.53c0,0.24-0.12,0.28-0.7,0.28c-0.43,0-0.48-0.03-0.48-0.25
		c0.05-1.66,0.05-1.77,0.05-2.6s-0.01-1.2-0.05-1.85c0.47,0.2,0.93,0.43,1.37,0.68h1.97c0.03-0.75,0-1.51-0.08-2.25
		c0.32,0.02,0.58,0.04,0.73,0.05c0.75,0.06,0.93,0.11,0.93,0.24c0,0.09-0.11,0.16-0.44,0.26v1.71h2.17c0.27-0.3,0.35-0.39,0.62-0.67
		c0.39,0.27,0.5,0.35,0.84,0.6c0.11,0.09,0.15,0.15,0.15,0.22c0,0.09-0.08,0.16-0.35,0.3c0,1.57,0.01,1.99,0.06,3.26
		c0,0.27-0.12,0.32-0.79,0.32c-0.35,0-0.4-0.03-0.4-0.22v-0.59L291.6-4.46z M290.44-5.64v-1.82h-2.15v2.79h2.14L290.44-5.64z
		 M293.9-7.45h-2.3v2.79h2.3L293.9-7.45z"/>
</g>
</svg>
