<svg id="グループ_1667" data-name="グループ 1667" xmlns="http://www.w3.org/2000/svg" width="132.654" height="34.28" viewBox="0 0 132.654 34.28">
  <g id="グループ_1655" data-name="グループ 1655" transform="translate(26.508 11.001)">
    <g id="グループ_1650" data-name="グループ 1650" transform="translate(27.662 0.289)">
      <path id="パス_806" data-name="パス 806" d="M326.56,178a.349.349,0,0,0-.39.33v.228c0,.116,0,.387,0,.6,0,0,.023,5.071.1,7.23,0,.621-.323.745-1.936.745-1.092,0-1.217-.074-1.217-.62.1-3.252.122-8.125.122-8.125a.389.389,0,0,0-.388-.39h-4.581a.391.391,0,0,0-.39.39v.834a.7.7,0,0,1-.373.681,3.461,3.461,0,0,1-1.224.106c-1.067,0-1.356-.074-1.356-.621.124-4.145.124-4.418.124-6.5,0-2.11-.1-4.227-.1-4.227a.22.22,0,0,1,.336-.23l2.727,1.365a1.814,1.814,0,0,0,.732.187h4.135a.388.388,0,0,0,.388-.39l-.039-4.857c0-.243.1-.361.342-.36s.936.033,1.675.111c.587.062,2,.259,2,.582,0,.224-.728.505-.728.505a.614.614,0,0,0-.364.531v3.489a.392.392,0,0,0,.39.39h4.656a1,1,0,0,0,.651-.291l1.014-1.11a.46.46,0,0,1,.584-.063l1.473,1.038a5.878,5.878,0,0,1,.593.5.4.4,0,0,1,.1.27c0,.224-.2.4-.869.745v8.142c0,.5-.131.727-.687.766-.25.018-.734.028-1.149.028a4.621,4.621,0,0,1-.6-.028.405.405,0,0,1-.393-.453v-1.139a.391.391,0,0,0-.39-.39Zm-3.295-7.039a.423.423,0,0,0-.39-.458h-4.606a.392.392,0,0,0-.39.39v6.195a.391.391,0,0,0,.39.39h4.581a.4.4,0,0,0,.394-.39S323.265,171.224,323.265,170.963Zm8.639-.067a.392.392,0,0,0-.39-.39h-4.978a.392.392,0,0,0-.39.39v6.195a.391.391,0,0,0,.39.39h4.978a.391.391,0,0,0,.39-.39Z" transform="translate(-314.925 -164.377)" fill="#0099d9"/>
    </g>
    <g id="グループ_1651" data-name="グループ 1651" transform="translate(82.887 0.196)">
      <path id="パス_807" data-name="パス 807" d="M424.674,174.477a1.29,1.29,0,0,0,.92-.289l1.038-1.137a.419.419,0,0,1,.566-.041l1.466,1.257c.161.143.379.362.517.507s.059.224-.156.224H415.6c-.272,0-.393-.113-.393-.269s.138-.252.388-.252h6.2a.576.576,0,0,0,.512-.371l1.408-5.156a.356.356,0,0,1,.457-.268s3.127.954,3.127,1.252c0,.248-.659.374-.659.374a1.128,1.128,0,0,0-.611.39l-2.766,3.486c-.142.161-.083.293.132.293Zm-.455-6.876a1.042,1.042,0,0,0,.659-.284l1.006-1.093a.426.426,0,0,1,.569-.044l1.495,1.237c.163.14.436.395.5.463.117.118.045.241-.146.241H416.128c-.306,0-.477-.089-.477-.26s.168-.261.468-.261h3.938a.391.391,0,0,0,.39-.39v-.659c0-.215,0-.566-.01-.78l-.081-1.207a.318.318,0,0,1,.356-.354,16.414,16.414,0,0,1,3.06.519c.2.1.126.257.08.3a2.172,2.172,0,0,1-.49.275.643.643,0,0,0-.31.523v1.379a.392.392,0,0,0,.39.39ZM419.5,185.5v.589a.453.453,0,0,1-.322.372,5.123,5.123,0,0,1-1.413.2c-.819,0-1.021-.1-1.021-.571.074-2.482.052-3.9.052-6.057,0-1.415.01-3.383.01-3.383a.22.22,0,0,1,.339-.228l2.284,1.166a1.824,1.824,0,0,0,.733.186h3.44a1.014,1.014,0,0,0,.653-.288l.806-.846a.473.473,0,0,1,.591-.055s.965.706,1.115.827.421.325.612.5a.286.286,0,0,1,.113.234c-.009.15-.246.308-.432.475a.881.881,0,0,0-.338.586v3.532l.025,1.067c.025.943.025.993.025,1.887,0,.3-.075.422-.3.522a4.873,4.873,0,0,1-1.564.224,2.629,2.629,0,0,1-.528-.034.329.329,0,0,1-.262-.3,3.6,3.6,0,0,1-.03-.53v-.436a.391.391,0,0,0-.39-.39h-3.812a.391.391,0,0,0-.39.39Zm-2.321-16.824c.062-.048.258.01.436.13a16.054,16.054,0,0,1,2.979,2.529,1.2,1.2,0,0,1,.288,1.039,2.345,2.345,0,0,1-1.8,1.626c-.422,0-.571-.224-.621-.919a13.889,13.889,0,0,0-1.219-3.968C417.148,168.925,417.122,168.728,417.183,168.68Zm2.321,15.161a.391.391,0,0,0,.39.39h3.812a.391.391,0,0,0,.39-.39V178.69a.391.391,0,0,0-.39-.39h-3.812a.391.391,0,0,0-.39.39Zm12.014-1.893v.613s0,.33.05,3.755a.572.572,0,0,1-.224.546,5.151,5.151,0,0,1-1.762.224c-.645,0-.795-.124-.795-.621.1-5.437.149-9.384.149-14.174,0-3.872-.156-7.4-.156-7.4a.226.226,0,0,1,.341-.236l2.275,1.1a1.869,1.869,0,0,0,.735.183h1.975a.9.9,0,0,0,.628-.309l.711-.9a.412.412,0,0,1,.558-.077s2.014,1.559,2.3,1.813a.337.337,0,0,1,.157.269c0,.248-.66.418-.66.418a1.161,1.161,0,0,0-.587.431l-3.847,5.492a.408.408,0,0,0,.064.557,19.6,19.6,0,0,1,3.5,3.625,6.487,6.487,0,0,1,.769,3.127,4.471,4.471,0,0,1-1.239,2.883,3.762,3.762,0,0,1-.938.714,3.365,3.365,0,0,1-1.323.275c-.348,0-.4-.05-.447-.522a2.763,2.763,0,0,0-.571-1.291,3.192,3.192,0,0,0-1.29-.6C431.686,181.776,431.518,181.825,431.518,181.948Zm0-1.011a.439.439,0,0,0,.388.428s1.672.161,2.044.161c.819,0,1.018-.4,1.018-2.11,0-2.432-2.21-5.612-2.21-5.612a.885.885,0,0,1-.1-.691l1.794-6.275a.291.291,0,0,0-.3-.379h-2.247a.392.392,0,0,0-.39.39Z" transform="translate(-415.204 -164.208)" fill="#0099d9"/>
    </g>
    <g id="グループ_1654" data-name="グループ 1654" transform="translate(54.405 0)">
      <g id="グループ_1652" data-name="グループ 1652" transform="translate(4.69 15.956)">
        <path id="パス_808" data-name="パス 808" d="M375.522,193.789c-.694-.3-3.08-.92-3.08-.92-.2-.054-.4-.059-.433-.01s.055.213.2.368a14.916,14.916,0,0,1,2.321,3.344c.422.943.6,1.117.993,1.117.8,0,1.59-1.044,1.59-2.037C377.112,194.807,376.665,194.286,375.522,193.789Z" transform="translate(-372.002 -192.825)" fill="#0099d9"/>
      </g>
      <g id="グループ_1653" data-name="グループ 1653">
        <path id="パス_809" data-name="パス 809" d="M386.5,167.164v-.051a4.045,4.045,0,0,0-.425-.388L384,165.089a.416.416,0,0,0-.558.055l-1.226,1.363a1,1,0,0,1-.644.285h-3.477c-.212,0-.276-.134-.143-.3l.635-.849a1.159,1.159,0,0,1,.59-.408s.745-.183.745-.43c0-.274-3.225-.873-3.225-.873a.392.392,0,0,0-.453.306l-.714,2.465c-.072.2-.141.345-.155.324s-.15-.157-.305-.3l-1.707-1.481a.39.39,0,0,0-.542.055l-1.041,1.2a.969.969,0,0,1-.639.289h-2.284c-.213,0-.288-.144-.17-.318l.582-.941a.966.966,0,0,1,.574-.4s.715-.131.715-.378c0-.273-3.273-.9-3.273-.9a.408.408,0,0,0-.467.3,17,17,0,0,1-.854,2.556,36.138,36.138,0,0,1-2.347,4.147c-.116.177-.161.361-.1.409s.249-.017.418-.145l3.879-3.532a1,1,0,0,1,.645-.284h.026a.665.665,0,0,1,.549.347,11.488,11.488,0,0,1,.8,2.732c.1.572.248.769.6.769a1.876,1.876,0,0,0,1.639-1.688c0-.645-2.4-1.973-2.4-1.973-.186-.1-.162-.187.049-.187h5.19a.237.237,0,0,1,.234.354l-.738,1.517a.619.619,0,0,1-.562.3l-.14-.013a.342.342,0,0,0-.382.346v1.56a.387.387,0,0,1-.385.385h-6.093c-.213,0-.385.117-.385.26s.172.261.385.26l6.08,0a.385.385,0,0,1,.385.384v2.309a.386.386,0,0,1-.385.385l-8.539,0c-.211,0-.385.117-.385.257s.173.255.385.256l13.108.014a.386.386,0,0,1,.385.385v1.962a.386.386,0,0,1-.385.384l-12.784,0c-.212,0-.385.118-.385.262s.173.263.385.263H377.5a.385.385,0,0,1,.385.384v3.826a3.871,3.871,0,0,1-.021.393.317.317,0,0,1-.224.273,1.81,1.81,0,0,1-.612.073l-3.131-.153c-.211-.017-.389.044-.4.133s.153.209.356.269a12.571,12.571,0,0,1,2.288.861,1.756,1.756,0,0,1,.6,1.267c.025.348.1.447.347.447a6.723,6.723,0,0,0,2.583-.621,2.094,2.094,0,0,0,.73-.779,2.034,2.034,0,0,0,.164-.731v-5.32a.359.359,0,0,1,.385-.322h5.112c.192,0,.115-.142.03-.238s-.241-.252-.4-.395l-1.894-1.59a.41.41,0,0,0-.555.055l-1.123,1.345a.91.91,0,0,1-.625.3h-.547a.375.375,0,0,1-.385-.372v-1.975a.385.385,0,0,1,.385-.385h5.371c.164,0,.144-.126.052-.219-.108-.108-.3-.292-.461-.43l-2.061-1.652a.431.431,0,0,0-.565.051L382,175.066a.946.946,0,0,1-.633.292h-4.991a.385.385,0,0,1-.384-.385v-2.309a.384.384,0,0,1,.384-.384h7.932c.2,0,.167-.158.1-.222-.086-.082-.28-.26-.444-.394l-1.849-1.421a.451.451,0,0,0-.574.058l-1.09,1.176a1.013,1.013,0,0,1-.645.281h-3.428a.384.384,0,0,1-.384-.384V171a.575.575,0,0,1,.363-.509s.58-.2.58-.421c0-.273-1.829-.479-1.829-.479-.21-.024-.245-.148-.078-.278l1.958-1.728a1.072,1.072,0,0,1,.657-.272h.15a.659.659,0,0,1,.546.349,10.42,10.42,0,0,1,.707,2.308c.124.721.3.993.695.993a1.872,1.872,0,0,0,1.616-1.614c0-.67-2.365-1.863-2.365-1.863-.189-.1-.17-.174.041-.174h6.83a4.026,4.026,0,0,0,.633-.05Z" transform="translate(-363.486 -163.852)" fill="#0099d9"/>
      </g>
    </g>
    <path id="パス_810" data-name="パス 810" d="M285.552,167.129c0-.145-.172-.249-.384-.249h0l-6.182,0h0c-.212,0-.385.106-.385.251s.173.263.385.263a2.469,2.469,0,0,1,2.327,1.263c.376.616.531,1.605.531,3.613l0,10.627c-.022.152-.163.2-.293.1L270.3,166.878l-4.981,0c-.212,0-.384.118-.384.263s.172.263.384.263h0c2.141.161,2.4.921,2.4,3.542l0,10.779c0,3.64-.37,4.74-2.642,4.848h0c-.212,0-.385.107-.385.252s.173.262.385.262h6.182c.212,0,.384-.118.384-.262s-.172-.251-.384-.251h0c-2.3-.133-2.809-1.1-2.809-4.631V169.326a.168.168,0,0,1,.292-.1l12.474,17.868h1.367l0-15.013c0-1.713.075-2.781.476-3.425a2.271,2.271,0,0,1,2.16-1.263v-.008C285.407,167.365,285.552,167.26,285.552,167.129Z" transform="translate(-264.695 -165.212)" fill="#0099d9"/>
  </g>
  <g id="グループ_1656" data-name="グループ 1656" transform="translate(0 10.239)">
    <path id="パス_811" data-name="パス 811" d="M221.069,178.776l-4.508,3.277,1.722,5.3,2.786-8.578" transform="translate(-216.561 -169.796)" fill="#0099d9"/>
    <path id="パス_812" data-name="パス 812" d="M224.485,177.19l-2.786,8.579,1.72,5.3,1.066-13.878" transform="translate(-218.87 -169.084)" fill="#0099d9"/>
    <path id="パス_813" data-name="パス 813" d="M227.3,180.922l4.513,13.878h-5.576l1.063-13.878" transform="translate(-220.908 -170.76)" fill="#0099d9"/>
    <path id="パス_814" data-name="パス 814" d="M227.985,176.183l10.085,13.88h-5.576l-4.509-13.88" transform="translate(-221.694 -168.631)" fill="#0099d9"/>
    <path id="パス_815" data-name="パス 815" d="M223.6,165.746l4.511-3.277,5.575,17.156L223.6,165.746" transform="translate(-219.722 -162.47)" fill="#0099d9"/>
    <path id="パス_816" data-name="パス 816" d="M234.761,166.581l4.511,3.275,1.064,13.88-5.575-17.155" transform="translate(-224.738 -164.317)" fill="#0099d9"/>
    <path id="パス_817" data-name="パス 817" d="M244.239,174.289l4.511,3.276-3.445,10.6-1.066-13.878" transform="translate(-228.997 -167.78)" fill="#0099d9"/>
  </g>
  <g id="グループ_1660" data-name="グループ 1660" transform="translate(27.408 0.046)">
    <g id="グループ_1657" data-name="グループ 1657" transform="translate(2.8)">
      <path id="パス_818" data-name="パス 818" d="M272.18,145.52a.687.687,0,0,0,.565-.666c0-.314-1.184-.866-1.184-.866-.06-.028-.124-.035-.141-.017s0,.082.035.137a3.9,3.9,0,0,1,.459,1.012C272,145.458,272.047,145.52,272.18,145.52Z" transform="translate(-271.413 -143.961)" fill="#0099d9"/>
    </g>
    <g id="グループ_1658" data-name="グループ 1658" transform="translate(1.188 0.126)">
      <path id="パス_819" data-name="パス 819" d="M269.305,145.71c.243,0,.5-.329.5-.619,0-.322-1.184-.875-1.184-.875-.059-.028-.12-.035-.132-.016s.008.079.045.135a4.061,4.061,0,0,1,.5,1.061C269.11,145.631,269.18,145.71,269.305,145.71Z" transform="translate(-268.487 -144.189)" fill="#0099d9"/>
    </g>
    <g id="グループ_1659" data-name="グループ 1659" transform="translate(0 0.047)">
      <path id="パス_820" data-name="パス 820" d="M272.728,147.788a.133.133,0,0,0-.176.017l-.459.517a.311.311,0,0,1-.2.091H270.5a.122.122,0,0,1-.122-.122v-.211a.19.19,0,0,1,.113-.165s.176-.067.176-.145v-.04c-.051-.03-.042-.074.02-.1l1.173-.522a.563.563,0,0,1,.2-.053h.023c.2,0,.3-.039.3-.117a.112.112,0,0,0-.033-.071,1.651,1.651,0,0,0-.136-.125.046.046,0,0,1,.008-.079c.033-.021.137-.084.193-.118l.592-.381a.489.489,0,0,1,.218-.083s.365-.03.365-.131a.123.123,0,0,0-.031-.079,2.274,2.274,0,0,0-.182-.16l-.607-.457a.152.152,0,0,0-.186.009l-.318.3a.341.341,0,0,1-.208.086h-.847c-.067,0-.078-.033-.024-.072l1.058-.867a.31.31,0,0,1,.154-.08h.007c.212,0,.322-.04.322-.126,0-.039,0-.04,0-.04a1.084,1.084,0,0,0-.214-.111l-.9-.305a.126.126,0,0,0-.156.078l-.618,1.416a.219.219,0,0,1-.177.107h-3.135a.136.136,0,0,1-.133-.121l-.034-.292c-.01-.066-.041-.119-.069-.119s-.064.053-.079.117c0,0-.191.776-.568.987l-.18.1c-.013.013-.058.067-.1.12a.292.292,0,0,0-.036.171c0,.322.188.6.416.6s.479-.362.479-.362a.721.721,0,0,0,.095-.219,4.518,4.518,0,0,0,.093-.744v-.015c0-.03.055-.055.121-.055h4.6a.092.092,0,0,1,.094.118l-.159.551a.084.084,0,0,1-.137.042l-.4-.283a.15.15,0,0,0-.185.018l-.246.25a.33.33,0,0,1-.205.087l-3.048,0c-.067,0-.121.037-.121.083s.055.083.121.083l3.023,0c.067,0,.088.044.048.1l-.564.67a.26.26,0,0,1-.2.068l-.552-.079a.105.105,0,0,0-.121.106v.782s-.055,0-.121,0h-2.908c-.067,0-.122.036-.122.08s.055.081.122.081l2.481,0h.427a.122.122,0,0,1,.121.122v1.524s-.009.021-.02.047-.091.047-.1.047l-.137,0-1.3-.074c-.068,0-.122.015-.122.044s.053.063.118.079a4.708,4.708,0,0,1,.956.323.587.587,0,0,1,.22.408c.016.126.039.149.141.149a2.043,2.043,0,0,0,.846-.2.66.66,0,0,0,.257-.346,1.052,1.052,0,0,0,.033-.238V148.7a.122.122,0,0,1,.122-.122h2.845a1.371,1.371,0,0,0,.232-.023V148.5a.9.9,0,0,0-.14-.148Z" transform="translate(-266.329 -144.046)" fill="#0099d9"/>
    </g>
  </g>
  <g id="グループ_1666" data-name="グループ 1666" transform="translate(36.744 0.031)">
    <g id="グループ_1661" data-name="グループ 1661" transform="translate(2.987 0.041)">
      <path id="パス_821" data-name="パス 821" d="M293.025,145.47a1.244,1.244,0,0,0,.2-.016v-.046a1.838,1.838,0,0,0-.136-.137l-.623-.531a.119.119,0,0,0-.169.019l-.365.453a.29.29,0,0,1-.2.094h-.557a.121.121,0,0,1-.121-.121v-.651a.2.2,0,0,1,.111-.169s.2-.085.2-.156c0-.1-1.093-.2-1.093-.2a.094.094,0,0,0-.107.109l.036.55c0,.067,0,.176,0,.242v.275a.121.121,0,0,1-.122.121h-1.258c-.067,0-.122.036-.122.08s.055.08.122.08Z" transform="translate(-288.707 -144.008)" fill="#0099d9"/>
    </g>
    <g id="グループ_1662" data-name="グループ 1662" transform="translate(2.446 1.796)">
      <path id="パス_822" data-name="パス 822" d="M288.624,148.021a8.771,8.771,0,0,1-.845,1.183c-.043.051-.066.106-.051.12s.073,0,.13-.036l1.764-1.452a.271.271,0,0,1,.153-.089h.015c.156,0,.267-.047.267-.11a4.572,4.572,0,0,0-.936-.435.119.119,0,0,0-.154.072A5.3,5.3,0,0,1,288.624,148.021Z" transform="translate(-287.724 -147.194)" fill="#0099d9"/>
    </g>
    <g id="グループ_1663" data-name="グループ 1663" transform="translate(5.366 1.837)">
      <path id="パス_823" data-name="パス 823" d="M293.159,147.283c-.064-.019-.123-.019-.132,0s.025.073.074.118a7.947,7.947,0,0,1,1.155,1.319c.141.251.212.313.322.313.187,0,.352-.3.352-.627,0-.266-.094-.408-.422-.611A9.451,9.451,0,0,0,293.159,147.283Z" transform="translate(-293.026 -147.268)" fill="#0099d9"/>
    </g>
    <g id="グループ_1664" data-name="グループ 1664">
      <path id="パス_824" data-name="パス 824" d="M285.721,147.409c.172,0,.376-.29.376-.533,0-.141-.21-.308-.21-.308a1.954,1.954,0,0,0-.2-.136l-.333-.173a.2.2,0,0,1-.111-.17v-.157a.121.121,0,0,1,.121-.121h.884a1.166,1.166,0,0,0,.192-.015v-.047c-.021-.025-.076-.086-.122-.135l-.439-.44a.106.106,0,0,0-.16.014l-.264.361a.228.228,0,0,1-.141.1c-.039,0-.069-.054-.069-.121l.007-1.081a.2.2,0,0,1,.112-.169s.186-.078.186-.133c0-.1-1-.209-1-.209a.106.106,0,0,0-.121.107v1.484c0,.067,0,.121,0,.121h-.917c-.066,0-.121.037-.121.083s.055.083.121.083h.742a.1.1,0,0,1,.1.12s-.18.953-.36,1.571a13.922,13.922,0,0,1-.684,1.723c-.029.06-.033.122-.009.137s.079-.014.121-.066l1-1.552c.03-.06.053-.055.053.013v3.255c0,.067.017.126.038.13a.816.816,0,0,0,.111.01h.086a1.35,1.35,0,0,0,.4-.051c.063-.024.116-.045.119-.048a.649.649,0,0,0,.01-.133v-4.454c0-.067.027-.074.061-.017a2.231,2.231,0,0,1,.26.709C285.572,147.339,285.626,147.409,285.721,147.409Z" transform="translate(-283.282 -143.933)" fill="#0099d9"/>
    </g>
    <g id="グループ_1665" data-name="グループ 1665" transform="translate(2.135 3.114)">
      <path id="パス_825" data-name="パス 825" d="M291.315,152.181a5.719,5.719,0,0,1-.783-.42.117.117,0,0,1-.033-.165l.723-1.249a.241.241,0,0,1,.175-.118s.232-.021.232-.091c0-.089-.106-.15-.943-.519l-.056-.024c-.057-.024-.091.019-.116.116a4.646,4.646,0,0,1-.171.561,9.747,9.747,0,0,1-.441.874.067.067,0,0,1-.126,0s-.546-.844-.7-1.191l-.128-.29a1.006,1.006,0,0,1-.138.075.2.2,0,0,0-.1.123l.059.132c.191.43.752,1.536.752,1.536a.181.181,0,0,1-.03.194l-2.247,1.762c-.057.034-.1.081-.085.1s.073.03.138.013a9.971,9.971,0,0,0,1.457-.495,7.922,7.922,0,0,0,1.153-.822.138.138,0,0,1,.18,0,9.624,9.624,0,0,0,1.408,1.091,1.21,1.21,0,0,0,.383.165c.047,0,.079-.031.094-.117a1,1,0,0,1,.055-.179,1.4,1.4,0,0,1,.117-.21l.348-.349c.054-.038.1-.087.1-.109s-.053-.051-.118-.064A7.73,7.73,0,0,1,291.315,152.181Z" transform="translate(-287.159 -149.587)" fill="#0099d9"/>
    </g>
  </g>
  <path id="パス_826" data-name="パス 826" d="M301.086,145.857c1.024.258,1.406.5,1.406.883a.645.645,0,0,1-.516.633c-.133,0-.164-.039-.289-.391a4.416,4.416,0,0,0-.558-.959.19.19,0,0,1-.043-.166Zm.008,2.813a2.984,2.984,0,0,0,.578.094c.109,0,.18-.062.274-.242.109-.2.469-.922.758-1.523.3-.617.469-1,.735-1.657h0a.114.114,0,0,1,.065.146l-.975,3.105c-.019.063-.05.167-.069.231a2.329,2.329,0,0,0-.077.376,1.029,1.029,0,0,0,.071.3,1.882,1.882,0,0,1,.172.695.847.847,0,0,1-.8.882c-.156,0-.251-.085-.251-.218a1.108,1.108,0,0,1,.031-.258,7.487,7.487,0,0,0,.118-1.078.7.7,0,0,0-.165-.5,1.41,1.41,0,0,0-.364-.205.148.148,0,0,1-.1-.146Zm.5-4.508c1.109.257,1.468.476,1.468.882,0,.3-.258.617-.485.617-.124,0-.18-.055-.249-.226a5.1,5.1,0,0,0-.7-1.118.152.152,0,0,1-.038-.155Zm5.226,3.313c.219-.251.422-.477.617-.7a10.91,10.91,0,0,1,.883.726c.031.039.046.063.046.078,0,.031-.039.055-.085.055h-2.458a.217.217,0,0,0-.176.107s-.414.807-.617,1.134c-.188.305-.351.547-.656.962,1.007-.047,1.726-.1,2.445-.18a5.689,5.689,0,0,0-.835-1.312h0a.147.147,0,0,1,.173-.007,10.264,10.264,0,0,1,1.4,1.023c.336.351.469.571.469.8,0,.383-.29.821-.547.821-.117,0-.187-.094-.281-.383a5.216,5.216,0,0,0-.258-.672c-.828.25-.836.25-3.366.835-.031.242-.079.344-.156.344-.094,0-.133-.14-.406-1.273.32.015.453.015.648.015h.352a17.077,17.077,0,0,0,.649-2.219h-1.483c-.066,0-.121-.037-.121-.082s.055-.082.121-.082h1.643a.121.121,0,0,0,.121-.121V145.97a.121.121,0,0,0-.121-.12H303.74c-.067,0-.122-.037-.122-.083s.055-.081.122-.081h1.084a.121.121,0,0,0,.121-.121v-.438c0-.067,0-.175,0-.241,0,0-.012-.442-.058-.825a9.522,9.522,0,0,1,1.14.125c.07.023.1.055.1.1,0,.07-.047.1-.328.219v1.059a.122.122,0,0,0,.121.121h.61a.293.293,0,0,0,.2-.093s.251-.3.5-.572c.392.3.5.383.867.7.031.039.047.055.047.079s-.031.047-.078.047h-2.144a.121.121,0,0,0-.121.12v1.384a.122.122,0,0,0,.121.121Z" transform="translate(-254.534 -143.96)" fill="#0099d9"/>
  <path id="パス_827" data-name="パス 827" d="M317.092,151.26a6.016,6.016,0,0,0,1.992-2.273,7.581,7.581,0,0,0,.828-2.8c.047-.414.086-.985.086-1.336,0-.156-.008-.242-.023-.446.273.031.492.055.625.062.555.063.711.1.711.2,0,.062-.069.11-.328.2-.008.117-.008.211-.008.273a6.421,6.421,0,0,0,.312,1.828,4.709,4.709,0,0,0,1.688,2.477,4.653,4.653,0,0,0,1.485.75h0a.226.226,0,0,1-.113.137,1.817,1.817,0,0,0-.692.769c-.031.078-.062.1-.1.1a4.136,4.136,0,0,1-1.18-1.016,6.428,6.428,0,0,1-1.188-2.5,10,10,0,0,1-.3-2.063,7.111,7.111,0,0,1-.649,2.868,5.458,5.458,0,0,1-2.1,2.344c-.257.164-.889.457-.889.457a.112.112,0,0,1-.149-.028Z" transform="translate(-261.729 -144.112)" fill="#0099d9"/>
  <path id="パス_828" data-name="パス 828" d="M339.4,146.048c.187-.2.242-.266.446-.461.257.187.336.25.578.446.11.086.149.133.149.18,0,.071-.07.125-.266.235v2.027c0,.067,0,.175,0,.242l.007,1.422a1.246,1.246,0,0,1-.026.238s-.1.429-.356.554a2.613,2.613,0,0,1-.828.2c-.078,0-.1-.024-.109-.133-.04-.39-.32-.554-1.328-.757h0a.113.113,0,0,1,.128-.094s.583.039,1.489.078c.133-.007.156-.031.156-.164v-1.012a.121.121,0,0,0-.121-.121h-3.391a.175.175,0,0,0-.157.115,4.679,4.679,0,0,1-.621,1.291,3.609,3.609,0,0,1-1.007.812h0c-.026-.026-.02-.094.013-.151a8.77,8.77,0,0,0,.885-4.115c0-.031,0-.14-.008-.3v-.289a7.032,7.032,0,0,1-1.063.626h0a.127.127,0,0,1,.031-.155,11.655,11.655,0,0,0,1.321-1.548,5.189,5.189,0,0,0,.672-1.335,10.937,10.937,0,0,1,1.164.3c.078.031.109.063.109.11,0,.086-.085.125-.406.156-.117.156-.148.2-.258.336h1.231a.322.322,0,0,0,.2-.088s.175-.186.37-.373c.32.226.422.3.75.531.117.094.172.157.172.2s-.031.063-.086.078a3.121,3.121,0,0,1-.367.07c-.695.547-1.033.776-1.033.776-.055.037-.046.068.021.068Zm-2,0a7.513,7.513,0,0,0,.539-1.1H336.6a.305.305,0,0,0-.2.091,9.635,9.635,0,0,1-.764.768l.252.173a.449.449,0,0,0,.22.069Zm-.316,2.711a.121.121,0,0,0,.121-.121v-1.024a.121.121,0,0,0-.121-.121h-1.047a.127.127,0,0,0-.125.121l-.062,1.025a.107.107,0,0,0,.108.12Zm-1.16-2.547v.438c0,.219,0,.382-.008.679h1.169a.121.121,0,0,0,.121-.12v-.876a.121.121,0,0,0-.121-.121Zm2.125,1a.122.122,0,0,0,.121.12h1.149a.121.121,0,0,0,.121-.12v-.876a.121.121,0,0,0-.121-.121h-1.149a.121.121,0,0,0-.121.121Zm.121.284a.122.122,0,0,0-.121.121v1.024a.122.122,0,0,0,.121.121h1.149a.121.121,0,0,0,.121-.121v-1.024a.121.121,0,0,0-.121-.121Z" transform="translate(-269.307 -143.877)" fill="#0099d9"/>
  <path id="パス_829" data-name="パス 829" d="M349.464,151.228a5.036,5.036,0,0,0,.821-2.485,15.964,15.964,0,0,0,.055-1.656c0-.336,0-.336.007-.5v-.25a17.207,17.207,0,0,0-.07-1.9c1.063.055,1.305.086,1.305.2,0,.07-.079.125-.313.211-.008.195-.016.781-.031,1.75a11.613,11.613,0,0,1-.14,2.312,3.622,3.622,0,0,1-.929,1.782c-.18.2-.549.508-.549.508a.129.129,0,0,1-.155.024Zm4.329-6.453c.054.024.078.047.078.086,0,.086-.031.11-.312.21,0,.352-.008,2.078-.008,2.188,0,1.039.016,2.4.032,3.1v.031a.14.14,0,0,1-.078.149,3.091,3.091,0,0,1-.665.069c-.132,0-.171-.039-.179-.155,0-.227,0-.227.023-.781.008-.531.015-.9.015-1.649,0-.68-.007-2.062-.015-2.656a6.452,6.452,0,0,0-.04-.711A7.3,7.3,0,0,1,353.793,144.775Zm2.523-.156c0,.078-.063.117-.312.219-.016,1.344-.016,1.977-.016,2.461,0,.961.008,1.914.031,2.891.007.453.015.539.015.8a.145.145,0,0,1-.1.148,2.618,2.618,0,0,1-.61.063c-.188,0-.242-.031-.258-.14.031-1.1.047-2.149.047-3.422,0-1.812-.017-2.781-.063-3.227C356.191,144.485,356.316,144.509,356.316,144.618Z" transform="translate(-276.273 -144.119)" fill="#0099d9"/>
  <path id="パス_830" data-name="パス 830" d="M368.51,148.407c0,.289,0,.438.015,1.586,0,.14.008.242.008.351a1.226,1.226,0,0,1-.055.484.288.288,0,0,1-.265.2.544.544,0,0,1-.415-.274,1.323,1.323,0,0,1-.273-.649.852.852,0,0,1,.062-.3,12.321,12.321,0,0,0,.18-3.047c0-1.407-.023-1.672-.133-1.875a1.015,1.015,0,0,0-.539-.406.509.509,0,0,1,.3-.078,2.1,2.1,0,0,1,.961.305c.281.164.39.289.39.453a.372.372,0,0,1-.062.195c-.14.226-.156.375-.18,1.586a5.881,5.881,0,0,1,1.891.4.8.8,0,0,1,.571.766c0,.328-.141.547-.352.547-.1,0-.164-.039-.36-.258a4.632,4.632,0,0,0-1.75-1.219v1.227Zm1.383-3.68c1.039.352,1.383.594,1.383.976,0,.2-.133.383-.289.383-.078,0-.141-.055-.211-.18a4.62,4.62,0,0,0-.84-1.036c-.05-.045-.069-.11-.043-.144Zm.7-.539a3.831,3.831,0,0,1,.93.313c.3.14.445.312.445.555,0,.2-.118.367-.251.367-.07,0-.117-.047-.188-.156a2.6,2.6,0,0,0-.445-.586,3.519,3.519,0,0,0-.431-.354c-.055-.037-.083-.1-.061-.138Z" transform="translate(-284.195 -144.017)" fill="#0099d9"/>
  <path id="パス_831" data-name="パス 831" d="M381.723,151.44a6.4,6.4,0,0,0,1.837-2.094,8.925,8.925,0,0,0,1.125-3.18,13.018,13.018,0,0,0-2.539.336,1.092,1.092,0,0,1-.211.032.822.822,0,0,1-.437-.165c.023.383.023.422.039.844.015.274.023.485.031.617.015.313.023.43.023.477,0,.367-.1.539-.312.539-.142,0-.281-.11-.422-.328a1.121,1.121,0,0,1-.211-.578.493.493,0,0,1,.047-.188,1.783,1.783,0,0,0,.1-.671,2.457,2.457,0,0,0-.164-.992.938.938,0,0,0-.485-.445.375.375,0,0,1,.227-.055,1.961,1.961,0,0,1,.984.438,10.1,10.1,0,0,0,1.5-.141c1.071-.133,1.376-.172,1.563-.211a.741.741,0,0,0,.312-.133.382.382,0,0,1,.188-.063,1.342,1.342,0,0,1,.688.383c.195.188.281.3.281.422a.306.306,0,0,1-.11.227,1.309,1.309,0,0,0-.265.531,8.516,8.516,0,0,1-1.859,3.227,8.874,8.874,0,0,1-1.768,1.21.122.122,0,0,1-.162-.037Z" transform="translate(-290.058 -144.597)" fill="#0099d9"/>
  <path id="パス_832" data-name="パス 832" d="M395.2,146.061a4.415,4.415,0,0,1,1.712.508.735.735,0,0,1,.382.672c0,.367-.18.648-.422.648-.133,0-.211-.062-.328-.265a6.048,6.048,0,0,0-1.288-1.4.148.148,0,0,1-.056-.161Zm5.937.453a8.332,8.332,0,0,1-1.758,2.421,12.552,12.552,0,0,1-2.265,1.782,1.756,1.756,0,0,0-.422.344.429.429,0,0,1-.329.195c-.2,0-.491-.219-.765-.571a1.489,1.489,0,0,1-.375-.867.618.618,0,0,1,.039-.211c.212.359.469.579.68.579a6.863,6.863,0,0,0,2.281-1.2,27.586,27.586,0,0,0,2.735-2.43.166.166,0,0,1,.178-.039Z" transform="translate(-296.82 -144.858)" fill="#0099d9"/>
  <path id="パス_833" data-name="パス 833" d="M410.38,145.888a.808.808,0,0,0,.5.133c.36,0,1.6-.133,2.438-.258a1.155,1.155,0,0,0,.492-.164.389.389,0,0,1,.194-.055,1.486,1.486,0,0,1,.719.453c.211.195.281.312.281.43,0,.086-.023.133-.132.242a1.376,1.376,0,0,0-.2.5c-.07.289-.085.351-.3,1.226-.047.226-.094.4-.125.531.3.211.437.4.437.57,0,.149-.085.226-.25.226a3.415,3.415,0,0,1-.367-.039,5.434,5.434,0,0,0-.672-.039,6.629,6.629,0,0,0-2.554.445.673.673,0,0,1-.188.039c-.351,0-.9-.68-.9-1.126a1.248,1.248,0,0,1,.023-.18.965.965,0,0,0,.828.523c.094,0,.251-.015.414-.031.352-.047.352-.047.976-.117.383-.039.883-.094,1.492-.149a24.639,24.639,0,0,0,.329-2.7c0-.11-.047-.14-.18-.14a11.131,11.131,0,0,0-1.43.18,6.463,6.463,0,0,0-1.069.3.707.707,0,0,1-.305.078c-.2,0-.43-.18-.641-.5a1.11,1.11,0,0,1-.22-.594.491.491,0,0,1,.04-.18A1.234,1.234,0,0,0,410.38,145.888Zm3.668-1.407a.07.07,0,0,1,.074-.015c.03.008.106.033.17.052a4.212,4.212,0,0,1,.814.361c.234.157.3.259.3.43,0,.242-.124.445-.273.445-.094,0-.125-.031-.25-.249a4.679,4.679,0,0,0-.77-.911C414.068,144.55,414.038,144.5,414.048,144.482Zm.77-.492a3.367,3.367,0,0,1,.984.289c.265.141.36.258.36.453,0,.235-.11.438-.242.438-.078,0-.1-.031-.226-.235a4.492,4.492,0,0,0-.819-.816c-.052-.041-.078-.1-.056-.129Z" transform="translate(-303.365 -143.928)" fill="#0099d9"/>
  <path id="パス_834" data-name="パス 834" d="M430.678,148.383l.616-.7c.4.305.517.4.892.712a.184.184,0,0,1,.046.085c0,.039-.039.063-.109.063h-2.958a.12.12,0,0,0-.12.121v.633c0,.067,0,.175,0,.242l.005.758a1.949,1.949,0,0,1-.018.24.744.744,0,0,1-.278.466,2.03,2.03,0,0,1-.844.2c-.1,0-.125-.024-.14-.148a.592.592,0,0,0-.219-.407c-.149-.124-.265-.164-1.071-.351h0a.105.105,0,0,1,.121-.094s.966.063,1.419.078h.024c.078,0,.109-.031.109-.117v-1.5a.121.121,0,0,0-.121-.121h-2.866c-.067,0-.121-.037-.121-.082s.054-.082.121-.082h2.866c.066,0,.121-.028.121-.063s0-.117,0-.183c0,0-.007-.379-.037-.661.4.047.4.047.828.117a5.546,5.546,0,0,0,.719-.851h-3.1c-.067,0-.121-.037-.121-.082s.054-.082.121-.082h3.008a.325.325,0,0,0,.2-.087s.15-.155.33-.335c.313.211.415.281.594.422a4.618,4.618,0,0,0,.226-.781h-4.707c-.066,0-.121.025-.121.055v.015a3.152,3.152,0,0,1-.117.859.636.636,0,0,1-.547.461c-.226,0-.414-.274-.414-.593a.293.293,0,0,1,.11-.267c.023-.023.023-.023.2-.124a1.217,1.217,0,0,0,.594-1.1h0a.136.136,0,0,1,.12.119s.036.24.044.412h3.246a.217.217,0,0,0,.176-.107,10.969,10.969,0,0,0,.655-1.525c.555.172,1,.32,1.126.382.07.031.1.07.1.11,0,.086-.11.125-.32.125H431a10.427,10.427,0,0,1-1.242,1.016h.965a.338.338,0,0,0,.206-.085s.188-.188.406-.383c.352.258.461.344.8.6.086.07.117.117.117.164,0,.1-.133.14-.485.14a7.65,7.65,0,0,1-.79.515,1.624,1.624,0,0,0-.148.094l.006,0c.052.041.133.112.181.159a.115.115,0,0,1,.031.07c0,.078-.094.118-.3.118h-.117a9.636,9.636,0,0,1-1.391.617c.07.024.094.055.094.094,0,.078-.07.117-.289.187v.332a.121.121,0,0,0,.12.121Zm-4.454-4.3c.93.352,1.289.6,1.289.922,0,.289-.258.617-.5.617-.125,0-.2-.078-.266-.313a4.044,4.044,0,0,0-.5-1.057.168.168,0,0,1-.023-.169Zm1.617-.125c.852.289,1.29.6,1.29.914a.684.684,0,0,1-.563.664c-.133,0-.18-.062-.265-.4a3.9,3.9,0,0,0-.458-1.008.152.152,0,0,1,0-.171Z" transform="translate(-310.216 -143.915)" fill="#0099d9"/>
  <path id="パス_835" data-name="パス 835" d="M443.506,150.869a.159.159,0,0,1-.07.156,1.131,1.131,0,0,1-.485.07c-.257,0-.319-.031-.319-.187.031-.938.046-2.2.046-4.2,0-1.1-.007-1.8-.046-2.82.437.195.57.258,1.008.492h4.488a.312.312,0,0,0,.2-.089s.184-.2.4-.419c.3.21.383.281.649.484.062.055.085.094.085.14,0,.078-.024.1-.281.258v1.77c0,.066,0,.175,0,.242,0,0,.022,3.239.053,4a.244.244,0,0,1-.055.187.944.944,0,0,1-.524.1c-.258,0-.3-.023-.312-.164v-.168a.122.122,0,0,0-.121-.121h-4.6a.122.122,0,0,0-.121.121Zm0-.542a.122.122,0,0,0,.121.121h4.6a.122.122,0,0,0,.121-.121v-5.657a.122.122,0,0,0-.121-.121h-4.6a.122.122,0,0,0-.121.121Zm3.258-3.419c.172-.164.226-.21.4-.359.226.156.3.2.508.359.062.047.086.086.086.125,0,.055-.055.1-.2.156v.328c0,.172,0,.242.007.43a4.542,4.542,0,0,1,.524.336c.079.047.11.086.11.125s-.056.07-.118.07a1.122,1.122,0,0,1-.164-.023,8.458,8.458,0,0,1-.906.343c.726.313.945.485.945.774,0,.242-.164.476-.336.476-.094,0-.109-.015-.258-.242a5.509,5.509,0,0,0-.8-.914,2.62,2.62,0,0,0-.321-.235v.441s0,.1.008.278c.015.265.015.391.023.672,0,.165-.117.211-.5.211-.234,0-.281-.031-.281-.179.031-.579.031-.626.031-.9v-.215c0-.067-.042-.086-.093-.044a7.292,7.292,0,0,1-.93.65,7.185,7.185,0,0,1-.891.375h0c-.026-.035,0-.1.047-.139a11.758,11.758,0,0,0,1.8-1.8h-.363c-.067,0-.121.031-.121.07a.953.953,0,0,1-.015.149l-.031.015a1.117,1.117,0,0,1-.437.063c-.242,0-.282-.015-.282-.125.016-.391.024-.7.024-1.024,0-.125,0-.187-.016-.609a7.624,7.624,0,0,1,.713.305.606.606,0,0,0,.228.054Zm.156-1.476c.188-.219.249-.281.445-.484a6.813,6.813,0,0,1,.625.508c.031.039.047.062.047.086s-.039.055-.1.055h-1.59a.121.121,0,0,0-.121.121v.43a.121.121,0,0,0,.121.121h.7a.3.3,0,0,0,.2-.09s.17-.191.373-.394c.273.219.359.289.609.508.039.04.055.063.055.086,0,.039-.039.055-.109.055H443.8c-.066,0-.12-.037-.12-.082s.054-.082.12-.082h1.527a.121.121,0,0,0,.121-.121v-.43a.121.121,0,0,0-.121-.121h-1.18c-.066,0-.121-.037-.121-.083s.055-.083.121-.083h1.18c.066,0,.121-.019.121-.042s0-.1,0-.164a4.2,4.2,0,0,0-.043-.5c.953.078,1.117.109,1.117.21,0,.07-.063.11-.289.164v.215a.121.121,0,0,0,.121.121Zm-1.953,2.294a.121.121,0,0,0,.121.12H446.7a.121.121,0,0,0,.121-.12v-.532a.122.122,0,0,0-.121-.121h-1.617a.121.121,0,0,0-.121.121Zm1.273.785.524.2a3.737,3.737,0,0,0,.5-.5c-.109.008-.156.008-.219.008-.171,0-.21-.023-.219-.1h0a.113.113,0,0,0-.121-.1h-.344a.122.122,0,0,0-.121.121Z" transform="translate(-318.132 -143.877)" fill="#0099d9"/>
</svg>
