<svg xmlns="http://www.w3.org/2000/svg" width="189.876" height="23.676" viewBox="0 0 189.876 23.676">
  <g id="グループ_1649" data-name="グループ 1649" transform="translate(0 0)">
    <g id="グループ_1637" data-name="グループ 1637" transform="translate(35.999 0.515)">
      <path id="パス_790" data-name="パス 790" d="M343.245,285.739l-11.9-14.794v14h-2.744V263.154l11.9,14.794v-14h2.744Z" transform="translate(-328.606 -263.154)"/>
    </g>
    <g id="グループ_1647" data-name="グループ 1647" transform="translate(63.22 0.613)">
      <g id="グループ_1638" data-name="グループ 1638" transform="translate(15.932 6.418)">
        <path id="パス_791" data-name="パス 791" d="M443.911,295.573a5.209,5.209,0,0,1-5.2-5.2v-5.389a5.2,5.2,0,1,1,10.407,0v5.389A5.209,5.209,0,0,1,443.911,295.573Zm0-13.052a2.463,2.463,0,0,0-2.46,2.46v5.389a2.46,2.46,0,0,0,4.92,0v-5.389A2.463,2.463,0,0,0,443.911,282.522Z" transform="translate(-438.708 -279.778)"/>
      </g>
      <path id="パス_792" data-name="パス 792" d="M489.025,264.816h-2.744v6.5a3.879,3.879,0,0,0-2.264-.631h-.392a5.014,5.014,0,0,0-5.008,5.008v5.78a5.013,5.013,0,0,0,5.008,5.007h.392a5.013,5.013,0,0,0,5.007-5.007Zm-2.744,16.652a2.266,2.266,0,0,1-2.264,2.264h-.392a2.267,2.267,0,0,1-2.264-2.264v-5.78a2.267,2.267,0,0,1,2.264-2.264h.392a2.266,2.266,0,0,1,2.264,2.264Z" transform="translate(-447.043 -264.263)"/>
      <g id="グループ_1640" data-name="グループ 1640" transform="translate(47.217 6.418)">
        <g id="グループ_1639" data-name="グループ 1639">
          <path id="パス_793" data-name="パス 793" d="M526.717,295.352h-3.181a5.013,5.013,0,0,1-5.008-5.008v-5.558a5.013,5.013,0,0,1,5.008-5.008h.391a5.013,5.013,0,0,1,5.008,5.008v4.262h-7.663v1.3a2.267,2.267,0,0,0,2.264,2.265h3.181Zm-5.445-9.048h4.92v-1.518a2.266,2.266,0,0,0-2.264-2.264h-.391a2.267,2.267,0,0,0-2.264,2.264Z" transform="translate(-518.528 -279.778)"/>
        </g>
      </g>
      <g id="グループ_1641" data-name="グループ 1641" transform="translate(0 0)">
        <path id="パス_794" data-name="パス 794" d="M403.777,285.617h-.711a5.013,5.013,0,0,1-5.007-5.007v-12.2a5.013,5.013,0,0,1,5.007-5.008h.711a5.013,5.013,0,0,1,5.007,5.008h-2.744a2.266,2.266,0,0,0-2.264-2.264h-.711a2.266,2.266,0,0,0-2.264,2.264v12.2a2.266,2.266,0,0,0,2.264,2.264h.711a2.266,2.266,0,0,0,2.264-2.264v-.667h2.744v.667A5.013,5.013,0,0,1,403.777,285.617Z" transform="translate(-398.058 -263.404)"/>
      </g>
      <g id="グループ_1643" data-name="グループ 1643" transform="translate(70.167 0.554)">
        <g id="グループ_1642" data-name="グループ 1642">
          <path id="パス_795" data-name="パス 795" d="M587.513,285.927H577.084V264.816h2.744v18.367h7.685Z" transform="translate(-577.084 -264.816)"/>
        </g>
      </g>
      <g id="グループ_1646" data-name="グループ 1646" transform="translate(84.808 0.768)">
        <g id="グループ_1644" data-name="グループ 1644" transform="translate(0 5.65)">
          <path id="パス_796" data-name="パス 796" d="M619.839,295.573h-.391a5.013,5.013,0,0,1-5.008-5.007A4.267,4.267,0,0,1,618.7,286.3h3.4v-1.518a2.266,2.266,0,0,0-2.264-2.264h-3.181v-2.744h3.181a5.013,5.013,0,0,1,5.008,5.008v5.78A5.013,5.013,0,0,1,619.839,295.573Zm-1.137-6.526a1.52,1.52,0,0,0-1.518,1.518,2.266,2.266,0,0,0,2.264,2.264h.391a2.266,2.266,0,0,0,2.264-2.264v-1.518Z" transform="translate(-614.44 -279.778)"/>
        </g>
        <g id="グループ_1645" data-name="グループ 1645" transform="translate(31.44 5.864)">
          <path id="パス_797" data-name="パス 797" d="M699.861,296.12a5.209,5.209,0,0,1-5.2-5.2v-5.389a5.2,5.2,0,1,1,10.407,0v5.389A5.209,5.209,0,0,1,699.861,296.12Zm0-13.052a2.463,2.463,0,0,0-2.46,2.46v5.389a2.46,2.46,0,0,0,4.92,0v-5.389A2.463,2.463,0,0,0,699.861,283.068Z" transform="translate(-694.657 -280.324)"/>
        </g>
        <path id="パス_798" data-name="パス 798" d="M655.187,282.015a5.013,5.013,0,0,0,5.008,5.007h.392a5.013,5.013,0,0,0,5.007-5.007v-5.78a5.013,5.013,0,0,0-5.007-5.008h-.392a3.879,3.879,0,0,0-2.264.631v-6.495h-2.744Zm2.744-5.78a2.267,2.267,0,0,1,2.264-2.264h.392a2.266,2.266,0,0,1,2.264,2.264v5.78a2.266,2.266,0,0,1-2.264,2.264h-.392a2.267,2.267,0,0,1-2.264-2.264Z" transform="translate(-639.217 -265.363)"/>
      </g>
    </g>
    <g id="グループ_1648" data-name="グループ 1648" transform="translate(0 0)">
      <path id="パス_799" data-name="パス 799" d="M250.608,297.212h5.7l-.669-2.363-3.871-13.773Z" transform="translate(-245.18 -273.537)" fill="#ffe100"/>
      <path id="パス_800" data-name="パス 800" d="M236.757,285.5l2.339,5.047,4.246-9.47Z" transform="translate(-236.757 -273.537)" fill="#fa422b"/>
      <path id="パス_801" data-name="パス 801" d="M281.218,282.032l-3.582-3.1.314,14.615Z" transform="translate(-261.614 -272.23)" fill="#55417d"/>
      <path id="パス_802" data-name="パス 802" d="M242.726,290.547l3.09,6.665,1.156-16.136Z" transform="translate(-240.386 -273.537)" fill="#ffae21"/>
      <path id="パス_803" data-name="パス 803" d="M253.558,281.077l3.871,13.773h5.881Z" transform="translate(-246.973 -273.537)" fill="#20c960"/>
      <path id="パス_804" data-name="パス 804" d="M250.9,261.839l-4.524,3.368,2.815,4.172,9.751,13.773Z" transform="translate(-242.606 -261.839)" fill="#5dd9cb"/>
      <path id="パス_805" data-name="パス 805" d="M265.647,268.537l-7.728-6.7,8.042,21.313Z" transform="translate(-249.625 -261.839)" fill="#188ebd"/>
    </g>
  </g>
</svg>
